<svg xmlns="http://www.w3.org/2000/svg" width="183" height="180" viewBox="0 0 183 180">
    <g fill="none" fill-rule="evenodd">
        <g fill="#121217">
            <g>
                <g>
                    <g>
                        <g>
                            <path d="M77.646 52c1.996 0 1.69 3-.292 3-1.996 0-1.69-3 .292-3zm-26.752.951c-4.812.748-5.488-7.316-.197-6.938.063.005.127.008.193.014 2.22.157 3.301 2.289 3.082 4.15l-.013.093.01-.135c.007-.17 0-.337-.02-.498l-.1-.734-1.435 2.035-1.408 1.993zm2.301-.945l-.096.105c-.46.473-1.101.792-1.93.85l-.193.014.03-.044.077-.014c.256-.05.522-.126.8-.228l.593-.219c.223-.082.42-.201.594-.348l.125-.116zM69.745 40c3.325 0 2.814 6-.489 6-3.325 0-2.816-6 .488-6zM15.8 35l.17.004c.693.036 1.333.165 1.916.634 1.278 1.024 1.601 3.468.193 4.594-.605.482-1.166.725-1.892.763-1.643.087-3.111-.882-3.186-2.858-.068-1.87 1.327-3.22 2.968-3.133zm63.394-5c2.66 0 2.253 4-.39 4-2.66 0-2.252-4 .39-4zm-26.09-1l.167.002c.808.028 1.612.19 2.159.743.588.592.743 1.5.357 2.207-.577 1.06-2.042 1.357-3 .7l-.122-.09-.073-.007c-.934-.133-1.606-1.053-1.593-1.825l.007-.114c.11-1 1.144-1.656 2.265-1.614zm-1.097 2.516c.041.205.122.394.241.571.117.188.258.346.417.475l.069.007c.048.002.096.003.145 0 .138-.004.276-.007.413-.008l.109.006h.047c.019-.004-.088-.02-.32-.05l-.85-.514c-.308-.658-.398-.82-.27-.487zM36.1 26l.13.007c1.57.138 2.213 1.734 1.448 2.9-.123.19-.254.35-.412.517-.643.67-1.66.822-2.363.101-.262-.27-.46-.575-.664-.885-.813-1.243.595-2.755 1.992-2.633zm-10.791-8.83c.997-.355 2.345-.164 3.181.667l.054.058.063.042c.99.708 1.552 1.934 1.353 3.274l-.035.202c-.013.063-.028.125-.043.186l-.017.055-.007.14c-.025.308-.086.612-.179.918l-.049.145-.009.04c-.26.996-.905 1.756-1.85 1.954l-.019.003-.172.053c-.966.256-2.02-.036-2.84-.645l-.15-.118c-1.12-.924-1.61-2.284-1.59-3.807.019-1.46 1.142-2.75 2.309-3.167zm2.974 7.439c-.455.091-.91.18-1.367.27.245.03.477.03.695 0l.141-.025c.187-.063.362-.143.53-.245zm1.218-3.645l.019.047-1.5 1.392-1.617 1.5c.153 0 .302.01.453.025 1.097.1 2.114-.497 2.68-1.48l.002-.006.195-.987c.011.127.017.253.018.378l-.004.174.021-.051c.022-.058.042-.117.061-.176l.036-.126.006-.091c.014-.543-.078-1.102-.286-1.709-.043-.123-.093-.267-.146-.388-.323-.714-.112 1.03.062 1.498zm.246 1.043l-.048.119c-.025.056-.05.11-.078.164l-.083.152-.02.108-.217 1.094c.119-.238.22-.471.302-.702l.027-.085.031-.129c.049-.227.078-.465.087-.71l-.001-.011zM2.195 18c2.66 0 2.253 4-.39 4-2.66 0-2.253-4 .39-4zm42.451-1c1.996 0 1.69 3-.293 3-1.995 0-1.688-3 .293-3zm-16.934.47c.411.322.823.647 1.234.968-.033-.053-.067-.107-.102-.16-.068-.109-.144-.21-.226-.305l-.074-.078-.09-.06c-.103-.065-.21-.125-.321-.18-.14-.068-.277-.13-.42-.185zM1.01 4.075c.093-2.22 2.68-3.611 4.717-2.878 2.122.763 2.948 3.347 1.66 5.157-.068.095-.138.192-.208.286C5.434 9.029 1.705 8.069 1.08 5.329c-.09-.399-.087-.845-.07-1.254zM32.187.657c1.41 0 2.336 1.632 2.273 3.01-.07 1.583-1.435 2.488-2.75 2.488-1.411 0-2.336-1.633-2.274-3.01.072-1.584 1.435-2.488 2.75-2.488z" transform="translate(-154 -2691) translate(0 2397) translate(135 62) translate(19 232.39) scale(-1 1) rotate(27 -55.358 -224.978)"/>
                        </g>
                        <g>
                            <path d="M48.184 80.598c.223-.02.28.289.061.342-1.816.44-3.744.713-5.616.656-.236-.007-.253-.404-.017-.417 1.874-.103 3.707-.409 5.572-.58zm2.667-5.25c.236-.159.525.157.293.343-4.849 3.89-11.964 3.8-17.785 2.763-.196-.034-.173-.337.03-.312 6.108.794 12.168.731 17.462-2.795zM12.13 16.714c9.108-9.948 24.237-13.55 36.959-9.343 13.49 4.46 22.846 17.422 23.612 31.514.769 14.14-7.794 26.867-19.942 33.542-14.16 7.782-32.767 4.059-42.324-9.083-.069-.095-.07-.198-.033-.282l.006-.014-.276-.365C-.08 48.96.267 30.049 11.774 17.109zm30.669-9.931C31.237 5.17 19.08 9.68 11.637 18.619c.034.266.011.537.1.796.152.44.478.64.877.832.016.007.03.016.045.025.734-.254 1.69-.053 2.286.366.607.428.94 1.074 1.03 1.773.118.003.24.116.222.24-.073.526-.305 1.107-.194 1.64.11.531.589.906 1.036 1.166.055.032.085.084.093.14.938.097 1.73 1.176 1.97 2.011.293 1.02.19 2.554-.647 3.312l.105-.106c.068.09.082.213-.01.33-2.21 2.782-8.914-.239-10.017 2.912-.02.056-.058.094-.103.115.068.02.128.068.166.146.259.546.48 1.084.793 1.604.187.313.395.623.472.986.174.816-.335 1.51-.875 2.082.022.044.028.1.01.163-.201.724-.053 1.494.118 2.256l.086.38c.245 1.093.425 2.15-.438 3.006.032.077.02.172-.059.24-.678.58-1.25 1.397-2.087 1.754l.219-.109.05.356c.073.606.122 1.215.206 1.819l.077.475c.538.685.536 1.519.32 2.337-.186.696-.545 1.772-1.09 2.379.48 1.245 1.023 2.481 1.625 3.706 1.497 1.092 2.845.99 4.663.734.111-.015.266.039.305.158.304.948.657 1.933 1.82 2.104.357.052.752-.065 1.117-.06.8.007 1.429.125 2.051.652.02.017.036.035.049.056 1.497.499 1.541 2.537 2.083 3.87l.059.138.086.032c.6.242 1.328.663 1.822 1.077l.174.154c.32.304.41.625.547 1.03.34 1.004.737 1.333 1.76 1.44.047-.136.229-.24.37-.14 1.102.784 2.045 1.837 2.889 2.886.724.901 1.805 1.886 2.374 2.927 9.76 2.008 20.288-.47 28.804-7.599 9.296-7.781 14.191-19.602 12.446-31.475-.802-.904-1.306-2.13-1.836-3.198-.403-.815-1.054-.857-1.897-1.19-.98-.39-1.95-.81-2.89-1.287-.044-.022-.077-.05-.102-.083-.707-.301-1.143-1.564-1.485-2.153-.176-.307-.477-.963-.847-1.093-.303-.106-.557.155-.746.445.014.031.019.067.01.107-.462 2.158 1.565 4.917-1.175 5.575l-.095.02.078.16c.417.9.66 1.801.722 2.788.048.041.085.102.099.184.204 1.203-.083 2.204-.866 3.047l-.049.049.064.083c.668.904.952 1.99.175 2.93l-.118.133c-.876.924-2.38 1.279-3.547.773-.167-.072-.195-.289-.11-.414-.64-.802-.766-.416-1.908-.453-.492-.016-.93-.106-1.326-.419-.874-.686-1.016-2.022-1.26-3.02-.192-.78-.426-2.217-1.222-2.634-.936-.49-.984.446-1.515 1.048-.926 1.049-2.374 1.271-3.72 1.263-.863.167-1.351.26-1.825 1.091-.425.746-.656 1.59-1.051 2.353-.709 1.367-1.832 2.228-3.331 2.223-.074.145-.266.233-.438.121-.866-.566-1.69-.237-2.545.145l-.369.164c-.927.406-1.901.733-3.013-.055-1.582-1.123-1.396-3.448-2.296-5.015-.858-1.489-1.979-1.23-2.93-2.387-.112-.135-.418-1.329-.361-1.28-1.251-1.095-2.821.785-3.68-.843-.068-.01-.128-.052-.157-.134-.607-1.678.304-2.683 1.641-3.64.625-.447 1.369-.683 1.56-1.355.02-.065-.014-.137-.062-.214l-.106-.158c-.07-.109-.123-.224-.073-.34.23-.53.087-.547.564-.868.602-.407 1.548-.202 2.166.073 1.23.544.936 1.06 2.583.4.815-.326.18-.57 1.516-.716 1.451-.161 2.643-.05 4.07-.468l-.314.082.037-.029c.227-.14.486-.176.72-.293l.17-.106c.209-.162.357-.381.51-.593.3-.415.587-.768 1.005-1.005.041-.093.128-.169.256-.169h.14c.04-.007.08-.004.117.005.083.006.165.023.254.06l-.083-.027c-.004-.135.098-.263.266-.257.58.024 1.268.434 1.832.148.386-.195.524-.669.654-1.048.294-.857.52-1.795 1.334-2.302.04-.024.08-.033.118-.029-.002-.058.019-.119.067-.166.718-.72 1.767-.934 2.682-.432.281.154.81.892.999.962.024.01.055.014.09.015l.078-.003-.034-.192c-.244-1.51.046-3.117 1.37-4.015l.181-.111c.778-1.309.5-2.696 1.74-3.796 1.175-1.04 3.104-1.132 2.935-3.088-.003-.039 0-.074.007-.107-3.635-2.141-7.709-3.605-12.071-4.213zM8.626 58.94l.065.123c.67 1.268 1.402 2.522 2.192 3.759.046.072.045.144.015.206l-.002.002.337.4c4.893 5.74 11.078 9.453 17.676 11.09-.522-.59-.963-1.304-1.396-1.87-.908-1.185-1.796-2.296-2.899-3.31l.32.304c-.027.017-.059.029-.096.034-1.212.175-2.087-.18-2.513-1.34-.225-.614-.267-.998-.807-1.392-.47-.342-1.18-.732-1.729-.924l.107.04-.036-.002c-.08-.01-.158-.051-.217-.128l-.041-.065c-.776-1.508-.487-3.169-2.136-4.126-.05-.03-.081-.072-.095-.119-.406-.137-.84-.188-1.277-.221l-.43-.03c-.93-.065-1.834-.155-2.475-.946-.66-.815-.469-1.127-1.595-1.118-.579.006-1.117.118-1.704.032-.463-.069-.88-.204-1.264-.4zM33.395 73.6c.46-.006.93-.038 1.388.028.21.03.238.35.015.382-.477.07-.964.036-1.446.03-.287-.002-.239-.438.043-.44zm7.603-.862c.174-.056.254.227.096.3-1.176.527-2.492.706-3.75.949-.214.041-.272-.29-.058-.334 1.259-.253 2.487-.527 3.712-.915zM2.289 58.302c-.097-.215.225-.366.33-.156 2.809 5.586 5.817 10.76 10.799 14.7.25.197-.034.603-.284.405-5.021-3.971-8.227-9.187-10.845-14.95zm35.423 13.293c.188-.074.31.183.135.281-1.951 1.098-4.367 1.468-6.582 1.242-.29-.029-.247-.471.042-.45 2.246.173 4.317-.26 6.405-1.073zM10.65 67c-.148-.208.149-.465.305-.258 1.704 2.256 3.815 3.692 6.14 5.223.18.12.024.41-.174.332-2.53-.976-4.722-3.129-6.271-5.297zm27.746 2.717c.218-.071.372.22.157.33-2.393 1.225-5.327 1.176-7.93 1.635-.198.036-.31-.28-.111-.344 2.57-.826 5.298-.773 7.884-1.62zm5.309-26.32c.94-.05 1.578.565 1.98 1.348.009.018.016.035.02.051.484.368.877.907 1.286 1.335.586.614 1.175 1.239 1.814 1.796l.03.03c-.095-.18-.176-.294-.239-.321-.278-.12-.12-.56.165-.444 1.962.8 1.574 2.642 2.113 4.528.435 1.52.211 1.417.227 2.912.02 1.71.672 3.936.48 5.676-.287 2.587-2.1 7.764-4.15 9.527-1.864 1.604-3.596.34-5.196-1.083-.101-.089-.18-.232-.116-.37.16-.279.27-.575.33-.89.005-.017.01-.032.018-.045-.766-.83-1.58-2.108-1.774-3.25-.138-.82.525-2.46-.847-2.438-.065.001-.115-.029-.147-.073l-.15.02c-.899.092-1.916-.157-2.55-.77-.699-.674-.438-.989-1.589-1.16-1.197-.18-2.351-.187-3.539-.482-.134-.034-.219-.202-.207-.328.233-2.33-1.962-1.294-2.694-3.092-.588-1.444.049-2.997-.474-4.455-1.847-.814-3.96-2-2.55-4.413 1.22-2.087 3.999.916 4.988-1.343.09-.206.37-.34.568-.177 1.494 1.22 2.782 1.861 4.486.728.274-.879 1.08-1.391 2.028-1.307 1.313.118 2.352 1 3.523-.025.082-.071.173-.083.253-.058.312-.77 1.06-1.382 1.913-1.427zm-13.518 26.05l.19.019c.2.032.226.332.013.366-.403.066-.716.06-1.1.24-.247.115-.427-.266-.182-.38.405-.189.822-.296 1.268-.226zm14.736-24.756c-.349-.365-.795-.642-1.319-.536-.631.128-1.056.704-1.492 1.13-.067.066-.145.077-.214.055-.541.75-1.411.853-2.28.669-.553-.118-1.1-.369-1.67-.396-.618-.03-.956.29-1.305.68-.005.056-.032.113-.084.164-1.678 1.66-3.332 1.23-4.99.025l-.16-.118-.018.032c-.497.793-1.188 1.029-2.192.894l-.18-.028c-1.205-.205-2.605-.831-2.714 1.112-.074 1.328 1.102 1.788 2.097 2.325.086-.043.197-.037.272.044.066.07.126.144.18.22.09.057.177.118.258.183.121.095.12.26.046.366.782 1.921-.53 4.654 2.392 5.065.108.016.232.08.27.19.09.25.373 1.33.536 1.532.894 1.11 3.024.83 4.295.83.15 0 .263.141.296.272.398 1.635 1.686 1.633 2.9 1.629h.278c.148 0 .224.087.241.192.764.025 1.05.92 1.064 1.77.005.302-.076.638-.043.936.037.342.255.721.386 1.054.306.78.743 1.505 1.067 2.261.033.078.02.15-.017.204.02.021.031.05.036.081.104.725-.032.686.598 1.418 2.451 2.85 4.536-1.32 5.318-3.138.357-.826.677-1.68 1.01-2.519.878-2.22.485-2.033.232-4.881-.168-1.897.696-3.785.396-5.714-.076-.49-.986-3.534-1.537-4.653.047.163-.078.36-.274.275-.728-.312-1.305-.774-1.88-1.31-.603-.563-1.467-1.251-1.827-1.995-.045-.095-.034-.205.013-.297zm25.364 12.227c.113-.238.44-.112.379.14-1.222 4.969-5.394 10.086-9.685 12.78-.205.129-.401-.201-.225-.347 4.3-3.552 7.141-7.577 9.531-12.573zm-35.62 11.857l.346.014c.186.013.202.312.013.33-1.026.103-2.009.238-3.013.472-.223.052-.278-.289-.062-.346.998-.265 2.02-.533 3.062-.456zM4.05 68.191c.69 0 .585 1.067-.102 1.067-.69 0-.583-1.067.102-1.067zm28.366-.788c.183-.04.27.241.1.312-1.43.595-3.144.799-4.676.966-.248.027-.302-.31-.067-.377 1.504-.416 3.115-.563 4.643-.9zm-12.17-1.843c-.161.137-.309.299-.458.462l.107.04.024.001c.222-.01.436-.228.326-.503zm-.657.28c.226-.076.441-.178.656-.28l-.07-.144-.006-.013-.133-.05c-.306-.106-.562.202-.447.487zm38.99-1.432c.16-.094.326.166.176.272-.65.453-1.37.715-2.117.962-.215.071-.37-.249-.153-.322.73-.244 1.428-.522 2.094-.912zm-52.893-4.56c-.108-.215.228-.373.337-.16.716 1.388 1.565 2.692 2.434 3.985.12.177-.118.393-.259.22-1.001-1.231-1.804-2.628-2.512-4.044zm50.74 3.157c.291-.229.715-.332 1.08-.25.195.043.223.308.015.356-.287.067-.576.018-.823.215-.213.17-.486-.155-.272-.32zm-45.998.01l-.021.034.04.053c.114.148.328.094.423-.03l.025-.042-.036-.044c-.138-.168-.338-.108-.431.029zm52.084-2.332c.18-.063.388.183.198.307-.928.61-2.05.947-3.052 1.42-.221.104-.378-.231-.163-.341.97-.499 1.987-1.03 3.017-1.386zm-40.408.21l.85.013c.23.006.188.344-.033.35-.85.023-1.702.005-2.551.002-.23-.001-.194-.353.033-.354.85-.004 1.702-.023 2.551.002zm41.801-3.216c.18-.102.345.172.193.296-1.544 1.265-3.531 2.012-5.415 2.603-.212.066-.311-.28-.117-.364 1.824-.802 3.608-1.539 5.34-2.535zM22.91 59.07c.207-.021.258.268.057.316-1.315.313-2.647.452-3.987.238-.208-.034-.18-.357.032-.33 1.33.174 2.581-.093 3.898-.224zm-6.445.179c.386-.001.772-.011 1.156.033.195.023.22.328.015.353-.403.046-.807.035-1.21.034-.273 0-.23-.419.039-.42zm37.66-7.532c.943-.332 1.93.599 2.402 1.301 1.463 2.185-.492 4.678-1.835 6.361-.055.067-.148.13-.24.11-1.935-.414-1.54-3.473-1.12-5.305l.004-.014c.043.23.421.231.426-.018.006-.267.045-.563.125-.831l.025-.082-.036-.022c-.125-.062-.285-.038-.333.133-.052.188-.113.417-.174.675l-.034.142-.021-.121c-.131-.798-.15-1.876.674-2.273zm1.32 1.065c-.824-.648-1.302-.211-1.526.44l-.007.017.014.01c.047.036.084.087.098.148l.007.064c-.026.941-.283 1.886-.371 2.825-.047.49-.086.995-.006 1.485.042.259.114.74.332.915.342.275.363.086.577-.081.805-.628 1.623-2.425 1.798-3.39.172-.954-.147-1.828-.916-2.433zm4.562 4.627c.194-.04.315.225.164.35-.476.39-1.165.58-1.776.548-.27-.014-.284-.437-.02-.472.565-.077 1.078-.311 1.632-.426zm-37.795-.44c.193-.046.29.263.106.332-2.27.867-5.198 1.041-7.562.482-.21-.05-.126-.397.084-.365 2.507.393 4.92.143 7.372-.449zm44.205-3.206c.194-.13.396.106.234.275-1.42 1.481-3.47 2.555-5.37 3.276-.225.085-.388-.251-.161-.341 1.981-.791 3.549-2.035 5.297-3.21zm-47.68 1.605c.202-.035.247.258.055.308-3.032.781-6.245.686-9.319.237-.204-.03-.175-.348.03-.32 3.123.43 6.131.3 9.234-.225zm49.538-5.77c.151-.14.369.073.258.234-2.077 3.024-6.318 4.924-9.85 5.41-.238.034-.303-.325-.066-.367 3.824-.693 6.859-2.692 9.658-5.278zm4.778-1.894c.029-.22.392-.256.41-.016.184 2.42-.819 4.946-1.568 7.206-.08.24-.423.102-.363-.134.602-2.37 1.207-4.623 1.521-7.056zm-53.389 5.813c.195-.014.254.27.054.304-2.009.332-4.032.673-6.072.48-.217-.022-.185-.356.033-.338 2.03.167 3.974-.298 5.985-.446zm-9.926.191c.31.001.618 0 .926.023.187.016.206.32.013.337-.325.025-.649.024-.975.025-.248 0-.21-.386.036-.385zm1.21-34.232l-.052.067c-.46.597-.9 1.212-1.317 1.845C2.82 31.626 2.274 42.718 6.076 53.19c.16-.326.355-.644.482-.956.37-.91.481-1.68.12-2.613-.023-.06-.025-.12-.013-.175-.232-.957-.248-1.955-.518-2.901-.04-.138.064-.3.185-.358.705-.33 1.1-1.114 1.79-1.423l.02-.03c.938-1.214.556-2.145.194-3.472-.197-.718-.29-1.394.065-2.011-.083-.078-.121-.208-.04-.315.568-.752 1.184-1.457.67-2.38-.377-.677-.844-1.283-.993-2.062-.032-.164.07-.282.198-.324-.08-.033-.14-.107-.124-.212.135-.864.025-.967.674-1.396.676-.444 1.738-.512 2.501-.574 2.385-.194 4.767.245 6.816-1.252l-.034.023c-.005-.034-.003-.07.007-.106.255-.89.55-1.682.336-2.629-.114-.504-.348-.972-.755-1.305-.364-.297-.82-.37-1.162-.692-.068-.063-.073-.18-.03-.268-.545-.182-.968-.537-1.152-1.15-.17-.56-.092-1.15.174-1.65-.114-.665-.358-1.355-.965-1.72-.744-.447-1.488-.105-2.274-.218-.153-.022-.24-.163-.215-.294-.48-.233-.915-.726-1.084-1.252zm7.558 31.96c.189-.048.234.243.052.295-3.078.897-6.157.573-9.32.5-.239-.006-.199-.366.036-.367 3.09-.013 6.202.36 9.232-.427zm43.359-.727c.205-.038.294.256.11.345-.75.359-1.564.519-2.358.755-.247.073-.377-.345-.138-.43.78-.278 1.572-.518 2.386-.67zM16.416 49.8c.212-.03.265.278.058.325-1.141.26-2.327.254-3.48.457-.201.035-.255-.273-.055-.312 1.148-.223 2.32-.305 3.477-.47zm-6.444.195c.232.004.46.014.692.032.184.015.202.317.013.332-.25.019-.494.03-.744.034-.254.004-.22-.402.039-.398zm59.468-4.563c.181-.126.366.1.219.26-1.663 1.804-3.857 3.366-6.058 4.441-.221.108-.374-.226-.162-.34 2.223-1.21 3.95-2.93 6-4.36zM9.969 47.934c1.546-.007 3.091-.03 4.635.022.203.007.164.3-.029.307-1.546.052-3.093.028-4.64.022-.227-.001-.191-.35.034-.35zm60.396-6.441c.173-.144.375.107.222.262-2.655 2.693-5.885 5.523-9.82 5.83-.22.018-.285-.316-.06-.341 4.098-.455 6.667-3.263 9.658-5.751zM11.591 46.09c.231.004.463.01.694.013.202.004.166.303-.029.307-.232.004-.464.01-.696.013-.213.004-.186-.337.031-.333zm20.047-.166l-.567.176c.11.09.221.177.332.26l.006.005.068-.114c.056-.101.11-.21.16-.327zM2.908 27.226c.12-.195.44-.022.352.184C.62 33.62.916 39.33.822 45.892c-.003.253-.416.265-.443.018-.69-6.103-.744-13.272 2.53-18.684zm61.278 16.318c.19-.034.268.232.101.316-.665.333-1.415.518-2.124.742-.217.069-.334-.307-.121-.38.7-.246 1.411-.546 2.144-.678zm-8.66-32.151l.005.152c.005 1.192-.77 1.786-1.884 2.391-1.296.705-1.898 1.442-2.21 2.881-.162.74-.404 1.218-1.04 1.615l.146-.097c-.013.037-.035.07-.067.1-1.206 1.107-1.348 2.613-.95 4.128.068.266-.19.454-.42.454-.253 0-.671.016-.881-.144-.115-.088-.139-.261-.222-.372-.246-.326-.602-.64-.995-.773-.696-.237-1.34.1-1.943.412-.036.019-.07.027-.102.028.004.045-.008.091-.038.131-.7.927-.728 2.077-1.33 3.028-.622.984-2.092.991-2.944.288l.111.085c-.012.055-.048.103-.11.13-.063.027-.122.044-.18.055-.578.445-.907 1.036-1.391 1.563-.32.347-.818.61-1.291.553-1.627 1.066-3.484.71-5.18 1.555-.765.38-.76.808-1.787.467-.28-.093-.547-.273-.807-.458l-.194-.139c-.643-.456-1.252-.815-1.932.198-.075.111.258.467.096.695-.332.469-.822.807-1.338 1.118l-.311.185c-1.07.625-2.135 1.222-2.04 2.689l.02.028c.57 1.012 2.78.552 3.808.8.11.025.164.155.16.254-.027 1.326 2.211 1.995 2.94 2.935.694.894.892 2.08 1.32 3.093 1.267 3.006 2.425 2.694 3.605 2.12l.221-.11c.933-.47 1.885-.986 2.92-.043 2.509-.037 2.98-1.84 3.896-3.812.461-.994 1.364-2.149 2.531-1.762 1.76-.492 3.318-.212 4.018-2.567.044-.147.22-.247.367-.23 4.058.464 1.65 7.836 6.302 6.043.188-.072.398-.014.49.174.264.453.459.934.583 1.444l-.027-.097c.664.057 1.366-.056 1.936-.394 1.28-.76 1.014-1.883.112-2.848-.153-.164-.11-.431.048-.573.936-.837.91-1.6 1.11-2.73l.005-.024c-.2-1.154-.612-2.228-1.192-3.26-.115-.207.042-.503.274-.53 1.983-.236 1.523-1.434 1.376-2.852-.06-.572-.069-1.114.01-1.665-.105-.045-.19-.163-.142-.288.199-.528.428-1.249 1.048-1.417.453-.122.853.161 1.148.478.456.49.77 1.12 1.097 1.698.269.475.74 1.057.849 1.597l-.052-.184c1.615.573 3.187 1.237 4.834 1.722.126.036.215.163.24.288.108.537.376 1.035.669 1.523l.203.335c-.09-.412-.188-.823-.295-1.234-2.276-8.762-7.783-16.227-15.204-20.83zm14.838 27.32c.152-.15.345.073.255.231-1.135 1.998-3.436 3.39-5.4 4.462-.203.112-.348-.208-.153-.321 1.052-.612 2.058-1.28 2.99-2.064.843-.708 1.524-1.547 2.308-2.309zm-1.391-1.159c.152-.11.38.068.255.232-1.231 1.604-3.5 2.868-5.446 3.316-.191.044-.294-.272-.106-.332 2.08-.666 3.57-1.967 5.297-3.216zm-1.313-.753c.196-.043.295.215.16.339-.452.406-1.096.74-1.648.992-.282.128-.463-.277-.204-.428.53-.307 1.089-.768 1.692-.903zm5.684-3.614c.004-.293.447-.243.45.042.016 1.234.003 2.47-.02 3.704-.004.27-.406.222-.411-.038-.021-1.235-.034-2.472-.02-3.708zm-13.196-.757l-.273.53c.147-.017.285-.037.413-.062l.091-.02-.07-.144c-.051-.1-.105-.202-.16-.304zm9.516-10.306c-.066-.213.298-.326.374-.119.782 2.143 1.7 4.302 2.205 6.532.056.245-.338.372-.424.134-.774-2.155-1.48-4.357-2.155-6.547zm-4.267-10.73c-.126-.182.123-.402.265-.225 3.832 4.811 7.424 10.356 8.73 16.443.05.228-.32.35-.394.127-1.987-6.081-4.963-11.105-8.601-16.346zM10.024 16.11c.131-.159.45-.03.343.18-1.359 2.7-4.028 4.422-4.925 7.42-.07.238-.479.145-.424-.097.663-2.896 3.164-5.277 5.006-7.503zm39.155 6.134c-.112 0-.31.046-.473.061l-.035.001c.026.135.055.264.088.392l.42-.454zm7.284-13.6c-.19-.127.008-.392.2-.285 4.719 2.643 9.776 6.821 12.133 11.795.092.194-.194.39-.322.209-3.399-4.804-7.095-8.446-12.01-11.72zm-31.06 3.175c.493-.436 1.397-1.258 2.13-.887.947.478.577 2.25.296 3.073.519 1.585.34 3.34-1.358 4.012-1.771.7-3.872.06-4.912 2.005-.05.092-.176.132-.272.126-2.013-.129-2.724-4.146-2.553-5.65.02-.17.162-.241.294-.226l.008-.051c.425-1.432 1.404-1.285 2.472-.917l.258.092.26.096c1.795.667 2.186-.623 3.376-1.673zm1.84-.126c-.38-.302-.767.09-1.141.37-.628.47-1.262.994-1.828 1.535-.4.386-.607.753-1.186.832-1.334.186-2.559-1.584-3.693-.02-.039.053-.089.08-.139.085l.002.053c-.075.751.796 5.354 1.834 4.936.136-.055.568-.9.78-1.062.288-.221.621-.36.965-.47 1.007-.32 2.033-.18 3.056-.326 1.68-.24 1.7-1.543 1.585-2.862l-.029-.304-.024-.258c-.04-.04-.066-.097-.068-.162-.01-.5.357-1.971-.113-2.347zm21.524 5.046c.12-.156.378-.03.309.162-.19.521-.741 1.092-1.34 1.01-.128-.018-.194-.226-.048-.276.506-.171.761-.486 1.079-.896zm3.474-6.024c.15-.174.417.004.296.206-1.585 2.627-3.978 5.447-6.797 6.775-.21.1-.348-.208-.153-.322 2.872-1.686 4.522-4.217 6.654-6.66zm-7.194 5.09c.129-.16.407-.033.328.173-.213.554-.733.813-1.238 1.064-.26.128-.45-.274-.193-.404.435-.22.795-.45 1.103-.832zm2.351-5.361c.161-.147.388.078.274.249-1.231 1.855-3.12 3.59-5.168 4.476-.24.104-.405-.247-.173-.364 2.099-1.066 3.372-2.822 5.067-4.361zm2.315.75c.112-.165.344.007.25.174-.776 1.368-1.901 2.44-3.012 3.538-.182.18-.433-.123-.255-.302 1.06-1.07 2.165-2.159 3.017-3.41zm-7.145 1.074c.19-.064.382.17.203.315-.384.31-.761.63-1.131.96-.194.173-.518-.114-.34-.311.362-.404.741-.788 1.268-.964zm.46-2.557c.212-.094.377.179.214.333-.635.605-1.429 1.028-2.068 1.643-.214.204-.502-.143-.296-.349.615-.611 1.346-1.274 2.15-1.627zm2.267-.379c.137-.17.376.005.273.192-.407.743-.927 1.423-1.628 1.911-.212.148-.475-.157-.262-.308.677-.48 1.106-1.159 1.617-1.795zm16.053-1.62c-.163-.175.103-.472.284-.312.847.747 2.05 1.503 2.52 2.565.09.204-.165.345-.311.2-.438-.426-.833-.893-1.284-1.31-.409-.378-.832-.732-1.21-1.142zm-14.979-3.41l.056.01c2.264.647 4.593 1.35 6.8 2.168.188.07.125.38-.08.348-2.35-.366-4.582-1.48-6.85-2.167-.232-.07-.1-.416.13-.35zM22.162 5.86c6.358-2.141 13.891-4.67 20.553-2.48.206.068.13.404-.084.37-7.14-1.124-13.536.48-20.356 2.467-.204.06-.314-.29-.113-.357zm25.446-2.817l.062.01c.81.25 1.688.295 2.466.639.184.08.136.41-.084.365-.844-.172-1.709-.339-2.529-.608-.258-.085-.111-.475.147-.396zM25.851 1.802c.96-.333 1.898-.378 2.902-.279.202.02.226.345.015.366-.927.092-1.87.113-2.774.36-.258.07-.393-.36-.143-.447zM30.859.86c3.294-.964 7.296-1.206 10.623-.267.227.064.127.398-.088.387-3.582-.203-6.914-.57-10.454.338-.294.076-.362-.375-.08-.458z" transform="translate(-154 -2691) translate(0 2397) translate(135 62) translate(19 232.39) translate(0 96.61)"/>
                        </g>
                        <text font-family="IndieFlower, Indie Flower" font-size="14" transform="translate(-154 -2691) translate(0 2397) translate(135 62) translate(19 232.39)">
                            <tspan x="95" y="119.611">Anywhere.</tspan> <tspan x="95" y="143.611">Anytime.</tspan> <tspan x="95" y="167.611">Automated.</tspan>
                        </text>
                    </g>
                </g>
            </g>
        </g>
    </g>
</svg>
