<svg xmlns="http://www.w3.org/2000/svg" width="220" height="187" viewBox="0 0 220 187">
    <g fill="none" fill-rule="evenodd">
        <g>
            <g>
                <g>
                    <g>
                        <g>
                            <path fill="#121217" d="M38.493 1.151c6.202-1.532 12.81-1.69 18.884.477C63.94 3.97 69.216 8.642 73.405 14.11c5.825 7.603 10.204 19.146 6.885 28.667 6.186-2.944 11.794-6.89 16.654-11.75l-.058.057c.054-1.001.363-2.018.99-3.008l-.047.077c.261-.766.741-1.78 1.374-2.753 0-.08.013-.165.036-.254 1.426-5.352 4.799-10.374 11.003-9.848 4.973.422 8.933 4.548 10.157 9.236.624 2.392.515 5.015-.819 7.155-1.405 2.254-3.603 3.774-4.883 6.14-.817 1.51-1.848 2.516-3.297 2.893-5.225 9.267-12.451 17.216-21.144 23.32 2.033 1.907 4.28 3.848 7.066 4.393 3.336.653 6.798-.937 9.948-1.82 2.855-.8 5.844-1.708 8.814-1.934.492-.038.994.002 1.494.056l.599.067c.894.1 1.768.163 2.553-.177 1.295-.562 2.269-1.26 3.707-1.54 2.504-.488 5.029-.18 7.552-.085 3.025.114 5.331-.537 8.023-1.834 4-1.929 8.236-1.501 9.554 3.287 1.323 4.807-.58 9.924-3.082 13.994-1.071 1.742-2.211 3.772-4.216 4.539-2.545.974-5.45.926-8.1 1.423-2.185.411-4.1 1.466-6.227 2.008-1.124.287-2.502.467-3.494-.278-.316-.237-.538-.526-.69-.853l-.004-.008-.032.033-.066.066c-2.815 2.766-6.614 2.996-10.26 3.856-4.5 1.06-9.378 2.777-12.214 6.652-.029.04-.06.077-.092.11-.725 1.625-1.933 3.124-3.083 4.506-.891 1.072-2.087 2.126-1.567 3.56.45 1.243 1.582 1.921 2.693 2.59 1.522.916 3.282 1.366 4.778 2.316.617.392 1.106.85 1.48 1.355 3.263.156 6.08 2.55 9.017 3.775 1.965.82 4.056 1.672 6.118.669 1.307-.635 2.415-1.613 3.771-2.159 4.992-2.008 8.738 2.293 9.033 6.97.355 5.615-2.651 10.835-6.58 14.621-1.792 1.726-3.875 3.564-6.26 4.385-2.65.913-5.515.085-8.1-.669-5.836-1.703-11.317-4.446-16.225-8.024l-.037-.028c-.436.059-.893.043-1.37-.065-1.48-.334-2.323-1.554-3.607-2.217-1.676-.865-3.93-.19-5.768-.554-3.74-.742-7.336-3.052-10.6-4.918-1.117-.639-2.226-1.294-3.33-1.957-4.086 9.56-14.803 15.21-24.976 11.673-5.376-1.869-9.706-5.893-13.68-9.821-3.4-3.36-8.669-7.878-7.485-13.163-1.16-1.61-1.98-3.632-2.701-5.33-.748-1.755-1.552-3.66-2.233-5.633-.146.042-.313.05-.494.011C12.44 96.31 6.829 90.546 4.276 83.528 1.4 75.622 2.25 66.758 5.539 59.132c.066-.155.154-.271.254-.355-5.3-9.47-8.003-20.784-3.557-31.13C5.03 21.14 10.174 15.995 15.91 11.99 22.707 7.243 30.403 3.15 38.493 1.15zm67.804 111.312l.016.092c.182 1.117.046 2.33-.316 3.544-1.046 3.5-2.88 6.899-4.979 9.869-.73 1.032-1.644 2.19-2.74 2.98 5.044 3.492 10.665 6.13 16.641 7.577 1.898.46 3.796.742 5.636-.113 1.325-.615 2.491-1.593 3.586-2.541 2.311-2.001 4.364-4.346 5.698-7.118 1.469-3.05 2.517-7.751.427-10.77-2.022-2.918-4.689-1.75-7.07-.421l-.331.186c-.274.155-.543.31-.807.458-2.588 1.459-4.951 1.107-7.636.049-1.423-.561-2.817-1.2-4.164-1.924-1.308-.702-2.543-1.535-3.96-1.868zm-62.561 10.495c-1.588.825-3.243 1.474-4.952 1.894 2.471 2.108 5.16 3.973 8.224 5.044 1.735.607 3.494.92 5.23.968-.66-.449-1.287-.962-1.904-1.486l-.506-.432c-2.173-1.86-4.145-3.938-6.112-6.01zm12.433-11.127l-.146.196c-2.771 3.683-6.366 7.353-10.496 9.911 1.345 1.417 2.697 2.828 4.123 4.163 1.628 1.525 3.798 3.913 6.106 4.195.206.025.378.1.517.205 5.923-1.233 11.1-5.482 13.461-11.39-1.771-1.081-3.535-2.174-5.31-3.25-1.082-.658-2.138-1.27-3.24-1.808-.247-.014-.468-.129-.636-.298-.536-.245-1.088-.472-1.66-.677-.959-.342-1.86-.75-2.719-1.247zm66.642-46.04l-.104.047c-.324.15-.646.321-.968.514-.936.562-1.365.82-2.496.68-1.53-.19-2.668-.466-4.254-.209-1.575.255-3.131.665-4.68 1.123.95 2.547 1.468 5.15 1.563 7.879.085 2.422.149 5.613-1.05 7.8-.193.354-.704.172-.722-.195-.124-2.512.641-5.05.573-7.605-.074-2.747-.533-5.486-1.212-8.145l.12.485c-3.242.986-6.467 2.109-9.79 2.376-.586.047-1.155.043-1.707-.008-.427 4.974-2.46 9.258-5.025 13.535-2.462 4.106-5.3 7.99-8.445 11.6-6.011 6.9-13.182 12.743-21.124 17.278 1.1.625 2.165 1.32 3.236 1.974 3.01 1.84 6.003 3.71 9.066 5.462 3.164 1.81 6.699 4.145 10.342 4.743 1.672.275 3.434-.253 5.07.281 1.164.38 1.9 1.264 2.904 1.896 3.432 2.159 6.285-3.815 7.589-6.245.285-.531.64-1.173.997-1.878l.195-.39c1.364-2.776 2.6-6.353.011-8.094-2.317-1.559-5.01-2.138-7.174-4.047-2.072-1.828-1.906-3.948-.324-6.08 1.245-1.68 3.057-3.397 3.89-5.355.016-.071.045-.144.086-.217.436-1.133.531-2.348-.006-3.682-.482-1.195 1.453-1.71 1.928-.531.225.557.36 1.103.421 1.636 2.458-2.148 5.526-3.51 8.69-4.46 3.87-1.163 8.785-1.015 11.83-3.996.174-.17.41-.471.676-.79-.023-.1-.027-.213-.011-.339.382-2.927.586-5.867.558-8.819-.014-1.41-.074-2.82-.186-4.225-.06-.767-.135-1.533-.225-2.296-.062-.549-.136-1.095-.22-1.64l-.022-.064zM45.28 102.4l-.036.06c-.054.08-.125.159-.217.231-1.465 1.167-3.38 2.87-5.348 3.504v-.001l.263.436c.5.845.947 1.723 1.002 2.718.065 1.167-.385 2.422-1.432 3.036-2.28 1.334-4.67-.897-5.88-2.95-.539.243-1.113.428-1.573.633l-.37.166c-1.524.687-3.024 1.353-4.494.496.288 4.271 5.256 8.176 8.037 10.858.557.537 1.122 1.076 1.697 1.61 7.148-1.24 13.45-6.875 17.623-12.525l-.039.05c-2.835-2.157-5.32-4.848-7.713-7.47-.204-.225-.282-.475-.27-.714-.416-.037-.833-.083-1.25-.138zm43.9-.196h.39c.522.012.62.756.123.902-3.176.932-6.153 1.525-9.05 3.246-2.782 1.653-5.126 3.909-7.28 6.302-.175.195-.472-.056-.351-.27 1.657-2.972 4.143-5.276 7.042-7.038 2.729-1.66 6.27-3.212 9.517-3.142zm4.45-33.11l-.074.323c-2.156 9.096-8.287 16.522-14.624 23.159-6.498 6.805-13.643 13.182-22.164 17.296 1.5.95 3.177 1.368 4.785 2.082l-.22-.093c7.885-4.339 14.994-9.952 21.015-16.648 3.162-3.515 6.002-7.31 8.484-11.333 2.724-4.416 5.052-8.908 5.31-14.19l-.03.462c-.864-.256-1.69-.619-2.483-1.057zM37.452 106.36c-.801-.17-1.3-.423-2.019.869-.144.259-.15.604-.254.906.613 1.119 2.567 3.592 3.55 2.292.902-1.195-.7-3.04-1.264-4.04zm-7.704-22.71l-.177.09c-1.522.72-3.26 1.139-4.686 2.044-1.862 1.184-3.416 2.934-4.102 5.02.294 3.723 1.919 7.607 3.21 10.856.496 1.245 1.041 2.471 1.663 3.66.252.48.553 1.156.91 1.794.638-.033 1.283.451.994 1.202l-.046.123c.137.135.279.246.426.331 1.261.727 2.861-.318 4.1-.869 1.329-.591 1.138-.647 1.691-1.809.626-1.316 2.083-2.076 3.515-1.897 1.268.158 2.004.008 3.122-.658.823-.49 1.613-1.023 2.38-1.592-3.782-.88-7.272-2.634-9.572-5.679-2.825-3.739-3.612-8.146-3.428-12.616zm37.315 17.255l-.246.055c-.344.072-.694.13-1.05.172-2.338.28-4.706.027-7.039.384-1.773.27-3.506.73-5.292.931-1.42.16-2.928.243-4.467.22 1.845 2.034 3.784 4.155 5.946 5.878 4.392-2.023 8.405-4.65 12.148-7.64zM51.555 2.251c-6.442-.91-12.974.546-18.958 2.903-7.262 2.86-14.594 7.036-20.384 12.297-4.548 4.132-8.157 9.285-9.582 15.326C.048 43.731 5.01 56.575 12.351 64.73c4.645 5.16 12.09 9.396 19.305 8.53.44-.052.727.151.862.447l.011.028c.419.173.738.592.602 1.157-1.704 7.101-2.973 16.107 2.995 21.68 5.05 4.717 13.97 4.648 20.285 3.363.334-.068.67-.125 1.006-.173-.65-.664-.948-1.775-1.253-2.662-.714-2.078-1.077-4.287-1.095-6.483-.02-2.402.301-5.463 1.466-7.884-2.32.262-4.6.091-6.85-.547-1.898 2.095-3.448 4.333-4.216 7.135-1 3.645-.243 6.891.695 10.431.119.45-.5.698-.739.311-3.424-5.544-1.558-13.89 3.174-18.254-.893-.567-.36-2.196.772-1.814 3.151 1.062 6.016.834 8.93.286.175-.161.36-.311.552-.45l-.184.14c.108-.135.257-.247.451-.319 2.078-.775 2.646-3.306 4.17-4.727 1.09-1.016 2.539-1.57 4.032-1.487 3.334.184 3.044 3.107 2.7 5.612 1.328.276 2.594.787 3.712 1.62 3.75 2.794 3.735 8.035 2.07 12.262.418-.425.834-.852 1.247-1.282C83.6 84.84 90 77.266 91.877 67.74l-.043.206c-1.158-.837-2.249-1.802-3.298-2.783-.65.203-1.206-.423-1.195-1.05-.793-.755-1.538-1.571-2.242-2.317-1.51-1.599-2.835-3.328-3.996-5.193-.259-.416.375-.92.687-.53 1.333 1.67 2.853 3.163 4.401 4.631.75.71 1.583 1.38 2.394 2.068 5.72-3.927 10.79-8.678 15.065-14.086-3.254.035-6.175-1.994-8.642-3.957-1.917-1.527-3.243-4.087-3.213-6.586-2.47 1.86-5.08 3.532-7.809 5-.046 3.268.11 6.18 1.64 9.25.66 1.322 1.434 2.609 2.24 3.845.891 1.369 1.79 1.731 3.028 2.617.276.196.213.552-.089.678-2.631 1.103-5.052-4.276-5.91-5.907-1.714-3.257-2.254-6.456-1.91-9.956-1.196.615-2.414 1.192-3.653 1.73-.075.032-.15.055-.224.07-.434.813-.937 1.606-1.51 2.373-.763 1.02-2.498.023-1.727-1.009 8.566-11.46.462-27.818-8.339-36.393-4.395-4.284-9.856-7.326-15.977-8.19zm15.672 78.516c-2.983-.01-5.845 1.049-8.747 1.65-1.143 2.175-1.602 4.876-1.701 7.193-.069 1.601.061 3.21.398 4.776.286 1.329.736 3.768 1.865 4.602.188.138.296.359.321.582 2.42-.158 4.855-.08 7.217-.59 2.908-.626 5.213-2.64 6.64-5.201 1.372-2.464 2.079-5.682 1.338-8.457-.884-3.317-4.183-4.546-7.331-4.555zM15.624 88.76l-.01.03c-.596 1.645-1.848 2.924-3.519 3.097 2.067 1.799 4.597 3.162 7.626 3.914-.45-1.586-.784-3.195-.912-4.787-1.174-.562-2.235-1.337-3.185-2.254zm-3.496-4.757l-.092.079c-1.194 1-2.933 1.935-4.491 1.885.97 1.903 2.197 3.64 3.698 5.127 1.848-.18 3.047-1.647 3.465-3.418l-.023.094c-.99-1.138-1.841-2.426-2.557-3.767zm-.369-17.095l-.04.173c-.897 3.872-.773 7.886.399 11.717 1.12 3.664 3.313 7.766 6.663 9.91.04-.685.13-1.362.274-2.028 1.015-4.703 4.325-8.506 8.007-11.45-5.78-.745-11.147-4.073-15.303-8.322zm19.217 8.42l-.119.01c-.468.036-.934.052-1.399.052-.003.298-.129.6-.424.822-3.646 2.731-7.065 6.416-8.05 11-.029.129-.054.259-.077.39.412-.636.917-1.235 1.503-1.795 1.76-1.682 4.85-3.623 7.466-3.98.21-2.194.618-4.385 1.1-6.499zm82.796.504c-.008-.316.472-.378.547-.074.867 3.519.752 7.468-.246 10.953-.174.61-1.019.341-.927-.256.559-3.605.723-6.983.626-10.623zm10.72 7.72c-.306.228-.721.288-1.051.18-.002.233.04.533.06.664.039.256.098.498.185.725l.067.158.05-.049c.41-.415 1.225-1.28 1.208-1.5zM9.921 78.389l-.095.098c-.728.707-1.786 1.07-2.779 1.22-.538.08-1.137.164-1.67.073.394 1.817.958 3.574 1.704 5.223 1.586.133 3.41-1.047 4.477-2.137-.464-.983-.857-1.978-1.181-2.948-.17-.506-.322-1.016-.456-1.53zm138.054-10.464c.03-2.756-.855-6.432-4.364-5.925-2.571.372-4.66 2.252-7.227 2.757-2.378.469-4.784.194-7.18.086-1.547-.07-3.001-.028-4.404.287.59 1.74.476 4.564.533 5.427.272 4.1.104 8.204-.428 12.277l.089-.718c.146.13.281.336.402.64.119.3.014.654.07.96.194 1.048.633 1.033 1.551.866 1.807-.328 3.44-1.352 5.222-1.802 2.58-.65 5.26-.707 7.854-1.275 1.695-.37 2.559-.975 3.548-2.37.653-.919 1.256-1.884 1.803-2.87 1.414-2.545 2.498-5.393 2.53-8.34zm-48.58 9.532c-.203-.379.348-.701.574-.336 1.132 1.822 1.633 4.402 1.294 6.526-.057.354-.64.343-.706 0-.41-2.147-.08-4.16-1.163-6.19zM68.313 76.31c-.614-2.285-3.722.005-4.414.972-.53.739-.983 1.47-1.489 2.131.492-.104.988-.203 1.491-.295 1.362-.249 2.797-.384 4.21-.31.18-.855.38-1.84.202-2.498zM4.686 73.632l.002.12c.033 1.698.196 3.389.494 5.038.605.103 1.393-.181 1.904-.33.968-.282 1.668-.686 2.272-1.514.06-.08.126-.144.197-.19-.185-.97-.309-1.947-.374-2.928-1.144.346-3.209.453-4.495-.196zm.54-6.624l-.023.123c-.299 1.696-.472 3.434-.512 5.175 1.086.902 3.289.51 4.414.222l.027-.006c-.018-1.27.065-2.543.245-3.804-1.383-.107-3.15-.653-4.151-1.71zm64.407-13.056c.863-.959 2.273.46 1.414 1.414-.328.365-.66.725-.997 1.082v.036c-.125 4.935-3.313 10.05-7.5 12.649-2.561 1.59-6.027 1.956-8.957 2.346-2.578.344-5.138.454-7.633-.226-2.904.737-5.9 1.161-8.966 1.22-1.29.024-1.285-1.976 0-2 12.79-.244 24.262-7.21 32.639-16.52zm-1.577 4.51l-.175.17c-5.323 5.09-11.612 9.214-18.512 11.6 1.507-.048 3.01-.209 4.524-.48 2.409-.43 5.37-.727 7.51-1.97 2.092-1.216 3.852-3.352 5.078-5.401.673-1.124 1.221-2.33 1.518-3.611.023-.1.042-.203.057-.307zM40.622 8.734c5.467-2.03 11.632-2.339 17 .152 6.821 3.164 11.301 9.991 14.56 16.486 2.987 5.958 4.9 13.991.994 19.999-1.75 2.69-4.504 5.149-6.856 7.32-10.096 9.324-23.33 14.256-36.615 16.953-.04.008-.08.014-.12.018l-.05.001-.096.016c-4.856.51-8.812-2.552-11.537-6.275l-.184-.254c-1.56-2.192-2.82-4.596-4.15-6.929l-1.08-1.887c-1.078-1.89-2.135-3.793-3.042-5.77-2.859-6.229-4.67-15.932 1.542-20.93 3.862-3.108 7.844-6.08 11.923-8.898 5.54-3.83 11.364-7.646 17.71-10.002zM29.439 67.678l-.157.014-.109.022c-1.179.24-.788 1.942.298 1.952l.063-.004.032-.004c1.14-.248 1.11-2.11-.127-1.98zM54.483 9.814c-5.476-1.641-11.219-.277-16.258 2.09-5.604 2.634-10.83 6.09-15.877 9.656-3.448 2.437-6.972 4.907-10.173 7.67-5.661 4.888-3.178 13.99-.373 19.635 1.968 3.96 4.212 7.885 6.558 11.634 2.46 3.93 6.038 7.708 11.08 7.18l-.158.013.584-.12c12.93-2.702 25.745-7.552 35.487-16.714l.519-.495c2.04-1.973 4.545-4.15 5.953-6.62 3.757-6.585.165-14.975-3.258-20.865-3.23-5.557-7.68-11.145-14.084-13.064zM6.987 60.811l-.041.103c-.601 1.515-1.089 3.119-1.456 4.774.703 1.31 2.693 1.87 4.072 1.921.16-.843.364-1.679.612-2.504l-.015.053c-1.188-1.39-2.249-2.848-3.158-4.324l-.014-.023zm90.256-27.284l-.032.033c-1.497 1.421-3.06 2.764-4.683 4.024.288 5.398 6.79 9.962 11.853 9.826.086-.003.163.008.23.03 1.593-2.11 3.068-4.316 4.417-6.608-2.214-.204-4.517-.902-6.503-1.797-2.361-1.063-4.462-3.123-5.282-5.508zm14.252-15.988c-4.45-1.174-7.378 1.35-9.091 4.803l-.039.08c.714-.276 1.468-.297 2.23.072 2.973 1.441 3.455 6.095 2.46 8.815-.307.841-1.723 1.052-1.928 0l-.03-.158c-.056-.284 0-.531.121-.73l.047-.069.057-.202c.43-1.663.323-3.742-.829-5.068l-.156-.169c-1.806-1.83-4.045 2.24-4.587 3.794-.02.122-.067.25-.148.378-1.57 2.484-.261 5.515 1.957 7.12 1.997 1.445 4.602 2.112 7 2.535 1.404.248 2.887.313 3.85-.933.647-.838.983-1.894 1.618-2.752.42-.568.913-1.088 1.42-1.601l.61-.615c.81-.82 1.593-1.663 2.1-2.69 2.374-4.814-1.86-11.343-6.662-12.61zm-6.22 12.8l-.01.013-.002.013c-.042.141-.087.279-.136.412h1.929l-.03-.157c-.183-.936-1.292-.884-1.751-.28z" transform="translate(-335 -4640) translate(0 4003) translate(335 70) translate(0 567) translate(0 5)"/>
                            <path fill="#121217" d="M15.163 28.875c3.119-2.64 6.554-5.002 9.914-7.33 4.918-3.41 10.012-6.713 15.472-9.23 4.91-2.265 10.508-3.568 15.844-2 6.24 1.835 10.578 7.177 13.725 12.488 3.336 5.63 6.836 13.651 3.175 19.947-1.372 2.36-3.814 4.441-5.802 6.327-9.693 9.198-22.636 13.96-35.652 16.564-4.835.418-8.276-3.156-10.649-6.875-2.285-3.583-4.473-7.336-6.39-11.121-2.734-5.396-5.154-14.097.363-18.77" transform="translate(-335 -4640) translate(0 4003) translate(335 70) translate(0 567) translate(0 5)"/>
                            <path fill="#FFF" d="M21.826 38.426c0 4.154-1.466 7.521-3.275 7.521-1.808 0-3.275-3.367-3.275-7.521 0-4.155 1.467-7.522 3.275-7.522 1.809 0 3.275 3.367 3.275 7.522M44.431 18.233c-.22.133-.34.355-.322.613.007.093.082.149.173.131.486-.093.878-.487.963-.976.016-.09-.04-.197-.145-.19-.617.038-1.121.581-1.085 1.206.005.091.07.153.16.16.613.05 1.119-.61.924-1.19-.037-.11-.147-.151-.25-.102-.224.109-.498.273-.593.515-.049.123.106.2.202.155.104-.049.175-.137.268-.204.093-.067.193-.123.295-.174l-.249-.101c.135.386-.19.809-.597.78l.16.16c-.032-.448.308-.87.765-.904l-.145-.19c-.065.4-.346.706-.746.793l.173.131c-.015-.162.037-.302.175-.397.131-.09.013-.301-.126-.216M60.756 25.414c-.497.412-.755 1.04-.697 1.683.01.115.118.236.247.188.533-.197.943-.696.936-1.283-.005-.508-.5-.932-.942-.528-.312.286-.626 1.098-.115 1.342.21.101.484.044.654-.111.233-.215.253-.553.254-.848 0-.124-.102-.214-.22-.22-.198-.011-.34.068-.43.243-.058.11.036.249.163.214.095-.026.17-.024.267-.016l-.221-.221c-.001.141.012.318-.061.445-.055.095-.193.19-.234.032-.03-.11.156-.565.288-.584.306-.044.136.558.085.665-.108.224-.298.4-.528.493l.247.189c-.067-.557.13-1.069.554-1.435.172-.15-.076-.39-.247-.248M34.872 42.714c.798 1.664 1.59 3.33 2.394 4.99.088.182.406.052.33-.139-.664-1.658-1.464-3.227-2.4-4.749l-.26.2c.642.679 1.122 1.424 1.485 2.281l.097-.24c-.75.128-1.391.393-2.009.836-.185.133-.025.423.181.31.963-.522 1.926-1.044 2.886-1.572l-.19-.324c-.649.496-1.408 1.032-2.224.51l-.083.306c.832.1 1.585.326 2.364.623.166.063.286-.216.122-.288-.785-.343-1.594-.54-2.442-.657-.184-.025-.283.186-.127.3.895.654 1.81.114 2.58-.47.187-.142.029-.443-.19-.324-.96.525-1.918 1.056-2.877 1.586l.181.31c.582-.439 1.193-.707 1.915-.83.115-.02.134-.154.097-.24-.374-.882-.88-1.65-1.531-2.35-.129-.138-.357.04-.26.2.9 1.494 1.678 3.064 2.337 4.678l.33-.139c-.822-1.65-1.655-3.292-2.482-4.938-.076-.15-.296-.019-.224.13" transform="translate(-335 -4640) translate(0 4003) translate(335 70) translate(0 567) translate(0 5)"/>
                            <path fill="#FFF" d="M36.624 43.856c-.212.583-.41 1.17-.585 1.765-.15.513-.37 1.076-.308 1.614.01.096.132.144.189.051.281-.46.339-1.048.475-1.567.157-.6.336-1.192.53-1.78.064-.193-.233-.27-.3-.083M59.414 40.408c.888 1.672 1.737 3.36 2.525 5.082l.324-.19c-.601-1.1-1.129-2.244-1.523-3.434-.03-.093-.148-.16-.24-.098-.603.415-1.156.866-1.68 1.38-.152.147.04.384.221.287l2.647-1.421c.088-.047.12-.174.068-.258-.282-.448-.398-.84-.294-1.395.037-.198-.226-.268-.299-.082-.329.839-.56 1.688-.7 2.58l.238-.098c-.605-.298-1.055-.692-1.421-1.26l-.23.23c1.02.567 2.028 1.217 3.1 1.678.162.07.29-.137.14-.24-.96-.661-2.048-1.168-3.07-1.728-.14-.076-.326.084-.23.23.4.612.89 1.05 1.547 1.37.084.041.221.015.239-.096.136-.892.362-1.743.686-2.584l-.299-.082c-.063.285-.104.543-.062.838.013.092.205.543.185.602-.1.303-.848.544-1.109.684l-1.32.716.221.287c.495-.498 1.016-.947 1.587-1.357l-.239-.097c.405 1.235.883 2.4 1.513 3.538.119.214.426.026.324-.19-.809-1.708-1.672-3.39-2.611-5.03-.089-.154-.32-.018-.238.138" transform="translate(-335 -4640) translate(0 4003) translate(335 70) translate(0 567) translate(0 5)"/>
                            <path fill="#FFF" d="M60.53 42.042c-.191.323-.357.657-.492 1.007-.12.311-.271.654-.218.99.02.125.194.124.251.034.161-.255.184-.584.275-.87.114-.352.262-.687.434-1.014.088-.165-.155-.308-.25-.147M41.175 55.86c-.308.204-.501.473-.638.813-.047.118.074.266.196.257.761-.054 1.372-.687 1.384-1.453.001-.084-.067-.19-.156-.205-.787-.125-1.686.672-1.395 1.504.091.261.447.153.407-.112-.075-.496.326-1.063.875-.982l-.156-.205c-.003.53-.425 1.004-.959 1.047l.196.257c.062-.255.208-.47.418-.627.17-.128.014-.418-.172-.294M28.138 55.662c-.295.192-.541.485-.64.827-.042.147.098.273.24.24.356-.086 1.334-.494 1.033-1.01-.114-.194-.381-.268-.585-.19-.246.094-.357.348-.443.576-.063.165.166.349.31.239.157-.12.253-.251.247-.455-.007-.224-.295-.242-.371-.05-.028.07-.073.127-.132.173l.353.206c.03-.084.07-.23.152-.281.032-.02.058-.038.096-.02.048.022-.048.06-.08.085-.215.163-.42.284-.684.351l.24.24c.073-.273.188-.49.423-.658.161-.117.014-.385-.16-.273M35.41 27.928c-.539.54-.843 1.259-.813 2.025.005.13.122.222.25.19.555-.135 1.024-.508 1.264-1.03.176-.38.3-1.102-.298-1.15-.386-.03-1.08.26-1.012.742.053.382.594.573.8.21l-.414-.175-.155.546c-.08.283.354.4.438.121l.176-.164-.28-.16c.04.152.044.26.029.41-.025.244.385.301.43.06.037-.208.034-.386-.02-.59-.031-.12-.162-.192-.28-.16-.258.069-.417.23-.493.483l.438.121.155-.546c.069-.246-.287-.4-.415-.175.082-.144.402-.347.559-.239.154.107-.022.465-.096.6-.2.364-.533.61-.931.715l.25.191c-.04-.684.157-1.312.624-1.82.126-.137-.073-.338-.206-.205M49.187 36.321c-.297.015-.548.187-.677.456-.125.26-.122.61.216.673.294.055.599-.09.788-.313.239-.278.292-.651.322-1.004.016-.197-.214-.282-.365-.209-.423.206-.725.562-.891.999-.104.27.314.426.455.191.027-.043.051-.072.09-.104.021-.018.09-.03.053-.035.21.032.424-.22.23-.395-.278-.253-.65.022-.803.283l.455.192c.119-.32.354-.56.656-.712l-.365-.21c-.02.326-.133 1.008-.619.856l.156.156c-.044-.199.088-.425.3-.452.23-.03.244-.384 0-.372M69.649 34.34c-.197.147-.351.335-.423.573-.045.15.114.339.274.275.232-.093.51-.261.45-.557-.048-.234-.322-.36-.529-.243-.071.04-.126.15-.094.23.033.083.077.137.17.147.119.014.064-.03-.004-.04-.011-.035-.031-.033-.061.007-.034.017-.068.033-.104.048l.328.252c.044-.164.098-.275.226-.39.158-.145-.056-.435-.233-.303" transform="translate(-335 -4640) translate(0 4003) translate(335 70) translate(0 567) translate(0 5)"/>
                        </g>
                        <g fill="#121217">
                            <path d="M50.39 40.631c.677.01.866.969.2 1.18-3.786 1.202-8.392 1.145-12.34 1.259-4.151.12-8.286-.005-12.408-.514-.71-.088-.584-1.288.12-1.25 4.073.224 8.153.398 12.23.28 2.103-.06 4.204-.18 6.299-.368 1.949-.173 3.947-.614 5.9-.587zM.138 37.026c-.38-.326.101-.994.52-.713 2.516 1.686 5.425 2.447 8.385 2.91 2.68.418 5.936.324 8.381 1.586.46.237.306 1.043-.24 1.02-1.503-.06-2.98-.494-4.472-.712-1.669-.244-3.35-.416-5.009-.733-2.814-.536-5.374-1.476-7.565-3.358zm57.508 2.612c1.072-.277 2.84-.886 3.734.047.208.217.233.559.02.783-.426.45-1.03.552-1.621.568-.626.016-1.248.077-1.867.169-.91.135-1.127-1.344-.266-1.567zm8.57-.917c.734-.2 1.793-.702 2.486-.216.458.321.532.809.197 1.256-.501.667-1.662.527-2.41.565-.93.048-1.172-1.361-.274-1.605zM125.872 4.89l.1.01c5.938.972 5.392 8.453 2.612 12.18-3.568 4.787-10.013 7.64-15.231 10.201-10.97 5.385-22.65 8.34-34.446 11.253l-2.285.564c-.74.183-1.09-.95-.348-1.135 10.648-2.656 21.012-5.787 31.282-9.675 5.3-2.007 10.163-4.882 14.794-8.11 2.452-1.708 5.016-3.733 6.009-6.674.977-2.897-.237-5.753-2.975-7.065-.894-.429-.286-1.682.588-1.539zM5.49 21.585c.227-.233.55.092.359.34-1.642 2.127-3.688 5.136-1.987 7.823 1.319 2.083 3.967 2.756 6.209 3.287 4.062.96 8.19 1.683 12.332 2.204 8.709 1.093 17.686 1.131 26.282-.801 1.336-.3 1.97 1.735.628 2.042-10.254 2.352-21.056 1.95-31.372.183-2.684-.46-5.353-1.044-7.992-1.72-2.216-.566-4.522-1.21-6.217-2.838-3.682-3.54-1.148-7.543 1.758-10.52zm48.765 13.314c.546-.093 1.083.211 1.27.735.2.565-.26 1.162-.779 1.331-.218.072-.472.093-.698.138-.296.058-.553.05-.826-.084-.25-.123-.418-.368-.51-.624-.09-.254-.042-.593.084-.826.116-.21.377-.46.624-.509.278-.054.556-.113.835-.16zm42.32-33.587c7.234-.23 15.492 1.903 21.506 6.048 9.769 6.734-17.986 17.224-22.117 18.672-5.946 2.085-12 3.742-18.097 5.322-3.182.824-6.366 1.643-9.56 2.424-2.662.65-5.368 1.489-8.124 1.565-.58.015-.62-.721-.158-.929 3.051-1.368 6.516-1.882 9.745-2.702 3.305-.838 6.594-1.726 9.866-2.686 6.616-1.942 13.163-4.307 19.617-6.73 3.432-1.288 6.856-2.623 10.114-4.31 2.12-1.098 10.105-4.766 8.754-8.114-.526-1.3-2.961-2.235-4.115-2.845-1.911-1.01-3.867-1.926-5.92-2.61-3.735-1.243-7.675-1.933-11.582-2.363-.432-.048-.337-.728.072-.742zM71.384 8.51c5.398-.774 11.136-1.708 16.605-1.44 3.529.174 8.382 1.366 9.739 5.135 1.261 3.505-2.403 5.642-4.906 7.172-3.446 2.107-7.144 3.807-10.984 5.06-7.75 2.53-15.825 3.57-23.88 4.599-9.326 1.19-18.353 1.945-27.719.747-2.722-.348-6.858-1.6-6.315-5.202.484-3.206 5.18-5.438 7.913-6.175.72-.195.98.791.332 1.077-1.912.843-3.979 1.905-5.448 3.426-1.178 1.217-1.85 2.882-.41 4.246.845.8 2.074 1.116 3.177 1.35 4.087.869 8.488.685 12.633.415 7.007-.457 13.994-1.386 20.936-2.425 6.347-.949 12.722-2.08 18.822-4.117 3.181-1.063 6.295-2.3 9.239-3.917 1.441-.792 3.148-1.679 4.252-2.92 1.873-2.108.291-4.126-1.678-5.32-3.074-1.864-7.04-1.597-10.478-1.32-3.93.319-7.843.675-11.784.816-.795.028-.797-1.099-.046-1.207zm3.93 3.618c1.332-.696 2.78-.27 3.524 1.092.817 1.494.055 3.02-1.248 3.912-1.907 1.305-4.374 2.17-6.526 2.975-2.448.916-4.963 1.655-7.518 2.205-4.897 1.055-10.576 1.98-15.404.198-1.561-.576-3.652-1.53-4.141-3.31-.381-1.388.306-2.677 1.625-3.134.793-.275 1.132.924.377 1.23-2.178.881.446 2.689 1.281 3.127l.107.053c.69.32 1.415.546 2.155.714 1.553.352 3.184.408 4.771.365 2.785-.077 5.6-.47 8.325-1.028 2.561-.524 5.084-1.233 7.542-2.123 1.42-.514 2.82-1.084 4.19-1.722.576-.268 1.185-.532 1.728-.863 1.063-.649 1.148-2.369-.402-2.429-.622-.024-1.04-.92-.386-1.262zm-64.998 3.857c.323.02.58.109.79.365.2.246.255.526.2.836-.044.241-.182.435-.34.615-.032.037-.063.079-.098.112l.044-.049.005.012c-.018.086-.38.39-.52.492l-.037.026-.253.158c-.472.295-1.093.175-1.436-.248-.333-.41-.35-1.072.049-1.456.239-.23.515-.575.854-.628l.013-.001.099-.05c.158-.08.32-.159.496-.18zm47.017-3.655c3.121-.863 6.55-1.375 9.772-.885.455.069.334.72-.073.76-2.71.27-5.357.423-8.013 1.11-1.174.302-2.333.672-3.46 1.118-.696.274-1.636.547-2.242.994-.577.425-.697.225.06.402 2.309.542 5.395.074 7.711-.27 2.594-.387 5.11-1.123 7.542-2.096 1.02-.409 1.508 1.221.5 1.626-3.403 1.369-6.986 2.224-10.65 2.472-1.756.118-3.509.072-5.26-.108-.876-.089-2.106-.128-2.4-1.16-.664-2.335 5.184-3.595 6.513-3.963zm2.76-9.81l.65.015c.857.035 1.173 1.302.263 1.547-3.854 1.036-8.107 1.14-12.046 1.853-3.769.682-7.515 1.488-11.23 2.418-7.628 1.907-15.32 3.998-22.738 6.604-.223.078-.308-.25-.105-.34 7.375-3.302 14.796-6.122 22.662-8.072 3.95-.98 7.933-1.82 11.942-2.519 3.613-.63 7.583-1.642 11.252-1.491zm17.813-1.483c2.908-.41 6.157-1.032 9.063-.29.62.157.51 1.04-.106 1.092-2.937.249-5.976-.353-8.935-.229-.377.016-.38-.523-.022-.573z" transform="translate(-335 -4640) translate(0 4003) translate(335 70) translate(0 567) translate(89 143)"/>
                        </g>
                        <g fill="#121217">
                            <path d="M17.163 30.153c1.232-.654 2.808-.094 3.529 1.022.496.767.568 1.655.276 2.467l-.036.092-.007.04c-.09.395-.306.75-.664 1.012l-.135.09.028-.015c.032-.016.034-.014.005.005l-.066.044-.185.115c-.17.143-.366.236-.585.275-.17.054-.308.107-.474.132-1.443.225-3.041-.747-3.24-2.268-.166-1.272.42-2.41 1.554-3.01zm44.747.534c1.747 0 1.478 2.702-.256 2.702-1.747 0-1.478-2.702.256-2.702zm-24.355-4.48c1.152-.647 2.66-.072 3.33.963.265.41.4.857.42 1.303v.099l-.002-.003.002.004.001.067c-.002.112-.012.223-.029.333l-.008.038.094.528c.059-.286.032-.627-.057-.961l.024.061c.353 1.049-.145 2.572-1.249 2.936l-.084.028-.145.075c-.594.279-1.325.341-1.93.144l-.163-.06c-.646-.273-1.154-.643-1.536-1.233-.51-.79-.531-1.583-.318-2.476l-.004.018v-.001l.001-.004.012-.04.022-.076.009-.029c.082-.246.209-.484.368-.69.356-.456.74-.742 1.242-1.024zm2.438.529c.368.58.738 1.16 1.106 1.737.114.886-.121 1.595-.704 2.13.441-.408.733-.921.852-1.466l.022-.126-.025-.147-.119-.676c.03.065.06.128.094.19.022.041.042.084.06.127l.024.064-.046-.157c-.126-.385-.331-.747-.578-.987-.032-.032-.051-.047-.06-.05l-.006.004-.048-.066c-.16-.205-.331-.385-.572-.577zm-14.27-1.824c1.19-1.447 3.374-1.57 4.45.096.462.715.583 1.572.282 2.385-.296.801-1.145 1.676-2.058 1.718-.095.004-.182.026-.274.052-1.825.48-3.634-1.718-2.85-3.42.124-.274.254-.593.45-.83zm-12.63-2.533c.342-.607.92-.696 1.449-.505l.02.008.082.01c.504.07.932.384 1.01 1.028l.001.032.006.012c.088.254.095.522-.013.774l-.039.077-.015.123c-.321 1.877-3.291 1.23-2.83-.643l.015-.058-.004-.068c-.007-.268.097-.508.267-.706l.016-.017zm.016.012l-.05.055-.02.04c-.036.073-.068.153-.096.24l-.14.433-.024.078.003.034c.022.172.088.354.21.544.065.105.131.208.197.311.404.632 1.043.785 1.674.36l.302-.203c.208-.14.352-.296.442-.462l.002-.006.003-.015.043-.454c.01-.104.013-.201.009-.293l-.009-.101-.027-.072c-.176-.417-.564-.787-.999-.971l-.067-.027-.02-.002c-.512-.039-1.082.16-1.433.511zm35.235-3.605c1.196-.208 2.521.464 3.026 1.585.295.657.328 1.23.333 1.944.007 1.028-.92 1.95-1.83 2.238-1.008.321-2.103.018-2.804-.783-.131-.15-.255-.309-.367-.473l-.015-.023-.089-.117c-.06-.087-.114-.177-.158-.271l-.06-.144-.019-.052-.038-.083c-.228-.538-.316-1.12-.184-1.713l.04-.152.005-.025.061-.213c.288-.896 1.19-1.561 2.099-1.718zm-2.083 1.71l-.07.2-.012.046-.038.183c-.095.55-.015 1.059.166 1.609l.054.156.043.095c.058.117.121.233.19.345l.093.144.008.01c.577.7 1.654 1.094 2.494.908 1.15-.257 1.994-1.143 2.144-2.324-.14.36-.28.72-.422 1.08l-2.426 1.122c-.728-1.191-1.477-2.383-2.224-3.573zm32.168 1.106c1.476 0 1.25 2.283-.216 2.283-1.476 0-1.249-2.283.216-2.283zm-17.381-3.69c.933-.604 2.17-.425 2.905.416l-.108-.114.017.01c.635.445.935 1.118.996 1.928l.01.19.003.067c.026.893-.969 1.932-1.837 1.988l-.068.005c-.912.058-1.78-.207-2.301-.958l-.054-.084-.03-.059c-.021-.042-.048-.09-.076-.137l-.03-.047c-.083-.127-.171-.252-.243-.387-.53-.986-.075-2.244.816-2.818zM.262 17.004c.454-.65 1.53-.858 2.142-.316l.01.01.094.023c.617.172 1.076.827.895 1.51l-.033.11c-.396 1.091-1.43 1.33-2.414.888-.856-.385-1.258-1.42-.694-2.225zm35.145-1.457c.27-1.271 2.046-1.77 2.877-.71.059.076.23.253-.048.004.389.347.648.744.596 1.291-.042.442-.35.995-.8 1.143-.108.036-.203.087-.303.141-1.243.672-2.586-.616-2.322-1.87zM1.681 16.794c-.26.11-.149.108.337-.004.215.079.431.16.646.238.126.146.15.17.072.071-.053-.066-.1-.133-.146-.203l-.088-.11-.088-.087c-.238-.045-.488-.02-.733.095zM56.898 9.88c.62-.478 1.488-.666 2.227-.391.234.086.434.21.604.361l.12.117-.066-.04c-.202-.113-.42-.196-.644-.245l-.062-.012.13.046c.467.188.84.565 1.087 1.007l.064.125c-.092-.276-.222-.531-.397-.752l-.112-.128.082.05c.048.031.095.065.141.1l.135.114c.843.767.985 2.036.345 2.984l.015-.026-.014.04c-.445 1.088-1.869 1.773-2.99 1.38l-.14-.056c-1.728-.767-2.014-2.487-1.179-4.017.119-.218.304-.41.525-.569l.11-.072zm2.403.188l-.252-.407c.486.79.985 1.584 1.484 2.377.004-.283-.022-.576-.084-.859l-.013-.05-.264-.314-.263-.313-.25-.301-.358-.133zM70.4 9.102c1.722 0 1.458 2.665-.252 2.665-1.722 0-1.458-2.665.252-2.665zm-13.494.775l-.028.018-.11.091c-.166.149-.31.32-.423.51l1.045-.483.096-.066c.148-.093.306-.166.47-.218l.123-.035.374-.172c-.484-.077-1.077.066-1.547.355zm1.215-.194l-.042.01-.68.316-.009.004-.05.035c-.046.036-.092.074-.137.114-.073.068-.149.13-.228.188l.86-.271.81-.255.656.243-.25-.403-.08-.014c-.283-.042-.573-.032-.85.033zM26.752 7.485c1.649 0 1.396 2.55-.241 2.55-1.649 0-1.396-2.55.241-2.55zm19.744-1.617c.446-.71 1.464-.66 1.983-.093.354.388.418.863.48 1.358.092.746-.354 1.47-1.125 1.605-.675.119-1.564-.375-1.605-1.124-.036-.633-.088-1.182.267-1.746zM77.685 0c1.623 0 1.375 2.512-.238 2.512-1.624 0-1.375-2.512.238-2.512z" transform="translate(-335 -4640) translate(0 4003) translate(335 70) translate(0 567) translate(138)"/>
                        </g>
                    </g>
                </g>
            </g>
        </g>
    </g>
</svg>
