<svg xmlns="http://www.w3.org/2000/svg" width="44" height="44" viewBox="0 0 44 44">
    <g fill="none" fill-rule="evenodd">
        <g>
            <g>
                <g transform="translate(-77 -10184) translate(0 10028) translate(77 156)">
                    <circle cx="22" cy="22" r="22" fill="#FFDA00"/>
                    <g fill="#121217">
                        <path d="M15.585.596c-.469-.363-1.048-.587-1.683-.588L6.544 0c-1.527-.001-2.778 1.247-2.78 2.774L3.75 17.213c0 .293.058.57.142.836.357 1.12 1.397 1.942 2.63 1.943l7.36.008c1.526.003 2.777-1.246 2.779-2.773l.015-14.438c.002-.893-.432-1.684-1.091-2.193zm-5.381 18.616c-.564-.002-1.02-.46-1.019-1.022.001-.564.458-1.02 1.021-1.02.564.001 1.02.458 1.02 1.022 0 .563-.46 1.021-1.022 1.02zm5.62-5.017c0 1.195-1.088 2.171-2.418 2.169l-6.4-.007c-.618 0-1.176-.218-1.603-.564-.494-.4-.81-.97-.81-1.612l.011-11.296C4.606 1.69 5.694.714 7.023.715l6.4.007c.647 0 1.233.234 1.667.611.457.397.747.95.747 1.564l-.012 11.298z" transform="translate(12 12)"/>
                    </g>
                </g>
            </g>
        </g>
    </g>
</svg>
