<svg xmlns="http://www.w3.org/2000/svg" width="20" height="20" viewBox="0 0 20 20">
    <g fill="none" fill-rule="evenodd">
        <g fill="#121217">
            <g>
                <g>
                    <g>
                        <g>
                            <g>
                                <path d="M10 0C4.477 0 0 4.477 0 10s4.477 10 10 10 10-4.477 10-10S15.523 0 10 0zM7.98 5.128c.187-.004.382.044.57.152l6.025 3.71c.329.203.553.575.553 1.01 0 .435-.224.807-.553 1.01L8.55 14.72c-.75.431-1.608-.119-1.627-1.026V6.298c.014-.68.5-1.157 1.058-1.17z" transform="translate(-185 -5434) translate(0 4716) translate(135 425) translate(30 30) translate(0 250) translate(20 13)"/>
                            </g>
                        </g>
                    </g>
                </g>
            </g>
        </g>
    </g>
</svg>
