<svg xmlns="http://www.w3.org/2000/svg" width="296" height="274" viewBox="0 0 296 274">
    <defs>
        <filter id="uj3vl0zt6a" width="141%" height="170.8%" x="-20.5%" y="-35.4%" filterUnits="objectBoundingBox">
            <feGaussianBlur in="SourceGraphic" stdDeviation="10.08"/>
        </filter>
    </defs>
    <g fill="none" fill-rule="evenodd">
        <g>
            <g>
                <g>
                    <g>
                        <g transform="translate(-135 -945) translate(0 700) translate(0 195) translate(135 50)">
                            <path fill="#CED6E7" d="M147.34 239C217.48 239 275 223.364 275 153.5S218.14 27 148 27 21 83.636 21 153.5 77.2 239 147.34 239z"/>
                            <path fill="#E0E5EF" d="M148 273.766c74.006 0 134-24.123 134-98.083S222.006 41.766 148 41.766 14 101.723 14 175.683c0 73.96 59.994 98.083 134 98.083z" transform="rotate(-180 148 157.766)"/>
                            <path fill="#F0F3F9" d="M148 255.533c81.738 0 148-26.571 148-108.033S229.738 0 148 0 0 66.038 0 147.5s66.262 108.033 148 108.033z"/>
                            <circle cx="54.5" cy="32.5" r="5.5" fill="#FFDA00"/>
                        </g>
                        <g>
                            <g fill="#2F3E5B" opacity=".098">
                                <path d="M139.933 32.073c10.204 5.89 10.257 15.44.12 21.332L92.464 81.06c-10.138 5.892-26.625 5.892-36.829 0L7.738 53.406c-10.204-5.891-10.259-15.442-.12-21.333L55.204 4.419c10.137-5.892 26.625-5.892 36.83-.001l47.898 27.655z" filter="url(#uj3vl0zt6a)" transform="translate(-135 -945) translate(0 700) translate(0 195) translate(135 50) translate(56 84) translate(18.749 60.92)"/>
                            </g>
                            <g fill="#CED6E7">
                                <path d="M175.654 14.142l-59.698 34.693c-12.718 7.39-33.401 7.39-46.203 0L9.664 14.143C3.224 10.423.006 5.543.02.67L0 7.573c-.013 4.875 3.203 9.756 9.645 13.475L69.734 55.74c12.802 7.391 33.484 7.391 46.202 0l59.698-34.692c6.319-3.673 9.481-8.477 9.495-13.29l.02-6.903c-.014 4.81-3.177 9.615-9.495 13.287" transform="translate(-135 -945) translate(0 700) translate(0 195) translate(135 50) translate(56 84) translate(0 53.964)"/>
                            </g>
                            <g fill="#FFF">
                                <path d="M175.503 40.603c12.802 7.39 12.87 19.372.151 26.762l-59.699 34.693c-12.717 7.39-33.4 7.39-46.201 0L9.664 67.366c-12.8-7.391-12.868-19.372-.15-26.763L69.213 5.91c12.718-7.392 33.4-7.392 46.201 0l60.09 34.692z" transform="translate(-135 -945) translate(0 700) translate(0 195) translate(135 50) translate(56 84) translate(0 .742)"/>
                            </g>
                        </g>
                        <g fill="#121217">
                            <path d="M71.228 0c.301.143.622.424.954.44 2.53.125 4.057 1.866 5.504 3.546C78.72 5.183 79.42 6.678 80.2 8.079c2.49 4.488 5.03 8.952 7.38 13.513.996 1.933 1.668 4.052 2.306 6.14.586 1.923.225 3.728-1.448 5.067-.621.496-.814 1.027-.606 1.813 1.305 4.932 1.487 10.03 2.098 15.057.496 4.071.391 8.209.715 12.305.337 4.257.884 8.497 1.306 12.747.083.844.046 1.705.008 2.556-.028.6-.355 1.02-1.013 1.018-.91-.006-1.82-.067-2.73-.08-.897-.011-1.82-.124-2.69.037-5.541 1.028-11.06 2.18-16.607 3.173-5.02.9-10.056 1.725-15.105 2.446-4.567.65-9.169 1.057-13.74 1.675-4.205.567-8.39 1.274-12.583 1.917-1.382.212-2.759.45-4.145.619-5.009.609-10.02 1.196-15.031 1.787-.427.052-.854.108-1.283.129-.624.03-1.01-.265-1.149-.883-.602-2.71-1.235-5.414-1.81-8.128-.876-4.14-1.216-8.35-1.498-12.56-.225-3.355-.382-6.717-.515-10.077-.079-1.977-.303-3.906-.717-5.857-.368-1.735-.562-3.508-.734-5.284l-.17-1.775-.09-.886C.177 42.956.02 41.356 0 39.759c-.025-2.144.537-2.735 2.601-3.454 4.691-1.633 9.504-2.67 14.454-3.107.842-.075 1.682-.196 2.576-.301-.011-1.242-.133-2.16-.001-3.039.223-1.48 1.137-2.634 2.146-3.693 2.053-2.153 4.468-3.858 7.038-5.317 6.437-3.659 12.879-7.31 19.392-10.832 6.904-3.73 14.13-6.773 21.502-9.47.502-.183 1.005-.362 1.52-.546zm16.223 39.415c-.166-1.25-.361-1.342-1.57-1.128-.53.094-1.062.167-1.591.257-.666.112-1.333.223-2 .332l-4 .653c-2.666.436-5.33.887-7.977 1.413-.711.142-1.42.29-2.13.44l-2.126.456c-2.835.607-5.675 1.189-8.569 1.489-1.175.122-2.343.31-3.507.506-3.389.574-6.756 1.283-10.161 1.723l-2.28.294c-4.941.64-9.868 1.33-14.69 2.646-1.916.523-3.843 1.047-5.797 1.375-3.549.596-7.13 1.001-10.682 1.571-1.957.314-3.897.759-5.824 1.231-1.595.389-1.694.575-1.617 2.22.201 4.32.338 8.647.649 12.96.467 6.51 1.278 12.972 3.142 19.266.238.804.616 1.2 1.433 1.186.43-.007.862 0 1.287-.046 2.135-.234 4.272-.458 6.402-.731 5.645-.723 11.287-1.464 16.93-2.208 9.373-1.234 18.767-2.343 28.113-3.762 6.63-1.008 13.212-2.358 19.782-3.718 3.216-.665 6.57-.887 9.653-2.589-.006.58-.008 1.017-.014 1.668.677-.606.453-1.158.405-1.642-.18-1.8-.41-3.596-.595-5.395l.004.245-.015.68c-.018.514-.145 1.023-.25 1.719-1.43-.68-2.519-.261-3.706.23-1.073.444-2.32.484-3.498.64-4.556.612-9.118 1.164-13.67 1.805-4.232.598-8.456 1.254-12.677 1.933-4.112.662-8.213 1.395-12.321 2.076-1.068.177-2.15.268-3.22.423-1.97.282-1.97.29-3.1 2.022-.73-1.55-1.912-1.422-3.122-1.244-2.408.353-4.819.687-7.227 1.034-.857.124-1.713.265-2.568.396l-9.786 1.512c-.321.05-.64.118-.962.155-1.487.168-1.777-.055-2.06-1.584-.058-.322-.08-.651-.124-.975-.805-5.937-1.554-11.885-2.447-17.81-.356-2.366-1.045-4.68-1.56-7.024-.113-.514-.13-1.05-.207-1.705.462-.056.818-.148 1.17-.133 4.265.2 8.4-.577 12.512-1.607 1.99-.499 4.02-.838 6.036-1.24 2.586-.52 5.171-1.041 7.763-1.535 1.806-.343 3.616-.678 5.434-.954 4.975-.75 9.96-1.447 14.933-2.204 3.532-.537 7.055-1.122 10.578-1.712 3.468-.582 6.935-1.172 10.394-1.807 1.699-.313 3.373-.756 5.066-1.1.952-.192 1.918-.357 2.886-.438 1.124-.095 1.557.189 1.929 1.321.288.875.505 1.792.604 2.708.222 2.06.278 4.14.536 6.194.347 2.756.66 5.532 1.279 8.233.399 1.736.772 3.469 1.033 5.215l-.147-2.278-.301-5.033c-.26-4.257-.435-8.518-1.175-12.736-.341-1.943-.419-3.931-.68-5.89zM34.868 71.493c-.38.091-.686.167-.993.236-1.314.292-2.615.691-3.945.847-2.791.329-5.603.477-8.395.798-2.948.337-5.882.788-9.08 1.224.246 2.094.441 3.93.682 5.76.198 1.493.547 1.709 2.066 1.474 2.189-.338 4.377-.684 6.573-.975 4.292-.567 8.588-1.095 12.882-1.649 1.662-.215 1.803-.395 1.505-2.131-.266-1.559-.592-3.108-.914-4.657-.062-.297-.232-.572-.38-.927zm27.476-22.897c-.346-1.701-.606-1.905-2.3-1.582-1.167.224-2.324.51-3.498.685-3.953.59-7.92 1.087-11.865 1.728-3.574.58-7.126 1.299-10.686 1.965-1.17.22-1.39.396-1.245 1.28.38 2.31.769 4.624 1.3 6.903.14.601 1.039 1.026 1.17 1.624.143.651-.397 1.44-.301 2.118.5 3.563 1.076 7.115 1.695 10.658.267 1.534.7 3.039 1.066 4.594 2.607-.311 5.023-.547 7.423-.896 4.71-.682 9.41-1.423 14.114-2.146 2.032-.31 4.069-.604 6.092-.966 1.09-.196 1.23-.387 1.114-1.4-.348-3.034-.73-6.064-1.111-9.095-.144-1.15-.374-2.283-.62-3.414l-.375-1.696c-.308-1.414-.59-2.835-.715-4.29-.096-1.137-.346-2.258-.62-3.378l-.333-1.344c-.109-.449-.213-.898-.305-1.348zm25.718 13.375c-1.083.13-1.879.203-2.666.323-3.685.562-7.369 1.127-11.05 1.708-2.079.33-4.17.62-6.225 1.057-1.403.3-1.43.45-1.278 1.94.14 1.353.293 2.71.498 4.053.441 2.902.617 3.052 3.4 2.611 5.705-.902 11.405-1.846 17.107-2.773 1.047-.17 1.185-.243 1.08-1.388-.224-2.426-.55-4.841-.866-7.53zM33.74 63.242c-.18-.574-.608-.903-1.247-.79-1.543.276-3.086.559-4.623.863-.19.038-.397.192-.518.352-1.44 1.898-2.854 3.816-4.3 5.71-.397.52-.687 1.227-1.936 1.333 1.728-2.538 3.325-4.743 5.277-7.055-1.51.073-2.127.926-2.768 1.694-.662.793-1.275 1.629-1.887 2.462-.585.795-1.143 1.612-1.712 2.42l-.383-.248c.315-1.028.882-1.921 1.483-2.805l.517-.758c.43-.635.843-1.282 1.161-1.989-.634.212-1.28.447-1.61.912-1.358 1.902-2.613 3.876-3.924 5.811-.245.363-.566.674-.852 1.008-.208-1.548.812-2.463 1.39-3.569.595-1.137 1.343-2.193 2.037-3.305-.838-.438-1.074.072-1.381.536-1.377 2.08-2.775 4.146-4.224 6.303-.526-.28-.97-.52-1.562-.835.822-1.751 1.586-3.383 2.351-5.015l-.189-.096-2.894 4.776c.247 1.749.403 2.002 2.022 1.85 4.036-.374 8.07-.785 12.102-1.2-.048-1.08.026-1.184 1.953-3.914 2.088-2.955 2.328-3.203 3.403-3.473.017.154.104.363.041.445-1.746 2.312-3.508 4.61-5.39 7.075l.11-.145 5.865-.603c.268-.027.534-.09.797-.154 1.807-.43 1.94-.614 1.717-2.436-.07-.566-.186-1.127-.281-1.69-.104-.017-.209-.032-.313-.05l-1.713 3.298-.526-.26.171-.683c.363-1.442.786-2.863 2.256-3.867-.137-.642-.226-1.29-.42-1.908zm-4.422.978c-.126 1.198-.99 1.775-1.546 2.54-.626.86-1.297 1.686-1.923 2.548-.578.796-1.124 1.62-1.684 2.432l-.276-.232c.359-2.043 3.556-6.412 5.43-7.288zm3.258 0c-.06.42-.032.684-.124.822-1.27 1.884-2.555 3.751-3.837 5.623l-.383-.38c.602-1.33 1.372-2.512 2.161-3.677l.678-.996c.226-.333.45-.667.667-1.006.131-.203.453-.218.838-.386zM16.67 65.583l-2.608 4.753.296.168 2.745-4.672-.433-.25zm-2.92.294c-2.502-.161-2.74.08-2.412 2.198.078.505.176 1.007.312 1.781l2.1-3.98zM31.732 53.21c-.297-1.205-.461-1.298-1.715-1.05-3.65.727-7.302 1.455-10.94 2.247-2.804.61-5.6 1.195-8.488 1.174-.402-.005-.806.172-1.394.307.61 2.976 1.192 5.825 1.839 8.977 2.066-.246 3.948-.39 5.8-.707 4.947-.848 9.875-1.802 14.822-2.648 1.787-.304 1.692-.924 1.434-2.248-.396-2.03-.863-4.046-1.358-6.052zm52.994 1.197c-1.255.148-1.46.263-2.293 1.252l-2.442 2.916-1.23 1.45c-.21.246-.537.39-.81.581.742-2.279 2.703-3.68 3.586-5.833-.625.247-1.158.58-1.563 1.032-1.054 1.17-2.04 2.402-3.08 3.585-.201.23-.525.35-.79.521.231-.76.643-1.391 1.077-2.002l.435-.609c.43-.609.83-1.232 1.042-1.977-.582.232-1.053.558-1.401.984-.997 1.222-1.933 2.493-2.918 3.723-.203.25-.523.408-.788.61l-.298-.258 2.945-4.502c-2.692 1.584-4.036 4.447-6.31 6.434.44-1.061.998-2.03 1.62-2.958.637-.95 1.335-1.86 2.006-2.787-.109-.09-.218-.18-.327-.272-1.847.631-2.913 2.051-3.907 3.553l-.329.502c-.493.755-.987 1.51-1.571 2.179-.161-2.071 1.512-3.308 2.312-5.27-.468.26-.704.312-.803.459-.816 1.22-1.632 2.441-2.39 3.697-.214.354-.314.82-.335 1.241-.043.846.343 1.194 1.197 1.093.695-.082 1.375-.285 2.07-.38 4.225-.592 8.457-1.137 12.676-1.765 1.384-.207 2.738-.623 4.108-.927.842-.186 1.212-.744 1.08-1.546-.244-1.485-.574-2.955-.925-4.719-2.558 1.884-3.815 4.757-6.202 6.417l-.304-.272 4.862-6.152zm-17.35 3.684c-1.988.376-2.192.82-1.297 2.334l1.297-2.334zm18.14-13.746c-.221-1.257-.717-1.476-2.013-1.244-.845.15-1.66.484-2.505.629-5.488.935-10.98 1.839-16.47 2.762-.41.07-.803.225-1.404.398.693 3.377 1.362 6.649 2.07 10.097 1.816-.342 3.516-.587 5.178-.993 2.2-.54 4.361-1.24 6.556-1.803 1.562-.402 3.144-.74 4.733-1.018 1.21-.212 2.443-.278 3.665-.419.753-.086 1.228-.474 1.13-1.288-.287-2.377-.525-4.765-.94-7.121zM20.04 34.528c-.554-.328-.85-.029-1.113.297l-.111.14c-1.139 1.415-2.302 2.813-3.387 4.27-2.333 3.131-4.623 6.296-6.935 9.444-.176.24-.39.452-.61.704-.121-.192-.243-.326-.22-.36 3.315-4.764 6.64-9.52 10.042-14.386-.64-.143-1.086-.308-1.418.389-.245.515-.623.982-1.002 1.419-3.62 4.174-7.01 8.51-9.67 13.37-.126.227-.39.379-.59.567l-.289-.205c.694-1.988 1.972-3.67 3.164-5.384 1.191-1.713 2.442-3.386 3.7-5.05 1.27-1.682 2.579-3.334 3.938-5.086-1.054-.31-1.43.302-1.804.778-1.29 1.64-2.57 3.29-3.789 4.982-1.938 2.691-3.822 5.42-5.737 8.128-.251.355-.546.68-.82 1.02l-.31-.204c.477-.867.872-1.792 1.443-2.592l-.176.264c.087-.435 1.235-2.563 2.552-4.839l.332-.571c1.227-2.1 2.533-4.215 3.23-5.158.335-.453.757-.833 1.138-1.247l.31.247c.007.154.075.353.009.457-1.478 2.278-2.96 4.553-4.445 6.826.922-1.244 1.84-2.49 2.73-3.755.835-1.19 1.945-2.241 2.395-3.915-1.06.124-1.956.193-2.835.355-.272.05-.563.308-.733.55-2.035 2.882-4.064 5.768-6.062 8.675-1.492 2.173-1.45 4.436.145 6.794 2.126-.478 4.31-.966 6.612-1.484-.145-1.036.342-1.813.896-2.562l.24-.32c1.03-1.368 2.05-2.744 3.098-4.097 1.804-2.327 3.636-4.63 5.433-6.96.333-.433.882-.82.649-1.5zm.375 1.896c-.421.379-.82.646-1.1 1.004-2.7 3.453-5.395 6.908-8.049 10.395-.354.467-.47 1.11-.728 1.753 1.161.25 1.885.11 2.265-.925.162-.44.476-.835.764-1.217 1.932-2.558 3.875-5.108 5.817-7.66.388-.511.79-1.012 1.177-1.523.4-.528.442-1.066-.146-1.827zM15.981 46.82c-.425.386-.855.768-1.275 1.162-.39.367-.77.745-1.156 1.117l.256.24c1.166-.417 1.635-1.54 2.175-2.519zm6.354-5.327c-1.589 1.197-3.873 3.793-4.385 5.014 1.62-1.294 2.994-2.757 4.787-3.92.534 1.432-.878 1.83-1.117 2.797l2.028-.937c.468 1.837-1.425 2.153-1.732 3.478 1.879.022 2.145-.05 3.255-.887-.687-1.966-1.233-4.017-2.836-5.545zM77.01 5.422C73.8 2.07 72.495 1.33 68.27 2.585c-.31.09-.624.174-.92.3-4.003 1.687-8.06 3.262-11.99 5.108-4.368 2.05-8.674 4.243-12.906 6.558-5.782 3.162-11.592 6.303-16.912 10.22-1.28.941-2.402 2.123-3.48 3.302-.805.882-1.317 2.006-1.112 3.242.298 1.81.292 3.722 1.582 5.252.14.169.077.502.128.755.09.465.109.969.307 1.387 1.171 2.457 2.392 4.891 3.579 7.34.274.565.696.817 1.295.692 2.034-.426 4.065-.875 6.384-1.378-.701-1.252-1.222-2.118-1.68-3.014-.486-.95-.983-1.903-1.351-2.9-.474-1.287-.27-1.529 1.03-1.943l1.138-.359c.949-.302 1.891-.623 2.778-1.053 2.17-1.052 4.27-2.244 6.388-3.4 1.396-.762 1.747-.662 2.405.846.449 1.028.862 2.072 1.296 3.107.58 1.379 1.164 2.756 1.743 4.134.183.437.488.88.488 1.32 0 .395-.342.791-.608 1.342 3.581-.585 7.022-1.141 10.458-1.716 2.065-.343 4.132-.681 6.185-1.083 3.214-.627 6.425-1.268 9.619-1.987.972-.22 1.92-.643 2.812-1.102 1.376-.708 2.63-1.654 4.23-1.88.413-.058.834-.248 1.19-.475 1.67-1.06 3.343-2.115 4.967-3.241 1.323-.917 1.864-2.205 1.356-3.78-.507-1.575-.94-3.196-1.664-4.672-1.697-3.45-3.522-6.839-5.347-10.227-1.09-2.021-2.268-3.995-3.423-5.98-.375-.645-.717-1.345-1.225-1.878zM43.18 33.745l-1.239.86c.685 1.414 1.36 2.685 1.923 4.001 1.279 2.979 1.257 2.988.82 3.964-.82-.514-.555-1.838-1.855-2.333l1.087 2.612c-.389.02-.541.072-.587.025-.436-.459-.86-.93-1.277-1.405-.842-.957-1.117-.96-2.151-.027-.154 1.026 1.253 1.446.995 2.668-.768-.157-1.15-.646-1.496-1.149l-.189-.273c-.062-.09-.126-.18-.193-.265-.594-.76-.657-.744-1.572.097-.104.648.969 1.104.27 1.946-.246-.146-.469-.37-.69-.602l-.167-.173c-.583-.604-1.194-1.127-2.224-.261.8 1.767.802 1.786 2.622 1.53 1.752-.246 3.492-.598 5.25-.793 1.131-.126 2.033-.644 2.9-1.198l.518-.334c.345-.222.69-.438 1.049-.625-.58-2.56-2.807-7.436-3.794-8.265zm-21.91 5.199c-1.867 1.683-3.236 3.78-4.783 5.729l.24.236c1.049-.946 2.114-1.876 3.14-2.846.58-.548 1.12-1.142 1.633-1.753.331-.395.465-.85-.23-1.366zm-13.665-3c-.3.136-.727.19-.881.422-1.535 2.303-3.032 4.63-4.515 6.967-.228.36-.33.8-.489 1.204l.378.175 5.702-8.53-.195-.238zm-2.443.764c-.098.032-.242.031-.288.097-1.111 1.623-2.227 3.242-3.297 4.89-.153.237-.076.62-.106.935 1.717-1.736 2.87-3.723 3.972-5.743-.094-.059-.187-.12-.28-.18zm35.458-1.486L32.38 39.22c-.056 1.19.633 2.062 1.366 3.082l1.47-.534c-.021-1.076-1.144-1.657-.55-2.993.497.711.834 1.214 1.194 1.7.595.8.764.813 1.802.183.057-1.082-1.28-1.832-.808-3.125.97.216 1.1 1.032 1.458 1.639.718 1.221.995 1.267 2.303.237-.238-.536-.485-1.115-.75-1.686-.263-.572-.62-1.155.336-1.516.307.287.497.66.67 1.047l.146.332c.293.663.616 1.3 1.465 1.538.045-1.115-.755-2.747-1.86-3.902zM3.7 37.43c-2.13.422-2.66 1.185-2.222 3.29l2.222-3.29zm82.52-2.789l-1.843 2.067c1.843-.39 2.543-1.224 1.843-2.067zM63.68 7.507c2.04-.431 2.074-.33 2.652 1.344.21.605.403 1.215.614 1.853.522-.062.957-.058 1.36-.17 3.47-.964 5.99 2.848 5.366 5.346-.218.874-.443 1.746-.713 2.814.676-.144 1.134-.268 1.599-.338 2.788-.416 5.442-.236 7.614 1.856 1.55 1.493 1.805 2.887.957 4.875-.6 1.404-1.618 2.445-2.872 3.253-.752.483-1.18 1.015-1.066 1.986.064.57-.125 1.186-.284 1.757-.175.626-.627 1.017-1.302 1.052-.715.037-1.07-.38-1.275-1.023-.127-.394-.358-.756-.557-1.162-.982.31-.755.966-.538 1.472.458 1.062.01 1.787-.75 2.426-.704.594-1.243.47-1.702-.348-.053-.095-.101-.195-.125-.3-.384-1.648-1-1.92-2.956-.94-.192.096-.344.27-.535.371-.859.449-1.74.322-2.175-.3-.99-1.419-.975-1.854.11-2.764.209-.173.429-.337.654-.487.664-.448.75-1.017.38-1.693-.156-.288-.302-.58-.464-.862-1.46-2.543-2.926-5.083-4.385-7.627-.895-1.562-.895-1.59-2.637-1.307-.737.12-1.45.382-2.257.603-1.188-1.664-1.12-2.278.193-3.397 2.595-2.213 2.543-1.707.849-4.517-.218-.363-.394-1.124-.22-1.279.544-.476 1.247-.8 1.936-1.054.131-.05.533.457.718.763.392.65.672 1.37 1.1 1.99.16.232.607.266.921.392.06-.328.255-.706.153-.97-.29-.759-.73-1.458-1.055-2.205-.37-.853-.208-1.22.693-1.41zM73.77 32.41l-.227.077.22.69c.08-.042.233-.104.228-.12-.06-.219-.143-.432-.22-.647zM72.25 16.542c.82-2.785-1.383-5.072-4.208-4.387-1.464.356-2.92.896-4.255 1.59-1.809.941-3.556 2.03-5.058 3.43l.167.388c.511-.132 1.036-.226 1.532-.403 2.232-.793 2.728-.608 3.868 1.512.077.144.14.295.219.437 1.401 2.51 2.814 5.013 4.199 7.532.363.662.716 1.349.939 2.066.397 1.274.136 1.813-1.015 2.565-.192.125-.336.326-.768.76.756-.027 1.192.053 1.553-.076.697-.248 1.334-.661 2.03-.919.72-.267 1.508-.354 2.21-.653 1.048-.444 2.084-.94 3.054-1.53 1.476-.901 3.09-1.702 4.29-2.902 2.344-2.344 1.72-4.396-1.322-5.796-.145-.066-.31-.096-.465-.142-2.17-.63-4.283-.533-6.334.462-.733.357-1.466.721-2.23.992-.233.081-.694-.046-.828-.235-.13-.187-.055-.608.07-.86.135-.28.481-.45.643-.723.605-1.018 1.383-1.997 1.71-3.108zm5.487 13.426c-.082-.06-.288.048-.437.08l.343 1.603-.001-.002.064-.135c.312-.666.556-1.08.126-1.469zM50.942 15.884c.3.885-.198 1.108-.619 1.338-3.971 2.172-7.95 4.334-11.925 6.498l2.154-1.173c.421-.209.844-.415 1.268-.618 2.557-1.223 5.145-2.385 7.732-3.546.417-.186.898-.237 1.35-.351l.131.43c-.353.213-.69.465-1.065.632-6.301 2.805-12.397 5.983-18.298 9.68-.5-1.035.14-1.43.643-1.746l.104-.065-.208.112c-.487.258-1.052.37-1.806.624.1-1.274.848-1.428 1.376-1.708 1.98-1.05 4.018-1.987 5.99-3.05 3.843-2.071 7.653-4.206 11.485-6.3.533-.29 1.11-.5 1.688-.757zm19.96 7.068c1.78-.494 3.58-.907 5.48-.373 1.955.548 2.37 1.783.966 3.102-.62.58-1.444 1-2.196 1.468-.825.514-1.672.997-2.729 1.624-.02-.007-.259-.028-.318-.127-.866-1.477-1.747-2.948-2.538-4.455-.258-.492.186-.915.707-1.062zm5.741 1.219c-1.392-.94-3.433-.781-5.26.507l1.113 2.143c2.23-.518 3.596-1.43 4.147-2.65zm-11.796-9.717c1.725-.762 3.533-1 5.34-.31 1.345.513 1.76 1.49 1.29 2.846-.772 2.228-2.564 3.321-4.839 4.264-.312-.657-.546-1.126-.76-1.606-.525-1.173-1.027-2.357-1.563-3.523-.415-.903-.37-1.271.532-1.67zm4.639.884c-1.31-.295-2.623-.305-3.977.609l1.81 3.516c1.58-.549 2.456-1.35 2.873-2.602.253-.76.03-1.357-.706-1.523zm-4.553-6.012l-.246.132.621 1.193c.09-.05.178-.097.268-.145l-.643-1.18z" transform="translate(-135 -945) translate(0 700) translate(0 195) translate(135 50) translate(103 53)"/>
                        </g>
                        <g fill="#121217">
                            <path d="M7.426 34.997c.538-.592 1.578.106 1.038.727-1.04 1.197-2.198 2.27-3.432 3.266C3.718 40.05 2.3 41.264.749 41.944c-.6.261-.986-.473-.585-.905 1.07-1.14 2.524-1.977 3.764-2.93 1.24-.955 2.443-1.954 3.498-3.113zm24.676.07c-.457-.75.737-1.46 1.267-.815.88 1.075 3.68 4.185 2.213 5.602-.23.22-.694.187-.885-.072-.459-.632-.66-1.484-1.05-2.17-.489-.86-1.027-1.698-1.545-2.544zm-12.439-.302c-.086-.846 1.106-1.085 1.229-.23.23 1.625.182 4.142-1.055 5.336-.332.321-.877-.004-.835-.464.072-.757.403-1.464.537-2.212.146-.803.206-1.616.124-2.43zm11.465-22.701c.554-.283 1.112.434.764.978-.467.728-1.033 1.4-1.674 2.01-.856 1.395-1.846 2.703-2.469 4.254-1.517 3.783-1.088 7.048 1.533 10.22.475.574.134 1.209-.392 1.41.353.347.682.73.984 1.149.39.545-.197 1.14-.792.83-3.298-1.723-5.851-3.355-9.766-3.12-2.32.14-4.466.831-6.638 1.502-.452.597-.97 1.128-1.556 1.577-.458.35-1.103-.076-.912-.668.037-.113.074-.225.113-.336-.41-.169-.45-.873-.003-1.126.18-.102.366-.202.554-.3.985-2.343 2.17-4.446 2.279-7.225.15-3.9-1.536-6.64-4.033-9.346-.34-.368.104-1.051.555-.83 1.383.68 2.502 1.777 3.35 3.124.09-.29.421-.5.758-.302 3.38 1.978 7.03 1.809 10.553.367 2.503-1.023 4.42-2.96 6.792-4.168zm-17.648 4.9l.115.224c1.746 3.55 1.88 8.34.315 11.972 4.163-1.405 9.17-1.76 12.86.218-2.197-3.26-2.299-7.962-.584-11.687-4.208 1.843-9.344 1.861-12.706-.727zM2.526 23.137c1.463-.264 3.266-.244 4.346.954.318.353-.002.963-.47.905-.594-.074-1.116-.355-1.699-.481-.646-.14-1.296-.142-1.95-.08-.83.078-1.07-1.148-.227-1.298zM34.676 21l.1.005c1.214.142 2.388.409 3.572.705 1.107.278 2.454.455 3.392 1.11.463.326.263.967-.25 1.096-1.075.272-2.29-.179-3.323-.485-1.234-.365-2.455-.78-3.708-1.087-.797-.196-.469-1.43.316-1.34zM16.202 5.557c.16-.806 1.552-.713 1.462.12-.14 1.287.434 2.606.19 3.863-.096.498-.846.645-1.122.174-.656-1.123-.776-2.917-.53-4.157zM45.843.504c.369-.634 1.456-.053 1.123.6-1.539 3.016-3.838 6.019-6.5 8.094-.468.363-1.103-.202-.765-.71 1.87-2.81 4.425-5.034 6.142-7.984zM.187.954c-.6-.552.385-1.294.982-.782C2.487 1.308 3.81 2.436 5.117 3.587c1.278 1.124 2.755 2.21 3.768 3.558.36.48-.194 1.087-.742.765-1.457-.857-2.667-2.148-3.906-3.258C2.874 3.433 1.533 2.19.187.954z" transform="translate(-135 -945) translate(0 700) translate(0 195) translate(135 50) translate(231.5 9)"/>
                        </g>
                    </g>
                </g>
            </g>
        </g>
    </g>
</svg>
