<svg xmlns="http://www.w3.org/2000/svg" width="296" height="274" viewBox="0 0 296 274">
    <defs>
        <filter id="1a6dqq8pta" width="141%" height="170.8%" x="-20.5%" y="-35.4%" filterUnits="objectBoundingBox">
            <feGaussianBlur in="SourceGraphic" stdDeviation="10.08"/>
        </filter>
    </defs>
    <g fill="none" fill-rule="evenodd">
        <g>
            <g>
                <g>
                    <g>
                        <g transform="translate(-135 -1321) translate(0 700) translate(0 571) translate(135 50)">
                            <path fill="#CED6E7" d="M147.34 239C217.48 239 275 223.364 275 153.5S218.14 27 148 27 21 83.636 21 153.5 77.2 239 147.34 239z"/>
                            <path fill="#E0E5EF" d="M148 273.766c74.006 0 134-24.123 134-98.083S222.006 41.766 148 41.766 14 101.723 14 175.683c0 73.96 59.994 98.083 134 98.083z" transform="rotate(-180 148 157.766)"/>
                            <path fill="#F0F3F9" d="M148 255.533c81.738 0 148-26.571 148-108.033S229.738 0 148 0 0 66.038 0 147.5s66.262 108.033 148 108.033z"/>
                            <circle cx="54.5" cy="32.5" r="5.5" fill="#FFDA00"/>
                        </g>
                        <g>
                            <g fill="#2F3E5B" opacity=".098">
                                <path d="M139.933 32.073c10.204 5.89 10.257 15.44.12 21.332L92.464 81.06c-10.138 5.892-26.625 5.892-36.829 0L7.738 53.406c-10.204-5.891-10.259-15.442-.12-21.333L55.204 4.419c10.137-5.892 26.625-5.892 36.83-.001l47.898 27.655z" filter="url(#1a6dqq8pta)" transform="translate(-135 -1321) translate(0 700) translate(0 571) translate(135 50) translate(56 84) translate(18.749 60.92)"/>
                            </g>
                            <g fill="#CED6E7">
                                <path d="M175.654 14.142l-59.698 34.693c-12.718 7.39-33.401 7.39-46.203 0L9.664 14.143C3.224 10.423.006 5.543.02.67L0 7.573c-.013 4.875 3.203 9.756 9.645 13.475L69.734 55.74c12.802 7.391 33.484 7.391 46.202 0l59.698-34.692c6.319-3.673 9.481-8.477 9.495-13.29l.02-6.903c-.014 4.81-3.177 9.615-9.495 13.287" transform="translate(-135 -1321) translate(0 700) translate(0 571) translate(135 50) translate(56 84) translate(0 53.964)"/>
                            </g>
                            <g fill="#FFF">
                                <path d="M175.503 40.603c12.802 7.39 12.87 19.372.151 26.762l-59.699 34.693c-12.717 7.39-33.4 7.39-46.201 0L9.664 67.366c-12.8-7.391-12.868-19.372-.15-26.763L69.213 5.91c12.718-7.392 33.4-7.392 46.201 0l60.09 34.692z" transform="translate(-135 -1321) translate(0 700) translate(0 571) translate(135 50) translate(56 84) translate(0 .742)"/>
                            </g>
                        </g>
                        <g fill="#121217">
                            <path d="M77.098 71.927c1.658.247 2.988 1.012 3.706 2.625l.678 1.503c.84 1.913.194 3.582-.88 5.156-.196.287-.552.467-.848.678-.246.175-.515.319-.768.485-.045.029-.067.096-.156.23.37.285.725.608 1.125.858.971.605 1.594 1.473 2.08 2.49.531 1.11.95 2.25 1.142 3.464.154.969.359 1.903.816 2.795.426.829.072 1.364-.874 1.53-1.571.276-3.14.362-4.71-.02-.772-.19-1.543-.186-2.346-.072-1.38.195-2.778.271-4.171.347-1.004.055-1.501-.467-1.665-1.54-.22-1.434.182-2.792.448-4.168.094-.479.268-.94.394-1.41.191-.718.433-1.401 1.036-1.893.14-.113.247-.272.345-.424.614-.947 1.345-1.735 2.572-1.886-.744-1.065-1.395-1.941-1.984-2.859-.439-.684-.577-1.468-.532-2.286.074-1.304.437-2.537.977-3.704.603-1.303 2.172-2.114 3.615-1.899zm-2.41 12.927c-1.091.793-2.107 1.638-2.739 2.863-.138.267-.272.545-.338.834-.203.887-.367 1.785-.558 2.675-.223 1.037.178 1.638 1.277 1.71 1.146.074 2.3.047 3.45.046.605 0 1.212-.077 1.814-.052 1.526.07 3.022-.042 4.666-.67.03-.385.164-.774.07-1.095-.248-.845-.51-1.685-.776-2.524l-.802-2.517c-.375-1.188-1.28-1.756-2.415-1.946-1.278-.213-2.524-.142-3.649.676zm-46.27-13.318c1.7.82 2.882 1.94 3.364 3.855.538 2.134.357 4.089-.843 5.945l-.115.172-.242.34c-.242.34-.472.696-.565 1.14l.304.093c.858.262 1.665.56 1.857 1.613l-.022-.019.166.298c.72 1.3 1.405 2.613 1.54 4.14.444.474.321.96-.053 1.372-.39.426-.168.85-.094 1.325l-.987.908c-.457-.07-.937-.06-1.352-.222-1.228-.48-2.463-.31-3.722-.223-1.88.128-3.768.181-5.654.213-.614.01-1.23-.142-1.858-.222l-.62-1.489c.055-.153.116-.311.17-.473.158-.487.413-.968.452-1.466.13-1.651 1.03-2.899 2.025-4.097.284-.342.69-.59 1.06-.85.366-.262.76-.488 1.231-.786-.336-.827-.704-1.597-.967-2.402-.798-2.445-.77-4.862.47-7.169.292-.543.714-1.046 1.167-1.469.958-.895 2-1.15 3.289-.527zM22.83 90.94c.044.126.086.254.129.379l.293-.128c-.037-.098-.048-.243-.119-.283-.07-.042-.2.017-.303.032zm8.59-.42c-.304.044-.465.243-.443.552.005.069.17.191.18.183.186-.142.36-.302.538-.461-.15-.155-.221-.282-.275-.274zm-4.13-1.536c-.277.462-.538.814-.7 1.208-.063.153.071.415.168.6.094.186.495.175.577.012.231-.461.231-.783-.046-1.82zm1.5 1.027c-.15.17-.203.204-.219.25-.045.134-.077.274-.113.411.122-.07.268-.116.356-.217.047-.052-.006-.195-.025-.444zm-6.53-.336l-.546.638c.466.065.808-.049.546-.638zm3.046-.172c-.078.187-.169.371-.228.566-.02.074.035.17.055.259.086-.057.206-.095.253-.173.096-.172.155-.364.228-.548l-.308-.104zm-4.333.401l-.026.068.057.014c.377.059.537-.18.68-.446l.085-.16.044-.078.031-.05-.104-.012c-.452-.027-.624.301-.767.664zm7.843-2.937c-.095.045-.212.14-.23.231-.138.651-.251 1.309-.415 2.19 1.373-.619.964-1.591.961-2.446-.115.006-.232-.017-.316.025zm-6.683 1.314c-.312.098-.381.26-.35.492l.036.241.036.221.005-.007.273-.947zm1.683.126c-.12.09-.22.214-.295.344-.016.03.105.138.162.21.148-.122.294-.246.477-.4-.183-.084-.308-.18-.344-.154zm6.226-.247c-.111.16-.228.316-.33.483-.021.035.008.15.024.152.085.011.227.03.252-.011.099-.163.161-.347.237-.525l-.183-.1zm1.735-2.279c-.422.323-.623.669-.457 1.132.26.072.452.125.707.198l-.55 1.152-.07.144.365-.314.955-.823c-.2-.47-.355-.89-.56-1.282-.06-.112-.27-.147-.39-.207zm-5.971.63l-.1.232.037.104c.005.018.007.034.005.05-.016.15-.133.345.145.34.067 0 .133-.14.199-.217-.115-.085-.228-.171-.337-.257l.026-.126.025-.126zm1.546.159c-.107.11-.183.25-.269.38.086.044.217.146.252.119.118-.09.202-.225.304-.35-.122-.065-.267-.169-.287-.15zm-3.317-.66c-.89.552-.89.552-.487 1.06.391-.469.391-.469.487-1.06zm-.157-1.051c-.749.29-1.083.821-1.357 1.38l-.146.306c-.048.102-.096.203-.147.303.409-.677 1.383-.932 1.65-1.989zm6.336.41c-.134.177-.315.39-.082.58.37.303.617-.063.88-.242.081-.054.177-.238.15-.28-.284-.402-.607-.504-.948-.057zm-2.476-1.048c-.047.468-.54.832-.533 1.447l1.279-.804.253-.16v-.087c-.034-.585-.436-.556-.999-.396zm1.866.156l-.434.179-.417.171-.016.028c-.198.366-.149.657.413.855.148-.394.761-.518.454-1.233zm-4.278.23c-.138.14-.28.275-.41.424-.025.03-.012.147-.001.15.084.017.212.055.251.013.127-.131.221-.296.327-.447-.055-.046-.11-.094-.167-.14zm4.027-.91c.796.387 1.478.748 2.188 1.042.132.056.337-.062.523-.135l.09-.032-.158-.131c-1.294-1.07-1.56-1.133-2.643-.744zm-2.298-11.744c-1.091.401-2.044 1.075-2.389 2.285-.775 2.709-.299 5.229 1.271 7.54.176.26.51.487.815.567 1.531.396 3.522-.753 3.9-2.283.218-.88.283-1.798.417-2.7.135-1.465-.458-2.73-1.015-3.981-.488-1.097-1.946-1.815-2.999-1.428zm49.108.77c-.563.336-1.132.66-1.985 1.155-1.17 2.337-1.185 2.502-.374 5.055.111.35.184.723.363 1.035 1.014 1.76 2.057 2.233 3.736 1.788 1.923-.509 3.328-2.198 3.17-4.184-.167-2.087-.96-3.912-3.015-4.913-.678-.331-1.272-.31-1.895.064zM62.857 70.87c.166.123.4.219.515.393.288.44.605.889.762 1.38.404 1.261 1.145 2.314 1.855 3.399.866 1.324 1.689 2.677 2.515 4.027.147.24.25.521.315.796.078.335-.1.544-.5.635-.115-.165-.258-.346-.378-.54-.573-.942-1.145-1.886-1.707-2.832-.463-.784-.99-1.542-1.35-2.372-.539-1.243-1.146-2.43-2.004-3.481-.12-.15-.222-.314-.32-.48-.215-.367-.042-.635.297-.925zm-22.642-.355c-.028.205 0 .458-.098.643-.246.463-.489.958-.844 1.332-.908.957-1.476 2.115-2.086 3.26-.744 1.396-1.534 2.768-2.32 4.142-.141.245-.336.47-.547.658-.255.23-.523.17-.793-.138.09-.182.18-.394.294-.593.549-.956 1.1-1.91 1.661-2.858.462-.784.874-1.61 1.428-2.324.83-1.07 1.578-2.173 2.089-3.433.072-.176.168-.344.267-.51.217-.366.534-.34.949-.179zM55.59 34.068c.31.054.632.124.909.263 2.091 1.06 4.317 1.855 6.27 3.191.148.102.294.214.457.29 2.05.968 3.341 2.735 4.592 4.511 1.064 1.506 1.566 3.257 1.84 5.072.081.537.172 1.076.209 1.618.035.54.007 1.086.007 1.632.214 2.278-.608 4.326-1.617 6.248-1.281 2.448-2.767 4.794-4.883 6.638-1.4 1.224-2.923 2.283-4.584 3.118-.555.278-1.179.454-1.792.57-1.371.263-2.752.488-4.135.674-1.175.16-2.345-.053-3.506-.202-2.628-.338-5.114-1.11-7.312-2.648-1.713-1.2-3.23-2.617-4.486-4.304-1.127-1.514-1.854-3.216-2.269-5.044-.229-1.012-.405-2.05-.472-3.083-.086-1.363.115-2.714.554-4.015.088-.258.235-.498.296-.76.519-2.246 1.633-4.227 2.778-6.178 1.393-2.37 3.223-4.369 5.425-6.01.214-.161.467-.28.718-.377.88-.345 1.776-.654 2.652-1.008.975-.394 1.965-.673 3.026-.627l.092.01c.016.001.03 0 .043-.004 1.786-.563 3.472.12 5.188.425zm-4.977-.11c-1.286.108-2.492.36-3.665.854-.459.193-.903.42-1.369.591-1.12.41-2.08 1.06-2.984 1.835-1.136.973-1.724 2.427-2.966 3.316-.377.27-.583.8-.829 1.23-.427.749-.851 1.5-1.224 2.276-.393.814-.747 1.648-1.075 2.491-.123.317-.23.64-.332.965l-.3.976c-.548 1.752-.867 3.52-.428 5.354.127.528.198 1.068.313 1.6.372 1.7.996 3.297 2.014 4.721 1.498 2.093 3.365 3.797 5.564 5.104 1.931 1.15 4.081 1.686 6.292 1.956.985.121 1.986.253 2.969.19 1.3-.082 2.591-.335 3.881-.542.76-.123 1.508-.315 2.175-.722 1.001-.61 1.994-1.238 2.992-1.853.738-.455 1.39-1.016 1.958-1.667.68-.783 1.34-1.587 1.986-2.4.165-.207.248-.482.361-.728.626-1.356 1.259-2.711 1.87-4.074.941-2.1 1.557-4.256 1.017-6.591-.04-.176-.038-.36-.057-.541-.197-1.805-.56-3.54-1.317-5.233-.738-1.65-1.9-2.88-3.202-3.975-1.934-1.624-4.22-2.642-6.703-3.07-2.798-.48-5.605-.971-8.475-.796-.684.043-1.36.1-1.986.351-.659.264-1.3.571-1.943.875l-.6.281.012-.03.053-.174c.029-.085.064-.16.122-.197 1.19-.77 2.51-1.328 3.893-1.455 1.561-.145 3.155-.18 4.727.137 1.059.214 2.13.368 3.2.53.259.04.53.006 1.025.006-.367-.286-.55-.465-.766-.587-.64-.366-1.378-.403-2.067-.601-1.364-.394-2.708-.52-4.136-.402zM8.911 37.72c2.131.31 3.838 1.27 4.762 3.295.289.632.586 1.257.87 1.89 1.08 2.4.25 4.497-1.13 6.472-.25.36-.71.587-1.089.852-.317.22-.661.4-.987.61-.058.037-.086.12-.202.288.476.359.932.765 1.448 1.078 1.247.759 2.048 1.85 2.673 3.127.68 1.392 1.22 2.825 1.467 4.35.197 1.216.46 2.39 1.048 3.509.547 1.04.092 1.714-1.124 1.922-2.02.346-4.033.454-6.053-.027-.992-.237-1.98-.232-3.015-.089-1.772.245-3.568.342-5.359.436-1.288.07-1.927-.587-2.139-1.934-.282-1.8.235-3.507.577-5.235.119-.6.345-1.18.506-1.77.246-.9.556-1.76 1.332-2.377.178-.141.316-.342.443-.533.789-1.188 1.729-2.179 3.305-2.368-.956-1.337-1.794-2.438-2.55-3.588-.564-.86-.74-1.843-.683-2.872.093-1.639.561-3.186 1.256-4.652.772-1.636 2.79-2.655 4.644-2.384zM5.873 54.493c-1.438.97-2.78 2.005-3.614 3.504-.18.325-.357.666-.444 1.02-.268 1.087-.486 2.185-.737 3.273-.294 1.27.235 2.005 1.683 2.092.909.055 1.82.065 2.732.064l1.822-.005c.798-.002 1.597-.096 2.392-.065 2.015.084 3.989-.052 6.158-.82.04-.472.215-.948.091-1.34-.653-2.067-1.382-4.114-2.082-6.169-.495-1.454-1.689-2.149-3.187-2.381-1.686-.261-3.329-.174-4.814.827zm92.077-18.39c2.093.984 3.547 2.325 4.14 4.617.662 2.557.44 4.897-1.036 7.122-.412.62-.965 1.18-1.136 1.979 1.187.354 2.396.634 2.66 2.041l-.027-.02.178.31c.897 1.571 1.753 3.158 1.922 5.003.546.569.395 1.15-.065 1.642-.48.512-.208 1.018-.117 1.59-.386.343-.788.705-1.214 1.085-.563-.084-1.154-.07-1.665-.264-1.51-.575-3.032-.372-4.581-.268-2.315.153-4.638.216-6.959.256-.756.013-1.514-.172-2.287-.268L87 59.145c.068-.183.144-.373.209-.566.195-.584.509-1.16.557-1.754.16-1.978 1.266-3.474 2.491-4.909.35-.41.85-.705 1.306-1.017.45-.313.934-.583 1.515-.942-.415-.99-.866-1.912-1.19-2.876-.982-2.928-.95-5.824.579-8.587.36-.65.878-1.253 1.435-1.76 1.18-1.072 2.463-1.374 4.048-.631zM52.79 40.66c.319.054.67.195.905.408.546.492 1.077 1.016 1.526 1.594.727.94 1.116 1.985.626 3.188-.064.154-.077.332-.103.5-.241 1.566-.77 2.964-2.646 4.028 1.745.385 2.832 1.09 3.67 2.137.31.388.586.846.738 1.318.581 1.783 1.109 3.583 1.64 5.38.06.206.007.446.007.742-1.02.477-2.048.654-3.13.558-2.319-.208-4.64-.312-6.936.185-1.31.283-2.3-.384-3.28-1.057-.181-.124-.29-.504-.27-.753.08-1.017.205-2.032.349-3.043.122-.86.43-1.666.986-2.333 1.01-1.213 1.856-2.592 3.422-3.392-.494-.392-.895-.679-1.26-1.007-.658-.589-1.103-1.283-1.07-2.227.013-.37.01-.74.002-1.111l-.03-1.113c-.016-.702.15-1.34.557-1.927.385-.555.666-1.168 1.348-1.473.947-.423 1.898-.779 2.948-.602zm37.864 19.19l.212.307.48-.104c-.06-.08-.078-.195-.194-.229s-.328.014-.498.026zm-36.598-.705l-.285.24.209.207c.035.033.072.066.11.096.034.029.114.032.157.01.127-.064.244-.143.364-.217-.107-.103-.21-.213-.328-.306-.035-.029-.105-.015-.227-.03zm-6.123.08c-.055.01-.078.183-.116.28.146.03.293.093.433.077.056-.006.093-.182.164-.335-.176-.014-.334-.053-.48-.022zm48.478-1.719c-.454.473-.882.831-1.146 1.231-.104.158.116.424.274.614.154.188.812.177.946.01.382-.47.38-.796-.074-1.855zm4.73 1.19c-.5.037-.764.198-.728.447.008.056.278.154.296.147.304-.115.588-.244.882-.373-.246-.124-.364-.227-.45-.22zm-2.905.03c-.246.136-.332.164-.358.201-.074.108-.126.222-.186.333.2-.056.44-.095.584-.175.078-.044-.008-.159-.04-.359zm-4.298-1.058c-.128.153-.278.302-.372.46-.036.059.054.137.088.207.142-.045.34-.075.414-.14.158-.137.254-.294.374-.442-.168-.03-.336-.057-.504-.085zm-3.565.07l-.896.515c.764.053 1.326-.04.896-.516zm-41.476-.957c-.836.52-.826.527-.97 1.448.444-.503 1.016-.704.97-1.448zm39.446 1.024l-.029.072.054.014c.728.13.899-.493 1.188-.964l.034-.053-.12-.015c-.674-.054-.92.423-1.127.946zm10.397-3.273c-.188.009-.378-.02-.518.03-.156.056-.348.17-.378.281-.224.794-.412 1.592-.68 2.663 1.816-.605 1.73-1.493 1.627-2.359l-.024-.207c-.015-.138-.027-.274-.027-.408zm-6.779 2.256c-.196.072-.362.173-.484.278-.026.024.172.112.268.17l.78-.323c-.3-.07-.504-.145-.564-.125zm9.78-3.248c-.56.426-.827.882-.607 1.493l.938.26c-.267.554-.502 1.043-.73 1.522l-.091.19.33-.283L103 55.504c-.265-.62-.47-1.174-.744-1.692-.079-.149-.355-.194-.515-.272zM90 55.523c-.444.137-.542.36-.5.685l.054.334.051.308.007-.009.388-1.318zm10.126.233c-.182.13-.374.257-.54.392-.036.028.012.12.038.123.14.008.372.023.414-.01.081-.066.147-.136.209-.208l.18-.216-.3-.08zm-44.874-.632c-.492.207-.564.529-.314 1.115.468-.352.625-.662.314-1.115zm-3.113-.365c-.192.34-.381.59-.474.874-.044.134.098.329.172.545.556-.408.743-.787.302-1.42zm-2.167.489c-.358.038-.436.304-.398.61.012.096.108.185.165.277.055-.014.117-.014.164-.04.264-.154.432-.369.317-.689-.027-.076-.168-.167-.248-.158zm46.013-.424c-.088.045-.163.095-.234.148l-.208.16c.142.035.356.118.412.097.194-.074.332-.183.502-.284-.202-.052-.44-.136-.472-.12zm-40.057-.82c.083.958.089 1.012.587 1.118l.088.018-.076-.127-.599-1.009zM92 52.55c-1.021.323-1.407.952-1.767 1.581l-.154.269-.079.133c.494-.675 1.675-.93 2-1.983zm.61 1.058c-1.457.447-1.457.447-.795.858.64-.38.64-.38.796-.858zm2.239.134l-.166.19c.026.041.08.085.07.125-.026.119-.218.277.238.274.11 0 .218-.114.326-.175-.186-.07-.374-.14-.552-.21l.084-.204zm-39.928-.27c-.047.022-.126.032-.14.069-.073.181-.133.369-.188.558-.004.01.111.073.117.066.126-.147.256-.293.35-.46.022-.04-.089-.154-.139-.233zm-1.205-1.498l-.017-.07c.215.665-.436.98-.591 1.493-.071.232-.216.515.137.662.068-.033.138-.044.164-.082.318-.503.63-1.009.991-1.59l-.573-.345-.111-.068zm-.845-.565c-.497.535-.972 1.098-1.384 1.698-.156.226-.285.63.328.917.404-.796.799-1.67 1.686-2.046l.15-.056-.028-.11c-.161-.561-.45-.729-.752-.403zm2.32.748c.852.923.852.923 1.717 1.254l-.016.151-.016.142.023-.137.023-.145c-.389-.407-.767-.827-1.174-1.216-.143-.138-.348-.316-.556-.049zm41.454-.472c-.059.6-.654 1.067-.645 1.856l1.544-1.032.306-.206v-.096c-.034-.763-.522-.728-1.205-.522zm2.252.202l-.524.228-.505.22-.015.028c-.243.473-.186.846.496 1.101.18-.504.92-.663.548-1.577zm.482.996c-.222.142-.516.315-.136.468.606.245 1.012-.05 1.444-.196.132-.044.292-.193.244-.227-.462-.324-.994-.407-1.552-.045zm-5.168-1.075c-.226.115-.46.225-.672.344-.042.024-.02.119-.002.12.138.015.348.045.412.012.208-.107.362-.239.536-.361l-.274-.115zm-65.71-.802c.28-.01.575.037.844.117.328.097.422.357.304.749-.201.02-.427.056-.655.065-1.098.038-2.194.075-3.292.1-.906.02-1.82.11-2.715.014-1.343-.14-2.67-.191-4.003.042-.186.032-.38.039-.57.043-.425.008-.571-.275-.655-.714.187-.086.385-.243.592-.258.523-.035 1.067-.092 1.571.013 1.29.266 2.566.136 3.855.05 1.573-.107 3.149-.162 4.724-.22zm56.21 0c.28-.01.574.037.844.117.328.097.42.357.303.749-.2.02-.428.056-.655.065-1.097.038-2.193.075-3.291.1-.906.02-1.82.11-2.717.014-1.342-.14-2.668-.191-4.001.042-.187.032-.38.039-.571.043-.424.008-.57-.275-.655-.714.187-.086.385-.243.593-.258.523-.035 1.067-.092 1.57.013 1.29.266 2.566.136 3.855.05 1.572-.107 3.15-.162 4.725-.22zm14.389-.217c.98.465 1.82.896 2.693 1.249.167.068.425-.079.658-.167l.096-.032-.17-.138c-1.613-1.3-1.936-1.378-3.277-.912zM7.723 39.041c-.715.421-1.443.827-2.528 1.448-1.491 2.931-1.512 3.137-.478 6.34.142.438.235.908.464 1.299 1.292 2.208 2.621 2.799 4.762 2.24 2.453-.638 4.242-2.755 4.042-5.247-.212-2.617-1.224-4.905-3.846-6.16-.864-.416-1.62-.39-2.416.08zm88.523-2.227c-1.286.488-2.409 1.309-2.816 2.784-.914 3.301-.352 6.372 1.498 9.19.207.316.602.594.96.69 1.806.483 4.153-.916 4.597-2.781.258-1.073.334-2.193.492-3.291.16-1.786-.54-3.325-1.196-4.853-.575-1.334-2.294-2.21-3.535-1.74zm-45.082 11.58l-.31.296.296.306.13-.298c-.04-.102-.077-.203-.116-.304zm-2.054-1.246c-.062.696-.062.696.446.82l-.446-.82zm1.073-2.02c-.084.029-.224.088-.224.134.004.24.045.48.072.721l.24-.008c.01-.25.026-.5.026-.748 0-.036-.088-.108-.114-.1zm.995-1.623c-.54.371-.424.69-.026 1.146.264-.457.225-.78.026-1.146zm-1.422-.01c-.123.1-.263.189-.36.313-.026.034.078.173.12.263.13-.082.258-.161.38-.239l-.14-.337zm2.361-1.573c-.208.28-.346.581.04.84.38-.096.684-.599 1.15-.227-.228.832-.258.943-.137 1.324l.067.199c.652-.37.355-1.128.812-1.62-.414-.271-.73-.486-1.056-.687-.338-.208-.643-.143-.876.17zm17.918-19.319c-.027.206 0 .46-.098.643-.246.465-.488.958-.843 1.333-.908.957-1.477 2.114-2.086 3.258-.744 1.397-1.536 2.77-2.321 4.144-.142.245-.337.47-.546.659-.255.228-.525.169-.793-.14.089-.182.18-.394.293-.593.55-.955 1.1-1.91 1.662-2.858.462-.784.874-1.61 1.428-2.324.83-1.07 1.578-2.172 2.089-3.431.072-.178.168-.346.266-.51.218-.367.535-.341.949-.18zm-34.846-.932c.167.122.401.217.515.393.289.439.604.888.763 1.38.404 1.26 1.145 2.313 1.854 3.397.867 1.325 1.69 2.677 2.515 4.028.147.241.252.52.316.797.078.333-.102.543-.5.634-.117-.166-.258-.346-.378-.541-.573-.942-1.146-1.884-1.707-2.832-.463-.783-.99-1.541-1.35-2.371-.54-1.244-1.148-2.43-2.004-3.482-.12-.148-.222-.314-.32-.48-.215-.366-.042-.633.296-.923zM78.83.035c1.659.246 2.988 1.011 3.706 2.624.225.502.456 1 .678 1.505.84 1.911.194 3.58-.879 5.154-.196.287-.552.467-.848.678-.246.175-.515.319-.77.484-.044.031-.066.097-.155.23.37.287.725.61 1.125.86.971.604 1.594 1.472 2.08 2.489.531 1.11.95 2.249 1.142 3.464.154.969.359 1.903.816 2.795.426.828.072 1.365-.874 1.531-1.57.274-3.14.361-4.71-.022-.772-.188-1.543-.185-2.346-.07-1.38.194-2.778.27-4.171.348-1.004.055-1.5-.468-1.666-1.542-.218-1.433.183-2.792.449-4.168.094-.477.268-.938.394-1.41.191-.718.433-1.4 1.036-1.893.14-.112.247-.272.346-.424.613-.947 1.345-1.735 2.571-1.886-.743-1.064-1.395-1.941-1.984-2.858-.439-.685-.576-1.467-.531-2.288.073-1.303.436-2.536.976-3.703C75.82.631 77.388-.181 78.831.035zm-49.79.332c1.698.821 2.881 1.942 3.363 3.855.538 2.135.357 4.089-.843 5.947-.335.517-.783.984-.922 1.651l.304.093c.858.263 1.665.56 1.857 1.612l-.023-.019.167.298c.72 1.3 1.404 2.614 1.54 4.14.444.475.321.96-.052 1.372-.39.426-.17.85-.095 1.325l-.987.908c-.457-.07-.938-.06-1.352-.22-1.228-.482-2.464-.311-3.722-.225-1.88.128-3.769.181-5.654.214-.615.011-1.23-.143-1.858-.223l-.621-1.489c.056-.153.117-.311.17-.473.16-.487.414-.968.453-1.464.13-1.652 1.03-2.9 2.024-4.099.285-.342.69-.588 1.061-.85.366-.26.759-.486 1.23-.785-.336-.827-.703-1.597-.966-2.402-.798-2.446-.771-4.863.47-7.169.293-.544.714-1.047 1.166-1.47.959-.895 2.002-1.149 3.29-.527zM76.42 12.96c-1.091.794-2.107 1.64-2.739 2.864-.137.266-.272.544-.337.834-.204.887-.368 1.784-.559 2.675-.223 1.037.178 1.639 1.277 1.709 1.146.073 2.3.047 3.45.047.605 0 1.212-.078 1.814-.051 1.526.067 3.022-.044 4.666-.672.03-.385.164-.774.07-1.095-.494-1.689-1.048-3.362-1.578-5.04-.375-1.189-1.28-1.756-2.415-1.946-1.278-.214-2.524-.143-3.649.675zm-52.97 6.81l.13.381.292-.129c-.036-.098-.047-.241-.118-.283-.07-.04-.2.017-.304.032zm8.592-.419c-.305.045-.466.245-.444.554.005.067.17.19.18.181.186-.142.359-.3.538-.46-.15-.154-.222-.283-.274-.275zm-4.132-1.536c-.277.462-.538.814-.699 1.208-.063.154.071.416.167.602.094.184.496.173.577.01.233-.461.232-.783-.045-1.82zm1.5 1.029c-.15.168-.202.202-.218.249-.045.135-.077.274-.114.41.122-.068.269-.116.356-.215.048-.054-.004-.196-.024-.444zm-6.53-.337l-.546.637c.466.065.809-.049.547-.637zm3.047-.173c-.078.188-.17.372-.227.567-.022.074.033.17.054.258.087-.056.206-.093.252-.173.097-.17.155-.364.228-.548l-.307-.104zm-4.333.402l-.027.068.058.013c.49.078.613-.35.809-.682l.031-.052-.104-.011c-.453-.027-.625.3-.767.664zm7.843-2.937c-.095.045-.212.14-.23.23-.138.653-.252 1.31-.415 2.19 1.373-.617.963-1.591.96-2.446-.114.006-.23-.016-.315.026zm-6.683 1.313c-.312.098-.382.26-.351.493l.037.24.036.221.005-.006.273-.948zm1.683.128c-.12.088-.22.213-.295.343-.016.03.105.137.162.21l.477-.399c-.183-.086-.309-.181-.344-.154zm6.226-.25c-.111.16-.229.317-.33.484-.022.036.008.15.023.152.086.011.227.03.253-.011.099-.163.16-.347.236-.524l-.182-.1zm1.735-2.278c-.422.324-.623.669-.457 1.132l.707.198c-.201.42-.379.79-.55 1.152l-.07.143.249-.213 1.07-.923c-.2-.47-.354-.89-.56-1.281-.06-.113-.268-.148-.39-.208zm-5.97.63l-.102.232c.016.052.049.106.043.155-.016.148-.133.345.145.34.067 0 .133-.14.199-.216-.114-.087-.229-.173-.337-.259l.051-.253zm1.544.159c-.106.11-.183.251-.268.381.087.043.217.145.251.12.119-.092.203-.226.306-.352-.123-.065-.268-.169-.289-.15zm-3.317-.66c-.889.553-.889.553-.486 1.06.391-.468.391-.468.486-1.06zm-.156-1.05c-1.022.394-1.272 1.24-1.649 1.988.408-.677 1.382-.932 1.65-1.989zm6.337.41c-.136.177-.316.39-.083.58.37.303.617-.064.88-.242.08-.055.177-.239.149-.28-.283-.401-.606-.504-.946-.058zm-2.477-1.049c-.048.469-.54.832-.533 1.448l1.279-.805.253-.16-.001-.087c-.033-.585-.436-.555-.998-.396zm1.866.157l-.434.179-.419.171-.014.027c-.198.367-.15.657.413.855.148-.394.761-.518.454-1.232zm-4.278.229c-.138.14-.28.277-.41.425-.026.03-.012.146-.001.148.084.019.212.056.25.015.128-.132.222-.295.328-.447l-.167-.141zm4.027-.91c.796.387 1.478.748 2.187 1.042.133.056.337-.06.524-.134l.089-.033-.158-.131c-1.293-1.07-1.559-1.131-2.642-.744zM27.677.886c-1.092.4-2.044 1.074-2.39 2.284-.775 2.709-.298 5.23 1.272 7.54.175.26.51.489.814.567 1.532.396 3.523-.753 3.9-2.283.219-.88.283-1.798.417-2.7.136-1.463-.457-2.729-1.014-3.981-.488-1.096-1.947-1.815-2.999-1.427zM77.896.93c-.562.336-1.132.66-1.984 1.155-1.17 2.339-1.186 2.502-.375 5.056.111.349.184.723.364 1.034 1.013 1.762 2.056 2.233 3.735 1.788 1.923-.509 3.328-2.197 3.17-4.184-.166-2.088-.959-3.91-3.015-4.913-.678-.33-1.272-.31-1.895.064z" transform="translate(-135 -1321) translate(0 700) translate(0 571) translate(135 50) translate(97 49)"/>
                        </g>
                        <g fill="#121217">
                            <path d="M7.426 34.997c.538-.592 1.578.106 1.038.727-1.04 1.197-2.198 2.27-3.432 3.266C3.718 40.05 2.3 41.264.749 41.944c-.6.261-.986-.473-.585-.905 1.07-1.14 2.524-1.977 3.764-2.93 1.24-.955 2.443-1.954 3.498-3.113zm24.676.07c-.457-.75.737-1.46 1.267-.815.88 1.075 3.68 4.185 2.213 5.602-.23.22-.694.187-.885-.072-.459-.632-.66-1.484-1.05-2.17-.489-.86-1.027-1.698-1.545-2.544zm-12.439-.302c-.086-.846 1.106-1.085 1.229-.23.23 1.625.182 4.142-1.055 5.336-.332.321-.877-.004-.835-.464.072-.757.403-1.464.537-2.212.146-.803.206-1.616.124-2.43zm11.465-22.701c.554-.283 1.112.434.764.978-.467.728-1.033 1.4-1.674 2.01-.856 1.395-1.846 2.703-2.469 4.254-1.517 3.783-1.088 7.048 1.533 10.22.475.574.134 1.209-.392 1.41.353.347.682.73.984 1.149.39.545-.197 1.14-.792.83-3.298-1.723-5.851-3.355-9.766-3.12-2.32.14-4.466.831-6.638 1.502-.452.597-.97 1.128-1.556 1.577-.458.35-1.103-.076-.912-.668.037-.113.074-.225.113-.336-.41-.169-.45-.873-.003-1.126.18-.102.366-.202.554-.3.985-2.343 2.17-4.446 2.279-7.225.15-3.9-1.536-6.64-4.033-9.346-.34-.368.104-1.051.555-.83 1.383.68 2.502 1.777 3.35 3.124.09-.29.421-.5.758-.302 3.38 1.978 7.03 1.809 10.553.367 2.503-1.023 4.42-2.96 6.792-4.168zm-17.648 4.9l.115.224c1.746 3.55 1.88 8.34.315 11.972 4.163-1.405 9.17-1.76 12.86.218-2.197-3.26-2.299-7.962-.584-11.687-4.208 1.843-9.344 1.861-12.706-.727zM2.526 23.137c1.463-.264 3.266-.244 4.346.954.318.353-.002.963-.47.905-.594-.074-1.116-.355-1.699-.481-.646-.14-1.296-.142-1.95-.08-.83.078-1.07-1.148-.227-1.298zM34.676 21l.1.005c1.214.142 2.388.409 3.572.705 1.107.278 2.454.455 3.392 1.11.463.326.263.967-.25 1.096-1.075.272-2.29-.179-3.323-.485-1.234-.365-2.455-.78-3.708-1.087-.797-.196-.469-1.43.316-1.34zM16.202 5.557c.16-.806 1.552-.713 1.462.12-.14 1.287.434 2.606.19 3.863-.096.498-.846.645-1.122.174-.656-1.123-.776-2.917-.53-4.157zM45.843.504c.369-.634 1.456-.053 1.123.6-1.539 3.016-3.838 6.019-6.5 8.094-.468.363-1.103-.202-.765-.71 1.87-2.81 4.425-5.034 6.142-7.984zM.187.954c-.6-.552.385-1.294.982-.782C2.487 1.308 3.81 2.436 5.117 3.587c1.278 1.124 2.755 2.21 3.768 3.558.36.48-.194 1.087-.742.765-1.457-.857-2.667-2.148-3.906-3.258C2.874 3.433 1.533 2.19.187.954z" transform="translate(-135 -1321) translate(0 700) translate(0 571) translate(135 50) translate(231.5 9)"/>
                        </g>
                    </g>
                </g>
            </g>
        </g>
    </g>
</svg>
