<svg xmlns="http://www.w3.org/2000/svg" width="296" height="274" viewBox="0 0 296 274">
    <defs>
        <filter id="482nzm7tba" width="141%" height="170.8%" x="-20.5%" y="-35.4%" filterUnits="objectBoundingBox">
            <feGaussianBlur in="SourceGraphic" stdDeviation="10.08"/>
        </filter>
    </defs>
    <g fill="none" fill-rule="evenodd">
        <g>
            <g>
                <g>
                    <g>
                        <g transform="translate(-135 -1697) translate(0 700) translate(0 947) translate(135 50)">
                            <path fill="#CED6E7" d="M147.34 239C217.48 239 275 223.364 275 153.5S218.14 27 148 27 21 83.636 21 153.5 77.2 239 147.34 239z"/>
                            <path fill="#E0E5EF" d="M148 273.766c74.006 0 134-24.123 134-98.083S222.006 41.766 148 41.766 14 101.723 14 175.683c0 73.96 59.994 98.083 134 98.083z" transform="rotate(-180 148 157.766)"/>
                            <path fill="#F0F3F9" d="M148 255.533c81.738 0 148-26.571 148-108.033S229.738 0 148 0 0 66.038 0 147.5s66.262 108.033 148 108.033z"/>
                            <circle cx="54.5" cy="32.5" r="5.5" fill="#FFDA00"/>
                        </g>
                        <g>
                            <g fill="#2F3E5B" opacity=".098">
                                <path d="M139.933 32.073c10.204 5.89 10.257 15.44.12 21.332L92.464 81.06c-10.138 5.892-26.625 5.892-36.829 0L7.738 53.406c-10.204-5.891-10.259-15.442-.12-21.333L55.204 4.419c10.137-5.892 26.625-5.892 36.83-.001l47.898 27.655z" filter="url(#482nzm7tba)" transform="translate(-135 -1697) translate(0 700) translate(0 947) translate(135 50) translate(56 84) translate(18.749 60.92)"/>
                            </g>
                            <g fill="#CED6E7">
                                <path d="M175.654 14.142l-59.698 34.693c-12.718 7.39-33.401 7.39-46.203 0L9.664 14.143C3.224 10.423.006 5.543.02.67L0 7.573c-.013 4.875 3.203 9.756 9.645 13.475L69.734 55.74c12.802 7.391 33.484 7.391 46.202 0l59.698-34.692c6.319-3.673 9.481-8.477 9.495-13.29l.02-6.903c-.014 4.81-3.177 9.615-9.495 13.287" transform="translate(-135 -1697) translate(0 700) translate(0 947) translate(135 50) translate(56 84) translate(0 53.964)"/>
                            </g>
                            <g fill="#FFF">
                                <path d="M175.503 40.603c12.802 7.39 12.87 19.372.151 26.762l-59.699 34.693c-12.717 7.39-33.4 7.39-46.201 0L9.664 67.366c-12.8-7.391-12.868-19.372-.15-26.763L69.213 5.91c12.718-7.392 33.4-7.392 46.201 0l60.09 34.692z" transform="translate(-135 -1697) translate(0 700) translate(0 947) translate(135 50) translate(56 84) translate(0 .742)"/>
                            </g>
                        </g>
                        <g fill="#121217">
                            <path d="M64.584 76.59c-.288-.344.238-.786.528-.45 6.224 7.25 13.37 13.733 19.295 21.227.311.39-.25.86-.588.498C77.325 90.873 70.7 83.92 64.584 76.59zM46.61 71.638c-.259-.331.234-.751.498-.423 6.713 8.355 13.333 16.847 19.473 25.634.28.4-.277.894-.588.498-6.618-8.444-12.774-17.25-19.383-25.709zM20.827 61.191c-.277-.435.45-.77.724-.344C26.478 68.55 31.664 76.07 36.74 83.673c.263.395-.286.883-.573.486-5.418-7.435-10.4-15.211-15.34-22.968zm38.605 1.56c-.379-.381.257-.912.63-.538 6.349 6.357 12.97 12.596 18.958 19.29.285.316-.184.849-.507.558-4.02-3.62-7.795-7.547-11.547-11.49l-2.499-2.628c-1.667-1.749-3.339-3.488-5.035-5.192zM13.305 2.206C19.555-.595 28.929.3 32.73 6.691c.132.223.07.412-.073.53 6.12 3.207 10.696 8.887 10.48 15.651C52 33.112 59.948 44.285 68.27 54.97l-1.317-1.7c.783-.375 1.7-.477 2.6-.22 1.957.56 3.091 2.598 2.532 4.554-.558 1.955-2.598 3.09-4.553 2.53-1.955-.558-3.089-2.596-2.53-4.553.076-.265.18-.515.306-.749-8.12-7.802-16.173-15.676-24.297-23.475-.018-.018-.034-.035-.049-.053-.705 1.812-1.754 3.462-3.056 4.919.049.032.095.078.137.14 7.713 11.538 15.749 22.853 23.46 34.393l-1.46-2.168c.264-.092.542-.154.832-.184 2.023-.206 3.832 1.267 4.037 3.291.208 2.023-1.266 3.832-3.29 4.038-2.024.207-3.831-1.267-4.038-3.291-.095-.93.165-1.815.671-2.52-8.742-9.637-17.948-19.047-26.084-29.182-.02-.024-.035-.047-.05-.071-2.312 1.212-4.862 2.039-7.455 2.413 1.288 2.431 2.581 4.86 3.877 7.286l8.635 16.147 3.031 5.696c.27-.063.55-.096.839-.096 2.033 0 3.684 1.65 3.684 3.684 0 2.034-1.651 3.683-3.684 3.683-2.034 0-3.684-1.649-3.684-3.683 0-.936.349-1.79.924-2.44-7.71-10.466-15.865-20.765-22.961-31.642l.494.75c-1.09-.34-2.143-.787-3.142-1.346-.152-.085-.228-.205-.247-.332-13.21-4.762-11.299-27.254-.43-33.88 5.577-3.4 12.895-3.139 19.036-.465-5.021-4.186-10.802-5.532-17.23-3.179-.697.255-1.2-.744-.503-1.059zm11.148 42.727c-.941 1.11-2.573 1.739-4.071 1.71 6.265 8.114 12.117 16.618 18.13 24.911-5.18-9.55-10.201-19.182-15.203-28.824zm14.487-5.347c-.855 1.476-2.406 2.73-4.171 2.708l.208-.006C43.047 50.5 50.536 59.398 58.203 68 51.127 57.741 44.1 47.443 37.253 37.033zm17.363-8.867c-.284-.36.257-.819.542-.46C66.575 42.44 78.24 52.869 88.1 64.927c.323.394-.272.897-.604.512-3.965-4.624-8.127-9.072-12.303-13.506l-2.783-2.956c-5.563-5.915-11.077-11.871-16.107-18.258zm-10.05-1.907l-.035.079c-.607 1.294-1.681 2.644-2.984 3.15 8.398 7.93 16.779 15.884 24.989 24.008l-2.944-2.9c-6.344-8.078-12.93-16.062-19.027-24.337zM19.605 44.457l-.22.029c-.185.024-.35.135-.462.283l.101.127.133.171.11-.12.258-.28.054.013c-.006-.076.002-.151.026-.223zm18.575-28.93l-.294.359C30.05 25.349 18.291 31.495 5.872 31.173l.423.008c1.347 4.006 4.084 7.35 8.351 8.858.293.104.42.375.415.643 5.203 1.336 10.389 1.274 15.405-1.242 6.381-3.2 8.28-8.512 10.142-14.81-.264-3.309-.934-6.377-2.427-9.103zM4.9 10.138c.303-.42.937.03.656.46-5.486 8.45-5.804 17.521-.022 25.877.293.423-.245.886-.61.518-7.4-7.424-5.67-18.968-.024-26.855zm19.666 24.695c.557-.076.896.797.316.986-2.934.954-6.244.76-9.29.689-.61-.016-.5-.92.09-.934 3.012-.073 5.905-.331 8.884-.74zm18.85-9.484l-.029.036-.223.01c-.11.006-.222.01-.333.015-.062.313-.137.627-.222.943.177.341.393.658.645.96l.033.038-.03.01c-.09.029-.173.072-.25.13-.44.338-.816.713-1.175 1.108-.038.09-.087.16-.143.214-.054.271-.115.54-.183.806l.215.113v.056c.012.205.101.403.236.563l.05.055-.013.053c-.03.168.02.33.12.456l.031.037-.03.006-.025.003.224.21.073-.05c-.083-.034-.158-.084-.22-.146l-.022-.023.064-.01c.154-.035.296-.109.407-.228l.003-.005-.074-.007c-.195-.03-.382-.136-.528-.285l-.01-.01.008-.033c.009-.028.02-.056.035-.085l.05-.084.142-.2-.52-.273V29.7c.005-.117.038-.236.104-.348l.056-.084c.335-.445.619-.889.857-1.392l.347.242.248-.215.182-.15.03-.12-.085-.084-.174-.198.06-.015c.03-.007.06-.012.091-.016l.013-.002-.06-.138c-.1-.252-.169-.522-.213-.81l-.028-.22c-.028-.258.057-.513.207-.724l.03-.04.371-.016-.125-.177-.024-.034c-.07.056-.135.12-.193.19zm1.025.975l-.285.05-.309.053-.145.586-.076.301.092.01c.062.009.123.023.183.041l.065.023-.179.14-.153.126-.067-.107-.02.085.007.008.05.04-.088.072-.143.567.096.068.014.01-.049.071-.148.198v.005l-.334 1.263.112.101-.03.04c-.054.075-.107.152-.156.23l-.143.243c-.017.032-.035.061-.055.089l-.06.072c.206.011.406-.06.578-.24.465-.492.949-.959 1.454-1.404.095-.15.179-.307.255-.467l.034-.075c-.14.033-.288.028-.436-.027l-.025-.01.032-.072c.061-.167.064-.323.023-.463l-.028-.078.172.122.377.263c.1-.254.184-.517.252-.787l-.01.038-.13-.178c-.142.272-.376.453-.636.53l-.028.005-.038-.074c-.102-.175-.276-.313-.477-.395l-.023-.009.286-.223c.196-.15.449-.19.687-.15l-.498-.69zm-1.877 3.255l-.026.035c-.076.096-.15.193-.224.29l-.072.101.609.319.101-.39-.388-.355zm1.24-1.683l.124.146c.095.104.2.204.315.3.057.047.115.086.174.116l.063.027-.013.03c-.255.509-.532.987-.86 1.444l-.255.34-.288-.264.139-.177c.292-.354.631-.664.996-.96l-.716-.502.157-.229.164-.27zm-38.333-.32c.108.832.267 1.653.478 2.453l.031-.002c.515.001 1.027-.008 1.535-.027-.018-.034-.032-.07-.043-.11-.197-.698-.365-1.467-.49-2.273-.605 0-1.208-.019-1.806-.059zm30.788-14.82l-.025.033c-.4.54-.824 1.07-1.268 1.59.022.065.034.135.036.212.006.41-.028.7.348.92.413.24.168.788-.199.899-.736.218-1.103-.237-1.275-.817-6.405 6.78-16.335 11.573-25.591 11.994.046.696.127 1.4.254 2.116.016.09.013.173-.005.245 11.672-.76 21.247-6.908 28.864-15.704-.345-.51-.724-1.007-1.14-1.489zm6.827 15.362l-.194.171c-.292.262-.577.531-.856.81l.528.48.201-.25c.152-.19.305-.377.452-.57l.07-.093.086-.347-.287-.2zm.916-.597l.496.347-.076.018c-.185.034-.378.016-.56-.056l-.016-.009.156-.3zM32.948 9.79c-5.84-4.09-13.567-4.669-19.718-.944-5.617 3.402-8.424 10.88-7.86 17.758.494-.072.98-.15 1.461-.23-.21-2.248-.053-4.63.745-6.453.211-.48.908-.32.888.203-.08 2.058-.26 4.015-.237 6 10.99-2.059 19.103-6.207 27.347-14.536l-.208.209c-.712-.705-1.514-1.375-2.418-2.007zm11.07 15.942l-.168.683.429-.2.064-.03c-.109-.15-.217-.302-.325-.453zm-8.69-5.285c-.465-.571.36-1.25.864-.733.682.702 1.039 1.651.7 2.61-.125.357-.722.427-.863.039-.245-.68-.216-1.323-.7-1.916zm-22.674-8.439c.37-.13.847.18.665.61-.194.463-.537.793-.923 1.102-.325.26-.933.604-1.034 1.025-.17.72-1.225.386-1.198-.273.047-1.15 1.516-2.122 2.49-2.464zm4.86-3.46c3.498-1.836 10.797-.51 13.048 2.907.294.446-.148.939-.619.68-4.06-2.225-7.422-3.587-12.14-2.684-.548.105-.754-.658-.29-.903z" transform="translate(-135 -1697) translate(0 700) translate(0 947) translate(135 50) translate(99 52)"/>
                        </g>
                        <g fill="#121217">
                            <path d="M7.426 34.997c.538-.592 1.578.106 1.038.727-1.04 1.197-2.198 2.27-3.432 3.266C3.718 40.05 2.3 41.264.749 41.944c-.6.261-.986-.473-.585-.905 1.07-1.14 2.524-1.977 3.764-2.93 1.24-.955 2.443-1.954 3.498-3.113zm24.676.07c-.457-.75.737-1.46 1.267-.815.88 1.075 3.68 4.185 2.213 5.602-.23.22-.694.187-.885-.072-.459-.632-.66-1.484-1.05-2.17-.489-.86-1.027-1.698-1.545-2.544zm-12.439-.302c-.086-.846 1.106-1.085 1.229-.23.23 1.625.182 4.142-1.055 5.336-.332.321-.877-.004-.835-.464.072-.757.403-1.464.537-2.212.146-.803.206-1.616.124-2.43zm11.465-22.701c.554-.283 1.112.434.764.978-.467.728-1.033 1.4-1.674 2.01-.856 1.395-1.846 2.703-2.469 4.254-1.517 3.783-1.088 7.048 1.533 10.22.475.574.134 1.209-.392 1.41.353.347.682.73.984 1.149.39.545-.197 1.14-.792.83-3.298-1.723-5.851-3.355-9.766-3.12-2.32.14-4.466.831-6.638 1.502-.452.597-.97 1.128-1.556 1.577-.458.35-1.103-.076-.912-.668.037-.113.074-.225.113-.336-.41-.169-.45-.873-.003-1.126.18-.102.366-.202.554-.3.985-2.343 2.17-4.446 2.279-7.225.15-3.9-1.536-6.64-4.033-9.346-.34-.368.104-1.051.555-.83 1.383.68 2.502 1.777 3.35 3.124.09-.29.421-.5.758-.302 3.38 1.978 7.03 1.809 10.553.367 2.503-1.023 4.42-2.96 6.792-4.168zm-17.648 4.9l.115.224c1.746 3.55 1.88 8.34.315 11.972 4.163-1.405 9.17-1.76 12.86.218-2.197-3.26-2.299-7.962-.584-11.687-4.208 1.843-9.344 1.861-12.706-.727zM2.526 23.137c1.463-.264 3.266-.244 4.346.954.318.353-.002.963-.47.905-.594-.074-1.116-.355-1.699-.481-.646-.14-1.296-.142-1.95-.08-.83.078-1.07-1.148-.227-1.298zM34.676 21l.1.005c1.214.142 2.388.409 3.572.705 1.107.278 2.454.455 3.392 1.11.463.326.263.967-.25 1.096-1.075.272-2.29-.179-3.323-.485-1.234-.365-2.455-.78-3.708-1.087-.797-.196-.469-1.43.316-1.34zM16.202 5.557c.16-.806 1.552-.713 1.462.12-.14 1.287.434 2.606.19 3.863-.096.498-.846.645-1.122.174-.656-1.123-.776-2.917-.53-4.157zM45.843.504c.369-.634 1.456-.053 1.123.6-1.539 3.016-3.838 6.019-6.5 8.094-.468.363-1.103-.202-.765-.71 1.87-2.81 4.425-5.034 6.142-7.984zM.187.954c-.6-.552.385-1.294.982-.782C2.487 1.308 3.81 2.436 5.117 3.587c1.278 1.124 2.755 2.21 3.768 3.558.36.48-.194 1.087-.742.765-1.457-.857-2.667-2.148-3.906-3.258C2.874 3.433 1.533 2.19.187.954z" transform="translate(-135 -1697) translate(0 700) translate(0 947) translate(135 50) translate(231.5 9)"/>
                        </g>
                    </g>
                </g>
            </g>
        </g>
    </g>
</svg>
