<svg xmlns="http://www.w3.org/2000/svg" width="296" height="274" viewBox="0 0 296 274">
    <defs>
        <filter id="x03hv9v99a" width="141%" height="170.8%" x="-20.5%" y="-35.4%" filterUnits="objectBoundingBox">
            <feGaussianBlur in="SourceGraphic" stdDeviation="10.08"/>
        </filter>
    </defs>
    <g fill="none" fill-rule="evenodd">
        <g>
            <g>
                <g>
                    <g>
                        <g transform="translate(-135 -2073) translate(0 700) translate(0 1323) translate(135 50)">
                            <path fill="#CED6E7" d="M147.34 239C217.48 239 275 223.364 275 153.5S218.14 27 148 27 21 83.636 21 153.5 77.2 239 147.34 239z"/>
                            <path fill="#E0E5EF" d="M148 273.766c74.006 0 134-24.123 134-98.083S222.006 41.766 148 41.766 14 101.723 14 175.683c0 73.96 59.994 98.083 134 98.083z" transform="rotate(-180 148 157.766)"/>
                            <path fill="#F0F3F9" d="M148 255.533c81.738 0 148-26.571 148-108.033S229.738 0 148 0 0 66.038 0 147.5s66.262 108.033 148 108.033z"/>
                            <circle cx="54.5" cy="32.5" r="5.5" fill="#FFDA00"/>
                        </g>
                        <g>
                            <g fill="#2F3E5B" opacity=".098">
                                <path d="M139.933 32.073c10.204 5.89 10.257 15.44.12 21.332L92.464 81.06c-10.138 5.892-26.625 5.892-36.829 0L7.738 53.406c-10.204-5.891-10.259-15.442-.12-21.333L55.204 4.419c10.137-5.892 26.625-5.892 36.83-.001l47.898 27.655z" filter="url(#x03hv9v99a)" transform="translate(-135 -2073) translate(0 700) translate(0 1323) translate(135 50) translate(56 84) translate(18.749 60.92)"/>
                            </g>
                            <g fill="#CED6E7">
                                <path d="M175.654 14.142l-59.698 34.693c-12.718 7.39-33.401 7.39-46.203 0L9.664 14.143C3.224 10.423.006 5.543.02.67L0 7.573c-.013 4.875 3.203 9.756 9.645 13.475L69.734 55.74c12.802 7.391 33.484 7.391 46.202 0l59.698-34.692c6.319-3.673 9.481-8.477 9.495-13.29l.02-6.903c-.014 4.81-3.177 9.615-9.495 13.287" transform="translate(-135 -2073) translate(0 700) translate(0 1323) translate(135 50) translate(56 84) translate(0 53.964)"/>
                            </g>
                            <g fill="#FFF">
                                <path d="M175.503 40.603c12.802 7.39 12.87 19.372.151 26.762l-59.699 34.693c-12.717 7.39-33.4 7.39-46.201 0L9.664 67.366c-12.8-7.391-12.868-19.372-.15-26.763L69.213 5.91c12.718-7.392 33.4-7.392 46.201 0l60.09 34.692z" transform="translate(-135 -2073) translate(0 700) translate(0 1323) translate(135 50) translate(56 84) translate(0 .742)"/>
                            </g>
                        </g>
                        <g fill="#121217">
                            <path d="M22.404 84.446c-4.29-.085-8.211-.99-11.652-2.69-.689-.34-1.321-.764-1.834-1.228-.769-.694-1.218-1.514-1.418-2.583l-.05-.263c-.368-2-.748-4.07-1.543-6.022-.233-.574-.384-1.185-.437-1.76-.131-1.415-.23-2.833-.328-4.25-.051-.713-.1-1.425-.155-2.136-.027-.352-.061-.7-.098-1.049-.041-.422-.085-.843-.113-1.267-.073-1.156-.136-2.313-.165-3.47-.003-.125.048-.285.114-.508.005-.011.007-.027.012-.042l1.532.473c1.53.476 2.973.921 4.42 1.353l.63.19c1.145.347 2.328.704 3.52.962 2.305.504 4.619.98 6.93 1.456 1.558.32 3.115.64 4.67.97l.663.141c2.539.538 5.165 1.095 7.815 1.313.233.02.468.064.726.115.401.074.599.28.638.67.107 1.007.199 2.015.294 3.021l.078.845c.02.21.032.416.046.624.03.442.06.9.148 1.353.347 1.785 1.256 2.61 3.135 2.843.945.115 1.846-.065 2.864-.544.797-.376 1.285-1.138 1.338-2.088.02-.4.003-.8-.014-1.2l-.015-.391c-.01-.303-.027-.604-.04-.906-.033-.59-.065-1.197-.048-1.787.027-.97.166-1.086.936-1.306.995-.28 1.996-.532 2.998-.782.504-.127 1.006-.255 1.51-.384.567-.146 1.136-.285 1.706-.423 1.306-.316 2.654-.643 3.952-1.073 3.047-1.011 6.31-2.128 9.53-3.437 1.753-.713 3.462-1.592 5.114-2.44.577-.296 1.153-.591 1.73-.88.409-.204.8-.44 1.196-.684.498-.302 1.01-.612 1.578-.863.064.142.113.267.117.36.05 1.156.058 2.317.06 3.473.001.894-.002 1.787-.007 2.678-.004 1.12-.009 2.239-.004 3.355.01 2.486-.194 5.128-.622 8.075-.224 1.537-.415 3.082-.604 4.626l-.025.204c-.253 2.062-1.484 3.352-3.657 3.834-2.062.459-3.74.856-5.283 1.247-1.785.456-3.666.63-5.102.733-1.482.104-3.004.123-4.473.14-.64.008-1.282.015-1.924.028l-.235.004c-.19.002-.38.003-.573.022-.753.073-1.506.141-2.262.207-1.862.167-3.79.335-5.678.609-.733.104-1.503.153-2.423.153-.586 0-1.171-.019-1.758-.044-.647-.027-1.3-.01-1.956.01l-.582.015c-.392.009-.787.024-1.178.041l-.58.024c-.719.025-1.438.063-2.157.1-1.644.082-3.34.168-5.003.131-1.028-.024-2.055.014-3.077.051-.977.034-1.953.07-2.927.051m-7.412-61.905c1.4.176 3.077.05 4.615-.1.56-.057 1.117-.111 1.675-.15.841-.055 1.703-.174 2.56-.356 1.804-.38 3.679-.386 5.49-.389.472 0 .94-.002 1.407-.008.987-.016 1.975-.077 2.963-.138.44-.027.88-.053 1.319-.077l.568-.035c.362-.026.724-.051 1.147-.051h.007l.733.003c.67 0 1.338-.007 2.008-.014.666-.006 1.332-.013 1.999-.013 1.569 0 3.43.032 5.317.279.475.06.966.054 1.449.017l4.86-.386c2.642-.213 5.285-.425 7.93-.62.55-.042 1.102-.052 1.655-.052l1.62.009 3.044-.005c1.124 0 2.251.005 3.375.02 2.258.032 3.363.821 3.942 2.813.684 2.352 1.257 4.482 1.335 6.744l.02.585c.075 2.171.151 4.418.355 6.618.28 3.067.026 6.175-.222 9.18l-.082 1.007c-.063.794-.08 1.574-.087 2.166-.005.578-.207 1.023-.634 1.402-.153.14-.302.282-.452.427-.32.307-.619.598-.955.822-2.23 1.476-4.126 2.607-5.964 3.555-2.757 1.421-5.72 2.469-8.587 3.48-1.507.534-3.065 1.083-4.58 1.683-1.22.483-2.551.797-3.836 1.102l-.408.097c-1.704.404-3.453.761-5.143 1.106l-.736.152c-.165.032-.345.021-.55.011-.026 0-.05-.001-.075-.003l-.033-.194c-.06-.346-.114-.67-.16-.994-.295-2.103-1.55-3.26-3.626-3.353l-.217-.005c-.585 0-1.163.102-1.722.198l-.262.047c-1.092.182-1.714.893-1.753 2-.01.285-.044.569-.081.88l-.023.204-.093.02c-.189.041-.366.082-.513.082l-.12-.01c-2.01-.262-4.09-.532-6.113-.886-.98-.172-1.975-.403-2.937-.627-.597-.14-1.195-.28-1.794-.405-.675-.144-1.351-.274-2.028-.406-.595-.114-1.192-.228-1.787-.354-.236-.047-.469-.127-.7-.206l-.365-.118-.026.07.012-.065c-.536-.1-1.071-.196-1.608-.293-2.334-.415-4.748-.846-7.006-1.724-.875-.34-1.79-.595-2.676-.843-.897-.25-1.824-.508-2.69-.853l-.642-.252c-1.681-.658-1.681-.658-1.861-1.72-.06-.352-.135-.796-.265-1.374-.21-.913-.27-1.897-.329-2.846-.02-.318-.04-.634-.064-.95-.216-2.71-.418-5.42-.602-8.133-.076-1.145-.155-2.499-.157-3.852-.001-1.909.013-3.818.026-5.727.01-1.59.022-3.183.024-4.774.002-1.326.661-2.11 2.08-2.468 1.374-.349 2.831-.514 4.24-.677l.301-.034c1.04-.119 2.108-.16 3.145-.2l1.148-.051c.736-.04 1.476-.082 2.195.012m21.007-9.215c1.008-.108 2.04-.222 3.032-.139.677.058 1.355.099 2.035.138 2.472.148 5.027.3 7.37 1.326 1.6.7 2.557 1.457 3.155 2.495l-1.16 2.243c-1.451.246-2.774.326-4.129.24-5.015-.307-9.137-.296-13.08.032-.122.008-.246.029-.37.047-.141.024-.272.05-.512.043-.78-.089-1.62-.133-2.57-.133-.988 0-1.976.046-2.963.092l-.337.019c-.036-.007-.073-.024-.119-.041-.019-.007-.037-.015-.06-.02l-1.116-1.947c.362-.86.953-1.493 1.893-2.031 2.241-1.29 4.72-2.022 7.576-2.233.45-.032.902-.081 1.355-.13m6.312 50.821c.017.163.032.33.05.495l-.134.007.046 1.907c.027 1.166.056 2.336.077 3.502.02.991-.303 1.387-1.279 1.562-.17.032-.346.043-.516.05l-.147.003c-1.038 0-1.542-.439-1.691-1.472-.167-1.165-.255-2.336-.332-3.434-.108-1.603-.187-3.208-.263-4.813-.043-.901.13-1.112 1.035-1.261.337-.056.65-.084.933-.084.106 0 .208.002.312.01.841.069 1.502.645 1.642 1.434.122.685.195 1.4.267 2.094M78.38 38.912l-.04-.405c-.02-.258-.05-.514-.083-.772-.037-.318-.075-.637-.093-.957l-.065-1.074c-.11-1.838-.22-3.678-.287-5.517-.089-2.38-.656-4.716-1.156-6.78-.325-1.33-1.022-2.381-1.66-3.236-.668-.89-1.557-1.362-2.643-1.406-.133-.005-.265-.017-.4-.026-.195-.017-.39-.034-.586-.034-2.504.004-5.008.012-7.51.02l-4.358.01c-.389-.827-1.083-1.305-1.757-1.769l-.262-.182c-.47-.33-.784-.639-.964-.945-1.382-2.38-3.172-4.073-5.472-5.173-.038-.017-.152-.07-.21-.13-.761-.745-1.76-.956-2.544-1.058-2.105-.272-3.84-.422-5.46-.475L42.653 9c-.54 0-1.08.078-1.598.153-.513.075-.998.144-1.518.144h-.002l-.41-.001c-2.658 0-5.298.231-7.775.467-1.744.167-3.74.435-5.391 1.513-2.711 1.772-4.447 3.67-5.469 5.977-.233.522-.46.903-.875 1.185-.79.538-1.218 1.253-1.284 2.134-.82.044-1.623.092-2.416.14-2.255.132-4.386.256-6.53.324-1.665.053-3.168.12-4.703.413-1.098.207-2.106.634-3.17 1.338-.835.553-1.31 1.367-1.403 2.42-.03.317-.032.637-.036.956l-.01.758c-.082 5.136-.168 10.445.316 15.671.158 1.703.286 3.41.413 5.117.11 1.457.22 2.915.347 4.372.077.88.262 1.748.442 2.588l.032.143c.075.367.243.853.595 1.091.52.35.572.836.592 1.54.008.315.007.63.003.947-.005.661-.012 1.343.085 2.018.228 1.584.322 3.215.41 4.79.077 1.345.155 2.736.32 4.127.105.89.214 1.81.426 2.7.153.638.328 1.27.5 1.903.398 1.454.813 2.956.939 4.478.07.841.44 1.634 1.164 2.492.864 1.023 1.751 1.732 2.715 2.168 1.596.72 3.184 1.33 4.529 1.83 2.052.764 4.342 1.175 6.997 1.257.779.024 1.559.032 2.337.032 1.537 0 3.072-.036 4.61-.075l2.012-.044c.46-.008.921-.05 1.38-.097.446-.04.89-.083 1.335-.09 1.404-.024 2.808-.036 4.212-.046 1.45-.008 2.899-.02 4.35-.046 1.352-.025 2.675-.114 3.904-.207.915-.068 1.83-.15 2.742-.231 1.343-.118 2.686-.237 4.03-.315 1.725-.102 3.448-.168 5.174-.234 1.057-.041 2.115-.082 3.172-.13.238-.011.473-.054.707-.102.21-.039.418-.081.63-.086 1.303-.03 2.55-.34 3.758-.638.782-.192 1.591-.39 2.39-.506.823-.121 1.67-.317 2.518-.584 2.944-.92 4.534-2.658 4.853-5.314.077-.625.162-1.25.245-1.876.107-.79.214-1.578.303-2.369l.156-1.36c.194-1.65.393-3.357.493-5.049.072-1.219.065-2.46.058-3.66-.003-.727-.009-1.455.005-2.182.01-.614.034-1.225.058-1.835.066-1.703.134-3.464-.085-5.217-.03-.235-.02-.476-.012-.723l.005-.181c1.312-.97 1.554-2.348 1.612-3.577.086-1.84.219-3.677.352-5.517.086-1.193.173-2.387.246-3.582.03-.474-.015-.947-.06-1.4" transform="translate(-135 -2073) translate(0 700) translate(0 1323) translate(135 50) translate(107 68)"/>
                            <g>
                                <path d="M2.664 28.547l.082.009c2.627.554 4.898 1.914 7.12 3.368.57.374-.041 1.246-.607.867-1.694-1.133-3.44-2.242-5.361-2.927l-.353-.118.147.307c.5 1.006 1.068 1.976 1.653 2.935l.174-.026c.33-.03.524.347.275.584l-.069.063c.152.302-.292.603-.537.408-.578.383-1.25.683-1.827 1.005-.456.254-.915.496-1.387.705l-.221.092.08.029c1.473.48 2.978.806 4.497 1.13l.459.096c.197-.105.449-.075.554.197.766 1.978.55 4.401.37 6.632l-.01.112.606-.957c.516-.814 1.033-1.628 1.552-2.44l1.564-2.433c.248-.384.804.018.576.403-1.48 2.49-2.987 4.962-4.493 7.437-.258.424-.825.108-.825-.304 0-2.765.05-5.432-.16-8.188l.014.227c-2.142-.223-4.254-.762-6.26-1.546-.42-.165-.337-.739.076-.841 1.066-.263 2.02-.816 2.964-1.36.417-.242.845-.554 1.3-.776-.894-1.273-1.694-2.57-2.338-4.013-.132-.294.1-.747.467-.668zm5.04 15.468l-.94 1.488c.275.1.55.203.825.304.017-.486.052-.993.093-1.512l.022-.28zm8.838-15.834c.375-.223.829.242.675.619-.858 2.096-1.714 4.233-3.034 6.09-.017.024-.036.046-.055.066.748.546 1.291 1.471 1.85 2.172l1.208 1.53c.404.51.813 1.015 1.235 1.51.308.36-.084.942-.535.763-1.77-.703-3.648-1.017-5.509-1.383-.446-.089-.404-.765.069-.72 1.261.122 2.5.284 3.714.57l.435.11-.584-.704-.818-1.01c-.664-.825-1.624-1.661-1.95-2.684-.035-.113.01-.227.092-.309-.072-.137-.075-.309.043-.475.953-1.345 1.645-2.839 2.284-4.353l.072-.172-1.224.72c-.821.48-1.645.955-2.473 1.42l-1.248.69c-.39.212-.757-.377-.417-.648 1.882-1.498 4.11-2.574 6.17-3.802zm.053 11.327l.246.296c.278.33.56.66.845.987.178-.254.356-.51.535-.763-.51-.196-1.024-.36-1.542-.499l-.084-.021zM.58 35.394l-.075.84c.382-.091.751-.213 1.111-.357l.137-.058-.548-.187c-.21-.076-.417-.155-.625-.238zM50.555 8.798c.262-.232.61.182.35.413-11.033 9.815-22.622 19.055-35.15 26.907-.383.24-.797-.413-.43-.663 12.25-8.265 24.131-16.88 35.23-26.657zM30.541 29.887c.284-.175.499.293.221.466-3.03 1.88-6.038 3.804-9.108 5.62-.281.166-.479-.283-.214-.454 2.997-1.932 6.063-3.764 9.101-5.632zm-1.207-6.609c.24-.168.535.165.298.351-4.43 3.521-9.048 6.856-13.634 10.171-.26.188-.583-.184-.325-.382 4.494-3.442 9.016-6.905 13.66-10.14zM16.29 28.457l-.417 1.011-.14.333 1.232-.727-.675-.617zm-13.165.365l-.587.641c.309.072.613.156.912.251l.094.032-.145-.304c-.095-.205-.186-.412-.274-.62zM62.87 3.977c.335-.28.764.23.437.515-9.365 8.137-18.935 16.303-29.123 23.4-.312.217-.693-.21-.39-.46 9.6-7.93 19.525-15.454 29.076-23.455zM52.22.477c.253-.253.609.174.358.425-5.261 5.287-10.441 10.683-15.84 15.83-.247.236-.564-.159-.337-.397C41.546 10.93 46.937 5.745 52.221.477z" transform="translate(-135 -2073) translate(0 700) translate(0 1323) translate(135 50) translate(107 68) translate(48)"/>
                            </g>
                        </g>
                        <g fill="#121217">
                            <path d="M7.426 34.997c.538-.592 1.578.106 1.038.727-1.04 1.197-2.198 2.27-3.432 3.266C3.718 40.05 2.3 41.264.749 41.944c-.6.261-.986-.473-.585-.905 1.07-1.14 2.524-1.977 3.764-2.93 1.24-.955 2.443-1.954 3.498-3.113zm24.676.07c-.457-.75.737-1.46 1.267-.815.88 1.075 3.68 4.185 2.213 5.602-.23.22-.694.187-.885-.072-.459-.632-.66-1.484-1.05-2.17-.489-.86-1.027-1.698-1.545-2.544zm-12.439-.302c-.086-.846 1.106-1.085 1.229-.23.23 1.625.182 4.142-1.055 5.336-.332.321-.877-.004-.835-.464.072-.757.403-1.464.537-2.212.146-.803.206-1.616.124-2.43zm11.465-22.701c.554-.283 1.112.434.764.978-.467.728-1.033 1.4-1.674 2.01-.856 1.395-1.846 2.703-2.469 4.254-1.517 3.783-1.088 7.048 1.533 10.22.475.574.134 1.209-.392 1.41.353.347.682.73.984 1.149.39.545-.197 1.14-.792.83-3.298-1.723-5.851-3.355-9.766-3.12-2.32.14-4.466.831-6.638 1.502-.452.597-.97 1.128-1.556 1.577-.458.35-1.103-.076-.912-.668.037-.113.074-.225.113-.336-.41-.169-.45-.873-.003-1.126.18-.102.366-.202.554-.3.985-2.343 2.17-4.446 2.279-7.225.15-3.9-1.536-6.64-4.033-9.346-.34-.368.104-1.051.555-.83 1.383.68 2.502 1.777 3.35 3.124.09-.29.421-.5.758-.302 3.38 1.978 7.03 1.809 10.553.367 2.503-1.023 4.42-2.96 6.792-4.168zm-17.648 4.9l.115.224c1.746 3.55 1.88 8.34.315 11.972 4.163-1.405 9.17-1.76 12.86.218-2.197-3.26-2.299-7.962-.584-11.687-4.208 1.843-9.344 1.861-12.706-.727zM2.526 23.137c1.463-.264 3.266-.244 4.346.954.318.353-.002.963-.47.905-.594-.074-1.116-.355-1.699-.481-.646-.14-1.296-.142-1.95-.08-.83.078-1.07-1.148-.227-1.298zM34.676 21l.1.005c1.214.142 2.388.409 3.572.705 1.107.278 2.454.455 3.392 1.11.463.326.263.967-.25 1.096-1.075.272-2.29-.179-3.323-.485-1.234-.365-2.455-.78-3.708-1.087-.797-.196-.469-1.43.316-1.34zM16.202 5.557c.16-.806 1.552-.713 1.462.12-.14 1.287.434 2.606.19 3.863-.096.498-.846.645-1.122.174-.656-1.123-.776-2.917-.53-4.157zM45.843.504c.369-.634 1.456-.053 1.123.6-1.539 3.016-3.838 6.019-6.5 8.094-.468.363-1.103-.202-.765-.71 1.87-2.81 4.425-5.034 6.142-7.984zM.187.954c-.6-.552.385-1.294.982-.782C2.487 1.308 3.81 2.436 5.117 3.587c1.278 1.124 2.755 2.21 3.768 3.558.36.48-.194 1.087-.742.765-1.457-.857-2.667-2.148-3.906-3.258C2.874 3.433 1.533 2.19.187.954z" transform="translate(-135 -2073) translate(0 700) translate(0 1323) translate(135 50) translate(231.5 9)"/>
                        </g>
                    </g>
                </g>
            </g>
        </g>
    </g>
</svg>
