<svg xmlns="http://www.w3.org/2000/svg" width="20" height="20" viewBox="0 0 20 20">
    <g fill="none" fill-rule="evenodd">
        <g fill="#121217">
            <g>
                <g>
                    <g>
                        <g>
                            <g>
                                <path d="M18.667 0H1.333C.597 0 0 .597 0 1.333v17.334C0 19.403.597 20 1.333 20h17.334c.736 0 1.333-.597 1.333-1.333V1.333C20 .597 19.403 0 18.667 0zm-2.052 4.739l-1.072 1.028c-.093.07-.139.186-.12.301v7.557c-.02.114.027.23.12.301l1.047 1.029v.225h-5.267v-.225l1.085-1.055c.107-.107.107-.138.107-.301V7.49l-3.017 7.667h-.407L5.575 7.491v5.134c-.028.216.043.433.195.589l1.411 1.711v.226h-4v-.226l1.412-1.711c.15-.157.218-.375.182-.59V6.688c.016-.164-.047-.327-.17-.437L3.349 4.739v-.226h3.895l3.01 6.6 2.648-6.6h3.713v.226z" transform="translate(-1068 -8054) translate(0 7519) translate(0 473) translate(953 49) translate(102) translate(13 13)"/>
                            </g>
                        </g>
                    </g>
                </g>
            </g>
        </g>
    </g>
</svg>
