<svg xmlns="http://www.w3.org/2000/svg" width="217" height="62" viewBox="0 0 217 62">
    <g fill="none" fill-rule="evenodd">
        <g fill="#121217">
            <g>
                <g>
                    <g>
                        <path d="M37.895 148.912c2.768 5.136 2.457 12.886 2.068 20.648l-.083 1.663-.054 1.106c-.207 4.38-.675 8.8-.804 12.992-.528 16.778 4.256 29.92 21.554 29.672-.432.816-1.5.478-2.09.481-6.053.033-11.433-2.691-14.318-6.094-3.505-4.132-5.809-10.971-6.273-18.444-.324-5.185.347-10.498.803-15.877.441-5.2 1.203-10.649.966-15.561-.285-5.933-1.928-10.876-5.47-13.63-.918-.714-2.462-1.904-3.539-1.925-1.337-.03-2.66 1.261-3.698 2.087-2.696 2.132-3.562 3.755-4.504 7.855-.417 1.812-.918 3.824-.966 5.613-.234 8.483 1.71 17.878 1.77 26.627.06 8.9-1.638 17.188-5.63 22.45-2.878 3.798-7.926 6.75-14.637 6.899-.672.015-1.86.35-2.414-.481 7.545-.006 11.38-1.911 14.476-4.812 2.837-2.658 4.759-6.51 5.952-11.066 2.082-7.951.831-17.481.483-26.144-.036-.908-.083-1.815-.133-2.718l-.062-1.082c-.02-.36-.042-.72-.063-1.078l-.062-1.072c-.384-6.771-.554-13.16 2.249-18.109 1.26-2.218 3.556-4.249 5.794-5.128 3.158-1.25 7.67 3.244 8.685 5.128zM22.932 213.87c-.132-.027-.147.063-.156.162-.192-.027-.138-.297-.162-.482.273-.06.303.126.318.32zm17.052-1.923c.138.185.213.43.162.801-.504.021-.552-.413-.642-.801h.48zm-12.064-16.36c-.3 2.86-.957 5.947-1.446 8.82l-.05.304-.1.607c-.33 2.024-.673 4.003-1.94 5.183 1.847-4.252 2.306-9.888 3.215-15.076.186-.027.288.039.32.161zm3.862 14.115c-.22-.051-.132-.404-.162-.643.56-.144.276.523.162.643zm5.63-3.692c.498.658 1.065 1.998.963 2.727-.534-.619-1.058-2-.962-2.727zm-5.631-4.81c.705.204.14 1.678.32 2.408-.387-.115-.39-.612-.344-1.157l.04-.45c.026-.297.039-.582-.016-.8zm3.54-6.254c.145.069.289.14.319.317 0 1.354.175 2.534.369 3.695l.166.994c.11.665.21 1.338.271 2.048-.881-1.746-1.175-4.91-1.124-7.054zm-3.54-3.691c.393.478.126 1.54.162 2.566.045 1.312.534 2.891-.324 3.528.093-1.995-.189-4.36.162-6.094zm-3.947-.76l.108.077c.038.023.081.042.14.044-.18.363-.148.762-.09 1.166l.06.404c.055.402.073.798-.132 1.154-.609-.46-.204-1.934-.321-2.885.112-.02.179.004.235.04zm6.844-39.336c.624 1.372.933 3.615 1.125 5.615.066.688.318 1.364.32 1.926.013 2.29-.767 4.922-1.445 7.215-.648 2.186-1.478 4.372-1.931 6.737-.759 3.953-.78 7.563-1.29 11.71-.12 1.002.162 2.542-.962 3.205-1.053-4.282-1.488-8.982-2.735-13.632-.582-2.18-1.296-4.21-1.77-6.417-.714-3.313-1.946-6.016-1.607-10.265.32-4.007 1.94-7.796 5.467-9.3 1.841-.786 4.258 1.959 4.828 3.206zm-4.987-2.407c-3.572 2.01-5.29 6.5-4.666 12.352.126 1.154.662 2.506.965 3.849.522 2.29.984 4.398 1.608 6.094 1.5 4.066 2.174 9.329 3.22 13.473.264-4.123.504-8.405 1.446-12.669 1.275-5.756 3.79-10.379 2.735-16.682-.165-.972-.696-3.017-1.128-3.849-.644-1.244-2.762-3.364-4.18-2.568zM30.494.557c2.405.246 2.993 2.198 2.738 4.169-.24 1.794-1.776 2.778-1.932 3.851-.188 1.295.34 3.233.48 4.973.393 4.835 1.173 10.143 1.452 14.915 3.278 1.304 5.197 4.578 7.074 8.02 1.338 2.452 2.265 5.388 3.218 8.02 2.084 5.738 3.323 12.223 4.184 18.443 1.94 14.018.893 28.58-2.094 40.577 3.494 1.058 5.588 1.268 7.723 3.208 3.613 3.286 3.452 11.698 2.252 18.605-.747 4.303-1.964 8.956-3.86 12.99-.6 1.273-1.5 3.37-2.414 3.208-1.568-.275-.962-6.429-.962-8.821v-1.557c-.003-2.864-.071-5.71-.807-7.264-.516-1.085-1.587-1.842-2.897-2.407-.873-.374-2.867-1.397-4.18-.963-.96.317-1.15 1.836-1.932 3.05-.71 1.106-1.925 1.692-2.09 2.727-.138.873.527 2.111.803 3.206.312 1.226.543 2.353.804 3.208-1.175.643-3.578.066-4.984.481-1.278 2.204-1.37 5.58-2.414 8.02-.735-.257-.666-1.3-.804-1.926-.429-1.922-.912-4.243-1.61-6.094-1.482-.394-3.905.153-5.147-.481.375-1.091.525-2.153.804-3.208.063-.238.146-.478.235-.718l.18-.48c.242-.638.46-1.268.392-1.85-.074-.623-.574-1.222-1.111-1.816l-.36-.396c-.297-.33-.58-.66-.781-.993-.63-1.044-.831-1.866-1.452-2.73-2.93.281-6.205.9-7.395 3.208-1.05 2.034-.807 5.897-.807 8.983v4.814c0 1.415.294 3.101-.804 4.007-1.595-.117-1.817-1.932-2.41-3.208-1.716-3.681-3.147-7.763-4.023-12.511-1.148-6.214-1.667-14.826 1.77-18.602 1.973-2.171 4.828-2.844 8.202-3.529-1.74-8.208-3.188-17.69-3.218-27.426-.024-8.887 1.719-18.096 3.7-26.143 1.407-5.714 3.567-11.447 6.437-16.04 1.541-2.47 2.363-4.75 5.467-5.292.285-4.515 1.031-10.149 1.445-15.235.138-1.678.684-3.663.486-4.973-.324-2.123-2.528-2.655-1.931-5.612.2-.996 1.628-2.503 2.573-2.408zm14.962 104.09c-.858 4.49-2.403 8.3-3.701 12.352 5.608.604 9.096 3.576 9.488 9.14.033.44.28 1.227-.158 1.603-.492-2.87-.588-5.337-2.094-7.057-1.643-1.88-4.258-2.825-7.236-3.366-.444.574-.768 1.267-.966 2.084 3.488.664 6.39 1.106 7.72 3.851 2 4.12.257 12.723 1.127 17.32 2.85-4.896 5.731-14.44 5.953-22.613.117-4.311-.543-8.85-3.218-10.908-1.511-1.163-4.588-1.917-6.915-2.407zm-29.921 0c-7.41 1.07-9.993 4.694-9.972 12.672.018 7.693 2.454 15.549 4.823 21.009.378.864.585 1.94 1.451 2.245.183-4.957-.902-12.881.642-16.999 1.047-2.793 4.708-3.702 7.884-4.171-.043-.128-.084-.259-.125-.39l-.12-.393c-.223-.72-.475-1.408-1.044-1.783-2.438.882-5.344 1.69-6.757 3.37-.89 1.062-.819 2.386-1.607 3.687-.056-3.898 3.081-5.52 6.276-6.81l.457-.181c.608-.24 1.213-.472 1.793-.709-1.44-3.537-2.546-7.404-3.54-11.386-.008-.1-.023-.189-.161-.162zm15.12 1.443v.482c-.32 1.743-.107 4.53-.161 6.414-.012.52.282 1.405-.321 1.605v-8.34c-2.183-.107-2.558 1.962-2.897 3.688-1.943 10.005 1.184 20.44 3.38 28.069 2.282-8.678 6.004-21.431 2.252-31.116-.639-.38-1.407-.631-2.252-.802zm5.147 20.69h-.48c.063 1.967.465 3.597.642 5.454.435-.1 1.274.203 1.448-.162-.743-1.558-1.253-3.346-1.61-5.293zm-8.364 4.012c.087.62-.288.78-.162 1.442h.645c-.171-.473-.22-1.062-.483-1.442zm-1.125-4.013c-.177 1.857-.573 3.496-.645 5.455h1.128c.348-1.624.084-3.756-.162-5.293-.033-.126-.135-.185-.32-.162zm8.202 0c-.027.192.027.458-.159.482.195 1.63-.731 3.953.321 4.973h.807c-.039-1.941-.417-3.544-.645-5.293-.036-.126-.135-.185-.324-.162zm-.965 4.013c.213.583-.675 1.424 0 1.442.578.08.423-1.492 0-1.442zm-7.882-4.013h-.32c-.198 2.103-1.08 3.523-1.449 5.455h1.287c.186-.835.21-1.95.32-2.886.1-.801.711-2.207.162-2.569zm25.254 3.21c-.021-.395-.024-.775.162-.963.602-.11.393 1.214-.162.963zm-40.374-3.528c.603.146.21 1.289.32 1.925-.449-.26-.503-1.546-.32-1.925zm5.149-28.869v.479c1.541 9.266 3.968 18.9 8.043 25.661.654 1.089 1.245 2.348 2.894 2.085-.15-2.401-.81-6.145-.804-9.781.006-3.547.3-7.838 1.608-9.464 1.19-1.483 2.786-1.059 4.666-1.125 2.735 1.307 3.044 5.242 3.218 8.983.174 3.872-.483 8.145-.807 11.387 1.34.253 1.908-.544 2.434-1.42l.225-.378.076-.125c4.3-6.958 6.56-16.246 8.206-25.5-9.615-.548-20.666-.727-29.76-.802zm3.377 3.529c.12.654.238 1.31.355 1.965l.353 1.967c.767 4.256 1.579 8.465 2.831 12.266.519 1.582 1.58 3.01 1.449 4.65-1.023-.742-1.413-2.279-1.932-3.69-.47-1.277-.89-2.745-1.286-4.169-.789-2.825-1.959-5.9-2.252-8.662-.144-1.343-.12-3.666.32-4.489.138-.03.153.063.162.162zm11.581 18.603v.32h-.32v-.32h.32zm1.77-78.59c-4.666.222-9.447-.445-12.868.802-5.635 14.445-7.354 36.994-4.022 54.852 10.544.099 18.75.568 30.08.481C48.876 79 47.39 56 41.433 41.777c-2.54-.55-5.731-.798-9.009-.643zm-5.307 52.767c.039.61-1.005.61-.966 0h.966zm10.296-7.376c.29 9.21-13.441 9.87-14.158.96-.34-4.24 2.666-7.126 6.433-7.539 4.195-.451 7.593 2.491 7.725 6.579zm-14.962.32c-.083 2.756 1.027 4.323 2.283 5.741l.304.338.307.336c-1.833-.347-3.599-3.819-3.215-6.576.186-.027.288.036.32.162zm7.881 3.69c-.348.343-.08.894.162 1.12l.183-.04c.332-.074.64-.174.624-.6-.138-.346-.399-.567-.969-.48zm.162-8.02c-.006.221.075.353.162.481 1.656.808 2.768 2.422 2.573 4.65-.072.82-.902 1.43-.32 2.246 2.204.544 2.489-1.893 2.252-3.529-.312-2.144-2.439-4.506-4.667-3.848zM25.347 76.9c-.44.116-.324-.32-.642-.32.1-.392.813-.087.642.32zm8.525-25.181c2.774.745 5.617 2.91 6.919 4.811 1.346 1.97 2.516 5.386 2.09 9.144-.65 5.765-5.818 10.167-10.778 10.744-6.823.798-13.127-3.424-14.476-9.942-1.389-6.707 2.45-12.024 6.756-14.117 1.46-.709 3.173-1.017 4.985-1.121 1.262-.072 3.119.11 4.504.481zM16.5 65.674c.759 5.125 3.548 8.226 7.24 10.424-.936.218-1.908-.75-2.735-1.444-2.082-1.74-5.054-5.293-4.505-8.98zm16.248 5.934c-.054.374.027.616.162.801.711.072 1.02-.266 1.125-.801-.234-.236-1.053-.236-1.287 0zm-2.573-17.002c.645-.108.918.155 1.446.161 3.173 2.371 6.688 5.26 6.274 10.424-.195 2.434-2.972 4.365-1.449 5.615 2.558-.302 3.467-3.053 3.7-4.972.328-2.656-.476-6.43-2.41-8.66-1.77-2.042-5.818-4.222-7.56-2.568zm2.896-25.178l-.201.28-.396.568c-.528.757-1.074 1.496-1.817 2.037-1.305-.568-1.692-2.054-2.735-2.885-3.407 1.097-6.904 8.363-8.044 11.706 6.271-1.139 15.13-1.133 21.395 0-.537-1.967-1.49-3.968-2.573-5.774-1.464-2.434-2.972-5.167-5.63-5.932zm-5.632 3.367c-.41.603-.85 1.177-1.297 1.744l-.672.848c-1.007 1.273-1.991 2.569-2.695 4.142-.624-1.001.27-2.4.966-3.687.83-1.537 1.385-2.47 2.411-3.528.705-.114 1.098.084 1.287.481zM30.656 1.04c-.942.436-1.74 1.106-1.929 1.926-.557 2.389 1.194 3.19 1.608 4.97.32 1.39-.15 3.662-.324 5.773-.291 3.612-.63 7.192-.963 10.586-.342 3.441-.887 4.916.804 6.578.084-.001.172.083.25.162l.073.075c.104.099.174.12.16-.237-.108-3.28-.162-6.671-.162-9.784 0-.834-.387-2.23.483-2.73-.084 4.282.123 9.04 0 12.831 2.54-1.032 1.727-3.983 1.448-7.538-.294-3.705-.684-6.803-.965-10.424-.15-1.926-.636-4.1-.321-5.454.26-1.124 1.154-1.666 1.445-2.563.648-1.991.018-3.28-1.607-4.171zm-.483 4.49v.32h-.321v-.32h.32zm.322-3.208c-.698.514-1.238 1.558-.806 2.727-1.143-.526-.246-3.38.806-2.727z" transform="translate(-774 -5985) translate(0 5597) translate(299 373) matrix(0 1 1 0 475.5 15.5)"/>
                    </g>
                </g>
            </g>
        </g>
    </g>
</svg>
