<svg xmlns="http://www.w3.org/2000/svg" width="148" height="146" viewBox="0 0 148 146">
    <g fill="none" fill-rule="evenodd">
        <g>
            <g>
                <g>
                    <g>
                        <g fill="#3A3A3A">
                            <path d="M117.37 104.544c.246-.47 1.03-.046.813.429-7.522 16.465-26.57 26.027-44.1 22.178-.394-.086-.358-.714.06-.646 17.909 2.867 34.82-5.803 43.228-21.96zm-75.622 11.63c-.24-.296.198-.656.456-.378 4.583 4.903 9.8 7.121 16.255 8.702.407.1.22.677-.154.662-6.395-.248-12.69-4.192-16.557-8.985zm79.558-31.469c.116-.412.76-.255.688.17-1.017 5.84-3.383 11.347-6.097 16.483-.183.348-.65-.01-.472-.355 2.684-5.21 4.297-10.63 5.881-16.298zM21.195 67.645c.15-.414.78-.179.64.237-3.158 9.475-2.148 18.505 1.861 27.543.151.342-.335.558-.518.244-4.992-8.528-5.326-18.85-1.983-28.024zm81.994-32.65c-.316-.422.295-.959.614-.539 1.96 2.576 4.298 5.103 5.871 7.951.18.325-.27.545-.491.327-2.269-2.24-4.069-5.18-5.994-7.74zM30.4 42.166C37.822 29.2 53.45 20.108 68.747 22.337c.495.071.418.757-.071.754-15.66-.067-29.264 5.975-37.601 19.545-.279.456-.935-.018-.676-.469zm46.606-20.166l.093.003c4.823.623 10.31 1.61 14.494 4.077.388.228.04.746-.35.636-4.822-1.344-9.196-3.13-14.226-3.895-.545-.082-.474-.889.082-.818z" transform="translate(-892 -2459) translate(0 2397) translate(135 62) translate(757)"/>
                            <path d="M126.78 107.392c.277-.528 1.164-.052.92.48-8.516 18.474-30.082 29.201-49.928 24.883-.447-.097-.405-.8.067-.725 20.276 3.216 39.422-6.51 48.941-24.638zm-85.784 12.111c-.267-.356.22-.788.508-.455 5.113 5.894 10.933 8.56 18.133 10.46.454.12.245.814-.171.797-7.134-.299-14.157-5.04-18.47-10.802zm90.944-35.55c.133-.482.873-.298.79.198-1.167 6.826-3.882 13.261-6.997 19.264-.21.406-.744-.012-.541-.415 3.08-6.09 4.93-12.423 6.748-19.047zM18.018 65.31c.182-.484.94-.21.773.276-3.806 11.073-2.59 21.627 2.241 32.189.182.4-.403.652-.625.285-6.014-9.966-6.416-22.03-2.389-32.75zm92.393-37.933c-.363-.516.338-1.173.704-.658 2.25 3.154 4.932 6.247 6.737 9.734.205.398-.31.667-.564.4-2.603-2.742-4.668-6.342-6.877-9.476zm-81.914 8.192c8.361-14.76 25.966-25.11 43.196-22.573.558.082.471.863-.08.86-17.64-.078-32.963 6.8-42.354 22.248-.314.518-1.054-.02-.762-.535zM80.491 12.26l.095.005c5.447.749 11.645 1.936 16.371 4.9.438.275.045.897-.396.765-5.446-1.616-10.386-3.763-16.067-4.682-.616-.1-.536-1.069.092-.983z" transform="translate(-892 -2459) translate(0 2397) translate(135 62) translate(757) rotate(75 74.055 72.984)"/>
                        </g>
                        <path fill="#121217" d="M72.72 48.017c4.323-.216 11.43 1.655 12.273 6.434l-.048-.233c7.731-.083 16.414.417 22.192 4.024l-.353-.216c.034.012.068.028.102.049 3.801 2.35 4.243 7.48.657 10.28-4.453 3.478-12.705 5.687-18.465 5.644-.97 2.92-2.678 5.625-4.945 7.62 2.443 3.664 4.822 7.259 7.748 10.622l-.192-.226c1.03.128 2.61 1.034 2.262 2.072.2-.048.404-.08.613-.087.492-.016.54.673.283.97-1.233 1.426-4.01 1.121-5.552.57-.32-.114-.361-.516-.211-.768-.022-.039-.038-.084-.049-.135-.162-.8.25-1.58.9-2.082-3.274-2.925-6.255-6.322-8.843-9.853l.52.701c-1.32.73-2.766 1.238-4.315 1.463-3.108.45-6.078-.26-8.611-1.742-2.914 3.595-5.681 7.498-8.984 10.758l.697-.706c1.054.392 1.956 1.41 1.462 2.42.434.127.587.736.09.953-1.518.669-4.191.627-5.558-.347-.204-.146-.215-.395-.094-.561-.254-.105-.388-.457-.232-.703.61-.969 1.874-1.848 3.158-1.931 2.09-4.31 4.435-8.531 6.73-12.732l-.287.524c-1.657-1.638-2.96-3.652-3.764-5.847-6.032.09-20.486-.654-24.134-6.771-2.451-4.104 1.446-6.348 4.723-7.722 5.472-2.294 11.53-3.751 17.671-4.666 1.969-4.776 7.297-7.515 12.556-7.776zm-12.887 46.34l.03.047c.267.454.136 1.179-.325 1.433.4-.015.785-.072 1.174-.133-.031-.05-.053-.107-.062-.168-.085-.572-.352-1.012-.817-1.179zm33.087-.17l-.01.02c-.03.05-.067.093-.11.127-.507.395-1.074.071-1.593.358.35-.005.7-.043 1.057-.114.278-.055.548-.14.816-.23-.06-.05-.111-.104-.16-.16zM66.57 81.624l-.205.384c.336-.06.661.237.633.61-.026.358-.135.704-.29 1.039l.544-.654.43-.523c-.384-.268-.755-.554-1.113-.856zm39.894-22.071c-12.254-6.118-32.366-4.216-45.301-2.197-4.136.646-26.146 3.179-21.063 11.19 1.157 1.823 7.271 3.128 9.196 3.652 4.242 1.158 8.464 1.468 12.814 1.772l-.54-.037c-.429-1.49-.628-3.048-.555-4.617.035-.782 1.16-.628 1.182.113.26 8.246 8.047 16.066 16.601 13.336 6.746-2.154 10.17-10.13 9.144-16.713-.006-.034-.01-.069-.012-.102-9.666.151-18.404-1.02-27.927 2.987-.853.36-1.422-.91-.613-1.377 8.801-5.099 21.691-5.688 31.228-2.927.556.16.491 1.216-.105 1.242l-.73.029c.386 2.224.246 4.584-.339 6.858 6.611-1.42 23.87-4.27 17.47-13.17-.138.046-.291.04-.45-.04zM82.611 77.269c.618-.709 1.842.129 1.216.839-4.147 4.71-11.357 5.431-15.733.58-.296-.325.17-.833.522-.565 4.397 3.347 10.213 3.483 13.995-.854zm-30.352-7.58c-.495-.153-.214-.81.285-.67 1.324.372 2.684.648 4.05.874.918.152 2.001.386 2.942.237.466-.074.64.488.245.674-.868.407-2.194.077-3.09-.07-1.504-.244-2.985-.601-4.432-1.045zm42.505-3.46c.935-.035 1.936-.205 2.85.041.488.132.523 1.076.05 1.256-.893.34-1.904.27-2.843.332-1.063.07-1.107-1.592-.057-1.63zm-30.596-6.225c.922-.081 1.178 1.242.251 1.321-6.933.599-13.177 2.417-19.678 4.638-.631.216-1.052-.58-.45-.88 6.06-3.032 13.074-4.476 19.877-5.08zm18.32-.996c5.819-.129 11.617 1.306 17.06 3.47.867.346.367 1.825-.499 1.466-5.424-2.253-10.896-3.29-16.647-3.94-.602-.067-.49-.982.087-.996zm.677-4.761c-3.212-2.592-5.477-4.682-10.373-4.475-4.636.194-8.294 2.275-10.79 5.764 5.1-.67 10.225-.987 15.086-1.117 1.749-.047 3.666-.118 5.678-.164z" transform="translate(-892 -2459) translate(0 2397) translate(135 62) translate(757)"/>
                    </g>
                </g>
            </g>
        </g>
    </g>
</svg>
