<svg xmlns="http://www.w3.org/2000/svg" width="1439" height="55" viewBox="0 0 1439 55">
    <g fill="none" fill-rule="evenodd">
        <g fill="#CED6E7">
            <g>
                <g>
                    <path d="M24.571 827.106c.82.02 1.639.05 2.458.075.803.024 1.622-.03 2.397.195.781.228.782 1.547-.104 1.61-1.581.114-3.37-.51-4.915-.808-.73-.14-.546-1.09.164-1.072zm5.01-2.533c.579.295.563 1.132-.08 1.35-.931.315-1.894.022-2.86-.078-1.112-.116-2.21-.26-3.319-.408-.284-.038-.344-.496-.046-.561 1.141-.252 2.255-.438 3.426-.501.973-.053 1.995-.25 2.879.198zm-4.034-3.743c1.382.13 3.219.09 4.226 1.113.363.37.303 1.05-.274 1.202-1.498.395-3.17-.44-4.688-.67-1.29-.198-2.672-.096-3.895-.54-.467-.17-.366-.805.042-.965 1.353-.528 3.163-.275 4.59-.14zm3.972-2.85c.614.257.672 1.205-.012 1.429-1.534.503-3.166.18-4.765.051-.634-.05-1.268-.108-1.901-.168l-3.799-.373c-.823-.079-.703-1.185.092-1.206 1.907-.05 3.818-.12 5.725-.122 1.557-.002 3.215-.217 4.66.389zm-.169-3.179c.877.153.863 1.568-.023 1.694-4.043.575-8.59-.01-12.655-.35-.652-.054-.601-1.01.02-1.074 4.03-.415 8.652-.967 12.658-.27zm-.033-3.915c.859.314.954 1.426.021 1.733-2.71.89-5.918.4-8.737.225-2.385-.148-4.917.068-7.129-.852-.426-.178-.236-.712.102-.845 2.37-.926 5.281-.61 7.819-.693 2.573-.085 5.485-.46 7.924.432zm.19-4.061c.14.096.24.212.317.337.038.057.053.121.08.184.02.054.046.106.058.164.082.32.04.662-.206.923l-.102.093-.135.109c-.345.277-.953.332-1.31.041l.001-.003c-2.622-.667-6.166-.24-8.808-.275-3.185-.043-6.221-.27-9.338-.906-.749-.153-.55-1.339.202-1.267 3.195.304 6.394.264 9.595.203l2.135-.04 1.067-.014c1.66-.02 5-.547 6.444.45zm-.089-4.353c.863.165.713 1.494-.103 1.61-7.544 1.055-15.886-.146-23.51-.331-.688-.018-.722-1.122-.037-1.158 7.572-.394 16.168-1.557 23.65-.121zm-.304-3.936c1.168.086 1.19 1.96.013 1.985-9.5.207-19.012-.188-28.523.068-.737.02-.833-1.171-.102-1.237 9.433-.848 19.148-1.508 28.612-.816zm.2-4.618c.817.115.967 1.445.104 1.61-7.482 1.435-16.078.273-23.65-.12-.685-.037-.651-1.142.036-1.159 7.625-.185 15.967-1.387 23.51-.33zm.205-4.553c.044.037.09.072.135.108.335.269.4.658.308 1.018-.012.057-.037.108-.058.164-.027.062-.042.125-.08.183-.078.124-.177.24-.317.337-1.444.998-4.784.47-6.444.45-4.27-.049-8.538-.256-12.797.15-.753.072-.95-1.114-.202-1.267 3.117-.636 6.153-.864 9.338-.907 2.642-.034 6.186.393 8.808-.275l-.002-.003c.358-.289.966-.235 1.31.042zm-.18-3.984c.932.306.837 1.42-.022 1.733-2.439.893-5.35.517-7.924.432-2.538-.085-5.45.233-7.819-.694-.338-.132-.528-.667-.102-.844 2.212-.921 4.744-.704 7.129-.852 2.82-.175 6.027-.665 8.737.225zm-.012-3.876c.886.126.9 1.54.023 1.694-4.006.697-8.629.145-12.657-.27-.622-.063-.673-1.02-.021-1.075 4.065-.339 8.612-.924 12.655-.349zm.18-2.914c.684.223.626 1.171.012 1.429-1.445.605-3.103.39-4.66.388-1.907-.002-3.818-.072-5.725-.122-.795-.02-.915-1.127-.092-1.204l3.799-.374c.633-.06 1.267-.117 1.9-.168 1.6-.128 3.232-.451 4.766.05zm-.008-3.736c.577.152.637.832.274 1.201-1.007 1.023-2.844.983-4.226 1.114-1.426.134-3.236.388-4.59-.141-.407-.159-.508-.795-.04-.965 1.222-.443 2.604-.342 3.894-.539 1.518-.231 3.19-1.064 4.688-.67zm.002-2.778c.643.218.659 1.056.08 1.35-.884.448-1.906.252-2.879.198-1.17-.064-2.285-.249-3.426-.501-.298-.066-.238-.524.046-.562 1.108-.147 2.207-.29 3.32-.407.965-.1 1.928-.394 2.86-.078zm-.179-3.063c.886.063.885 1.382.104 1.609-.775.224-1.594.17-2.397.196-.82.025-1.638.054-2.458.075-.71.018-.894-.931-.164-1.072 1.545-.298 3.334-.922 4.915-.808zm-4.75-2.908c.82.02 1.638.05 2.457.075.803.024 1.622-.03 2.397.195.781.228.782 1.547-.104 1.61-1.581.114-3.37-.51-4.915-.808-.73-.14-.546-1.09.164-1.072zm5.009-2.533c.579.295.563 1.132-.08 1.35-.931.315-1.894.022-2.86-.078-1.112-.116-2.21-.26-3.319-.408-.284-.038-.344-.496-.046-.561 1.141-.252 2.255-.438 3.426-.501.973-.053 1.995-.25 2.879.198zm-4.034-3.743c1.382.13 3.219.09 4.226 1.113.363.37.303 1.05-.274 1.202-1.498.395-3.17-.44-4.688-.67-1.29-.198-2.672-.096-3.895-.54-.467-.17-.366-.805.042-.965 1.353-.528 3.163-.275 4.59-.14zm3.972-2.85c.614.257.672 1.205-.012 1.429-1.534.503-3.166.18-4.765.051-.634-.05-1.268-.108-1.901-.168l-3.799-.373c-.823-.079-.703-1.185.092-1.206 1.907-.05 3.818-.12 5.725-.122 1.557-.002 3.215-.217 4.66.389zm-.169-3.179c.877.153.863 1.568-.023 1.694-4.043.575-8.59-.01-12.655-.35-.652-.054-.601-1.01.02-1.074 4.03-.415 8.652-.967 12.658-.27zm-.033-3.915c.859.314.954 1.426.021 1.733-2.71.89-5.918.4-8.737.225-2.385-.148-4.917.068-7.129-.852-.426-.178-.236-.712.102-.845 2.37-.926 5.281-.61 7.819-.693 2.573-.085 5.485-.46 7.924.432zm.19-4.061c.14.096.24.212.317.337.038.057.053.121.08.184.02.054.046.106.058.164.082.32.04.662-.206.923l-.102.093-.135.109c-.345.277-.953.332-1.31.041l.001-.003c-2.622-.667-6.166-.24-8.808-.275-3.185-.043-6.221-.27-9.338-.906-.749-.153-.55-1.339.202-1.267 3.195.304 6.394.264 9.595.203l2.135-.04 1.067-.014c1.66-.02 5-.547 6.444.45zm-.089-4.353c.863.165.713 1.494-.103 1.61-7.544 1.055-15.886-.146-23.51-.331-.688-.018-.722-1.122-.037-1.158 7.572-.394 16.168-1.557 23.65-.121zm-.304-3.936c1.168.086 1.19 1.96.013 1.985-9.5.207-19.012-.188-28.523.068-.737.02-.833-1.171-.102-1.237 9.433-.848 19.148-1.508 28.612-.816zm.2-4.618c.817.115.967 1.445.104 1.61-7.482 1.435-16.078.273-23.65-.12-.685-.037-.651-1.142.036-1.159 7.625-.185 15.967-1.387 23.51-.33zm.205-4.553c.044.037.09.072.135.108.335.269.4.658.308 1.018-.012.057-.037.108-.058.164-.027.062-.042.125-.08.183-.078.124-.177.24-.317.337-1.444.998-4.784.47-6.444.45-4.27-.049-8.538-.256-12.797.15-.753.072-.95-1.114-.202-1.267 3.117-.636 6.153-.864 9.338-.907 2.642-.034 6.186.393 8.808-.275l-.002-.003c.358-.289.966-.235 1.31.042zm-.18-3.984c.932.306.837 1.42-.022 1.733-2.439.893-5.35.517-7.924.432-2.538-.085-5.45.233-7.819-.694-.338-.132-.528-.667-.102-.844 2.212-.921 4.744-.704 7.129-.852 2.82-.175 6.027-.665 8.737.225zm-.012-3.876c.886.126.9 1.54.023 1.694-4.006.697-8.629.145-12.657-.27-.622-.063-.673-1.02-.021-1.075 4.065-.339 8.612-.924 12.655-.349zm.18-2.914c.684.223.626 1.171.012 1.429-1.445.605-3.103.39-4.66.388-1.907-.002-3.818-.072-5.725-.122-.795-.02-.915-1.127-.092-1.204l3.799-.374c.633-.06 1.267-.117 1.9-.168 1.6-.128 3.232-.451 4.766.05zm-.008-3.736c.577.152.637.832.274 1.201-1.007 1.023-2.844.983-4.226 1.114-1.426.134-3.236.388-4.59-.141-.407-.159-.508-.795-.04-.965 1.222-.443 2.604-.342 3.894-.539 1.518-.231 3.19-1.064 4.688-.67zm.002-2.778c.643.218.659 1.056.08 1.35-.884.448-1.906.252-2.879.198-1.17-.064-2.285-.249-3.426-.501-.298-.066-.238-.524.046-.562 1.108-.147 2.207-.29 3.32-.407.965-.1 1.928-.394 2.86-.078zm-.179-3.063c.886.063.885 1.382.104 1.609-.775.224-1.594.17-2.397.196-.82.025-1.638.054-2.458.075-.71.018-.894-.931-.164-1.072 1.545-.298 3.334-.922 4.915-.808zM30.429 949.106c.71-.018.894.931.165 1.072-1.546.298-3.335.922-4.916.808-.886-.063-.885-1.382-.104-1.61.775-.224 1.594-.17 2.398-.195.819-.025 1.637-.054 2.457-.075zm-5.01-2.533c.884-.449 1.906-.251 2.879-.198 1.17.063 2.285.25 3.427.5.297.066.237.524-.047.562-1.108.147-2.207.292-3.319.408-.965.1-1.929.393-2.86.078-.643-.218-.658-1.055-.08-1.35zm4.034-3.743c1.427-.135 3.236-.388 4.59.14.407.16.508.796.041.965-1.223.444-2.604.342-3.895.54-1.518.23-3.19 1.065-4.688.67-.577-.152-.637-.832-.273-1.202 1.007-1.022 2.843-.982 4.225-1.113zm-3.971-2.85c1.444-.606 3.102-.39 4.66-.389 1.907.002 3.817.073 5.724.122.796.021.915 1.127.092 1.206l-3.799.373c-.633.06-1.267.117-1.9.168-1.6.129-3.231.452-4.766-.051-.684-.224-.626-1.172-.011-1.43zm.168-3.179c4.006-.697 8.629-.145 12.657.27.623.063.673 1.02.022 1.075-4.066.339-8.613.924-12.656.349-.886-.126-.9-1.54-.023-1.694zm.033-3.915c2.44-.893 5.351-.517 7.924-.432 2.538.084 5.45-.233 7.819.693.338.133.528.667.102.845-2.212.92-4.744.704-7.129.852-2.82.175-6.027.665-8.737-.225-.932-.307-.837-1.42.021-1.733zm-.19-4.061c1.444-.998 4.785-.471 6.444-.451l1.067.015 2.135.04c3.201.06 6.4.1 9.595-.204.753-.072.95 1.114.202 1.267-3.117.636-6.153.863-9.338.906-2.642.036-6.186-.392-8.808.275l.002.003c-.358.29-.965.236-1.31-.041l-.136-.109-.102-.093c-.245-.261-.288-.604-.205-.923.011-.058.036-.11.057-.164.027-.063.042-.127.08-.184.078-.125.178-.24.317-.337zm.089-4.353c7.482-1.436 16.079-.273 23.65.12.685.037.651 1.14-.036 1.159-7.625.185-15.966 1.386-23.51.33-.817-.115-.967-1.444-.104-1.61zm.304-3.936c9.464-.692 19.179-.032 28.612.816.731.066.635 1.257-.102 1.237-9.51-.256-19.023.139-28.522-.068-1.178-.026-1.156-1.9.012-1.985zm-.2-4.618c7.544-1.056 15.885.146 23.51.331.687.017.721 1.122.036 1.158-7.571.394-16.168 1.556-23.65.121-.863-.165-.713-1.495.103-1.61zm-.204-4.553c.345-.277.952-.331 1.31-.042l-.002.003c2.622.668 6.166.24 8.808.275 3.185.043 6.221.27 9.338.907.749.153.551 1.339-.202 1.267-4.26-.406-8.527-.199-12.797-.15-1.66.02-5 .548-6.444-.45-.14-.097-.24-.213-.317-.337-.038-.058-.053-.121-.08-.183-.02-.056-.046-.107-.057-.164-.094-.36-.028-.75.307-1.018l.136-.108zm.18-3.984c2.71-.89 5.918-.4 8.737-.225 2.385.148 4.917-.069 7.129.852.426.177.236.712-.102.844-2.37.927-5.28.61-7.819.694-2.573.085-5.485.46-7.924-.432-.858-.314-.953-1.427-.02-1.733zm.011-3.876c4.043-.575 8.59.01 12.656.35.651.054.6 1.01-.022 1.074-4.028.415-8.65.967-12.657.27-.877-.153-.863-1.568.023-1.694zm-.18-2.914c1.535-.502 3.166-.18 4.765-.05.634.05 1.268.107 1.901.167l3.799.374c.823.077.704 1.184-.092 1.204-1.907.05-3.817.12-5.725.122-1.557.002-3.215.217-4.66-.388-.614-.258-.672-1.206.012-1.43zm.008-3.736c1.498-.394 3.17.439 4.688.67 1.29.197 2.672.096 3.895.539.467.17.366.806-.042.965-1.353.529-3.162.275-4.59.141-1.38-.131-3.217-.091-4.224-1.114-.364-.369-.304-1.05.273-1.201zm-.002-2.778c.931-.316 1.895-.021 2.86.078 1.112.116 2.211.26 3.319.407.284.038.344.496.047.562-1.142.252-2.256.437-3.427.5-.973.055-1.995.251-2.879-.197-.578-.294-.563-1.132.08-1.35zm.18-3.063c1.58-.114 3.37.51 4.915.808.73.14.545 1.09-.165 1.072-.82-.02-1.638-.05-2.457-.075-.804-.025-1.623.028-2.398-.196-.78-.227-.782-1.546.104-1.61zm4.75-2.908c.71-.018.894.931.165 1.072-1.546.298-3.335.922-4.916.808-.886-.063-.885-1.382-.104-1.61.775-.224 1.594-.17 2.398-.195.819-.025 1.637-.054 2.457-.075zm-5.01-2.533c.884-.449 1.906-.251 2.879-.198 1.17.063 2.285.25 3.427.5.297.066.237.524-.047.562-1.108.147-2.207.292-3.319.408-.965.1-1.929.393-2.86.078-.643-.218-.658-1.055-.08-1.35zm4.034-3.743c1.427-.135 3.236-.388 4.59.14.407.16.508.796.041.965-1.223.444-2.604.342-3.895.54-1.518.23-3.19 1.065-4.688.67-.577-.152-.637-.832-.273-1.202 1.007-1.022 2.843-.982 4.225-1.113zm-3.971-2.85c1.444-.606 3.102-.39 4.66-.389 1.907.002 3.817.073 5.724.122.796.021.915 1.127.092 1.206l-3.799.373c-.633.06-1.267.117-1.9.168-1.6.129-3.231.452-4.766-.051-.684-.224-.626-1.172-.011-1.43zm.168-3.179c4.006-.697 8.629-.145 12.657.27.623.063.673 1.02.022 1.075-4.066.339-8.613.924-12.656.349-.886-.126-.9-1.54-.023-1.694zm.033-3.915c2.44-.893 5.351-.517 7.924-.432 2.538.084 5.45-.233 7.819.693.338.133.528.667.102.845-2.212.92-4.744.704-7.129.852-2.82.175-6.027.665-8.737-.225-.932-.307-.837-1.42.021-1.733zm-.19-4.061c1.444-.998 4.785-.471 6.444-.451l1.067.015 2.135.04c3.201.06 6.4.1 9.595-.204.753-.072.95 1.114.202 1.267-3.117.636-6.153.863-9.338.906-2.642.036-6.186-.392-8.808.275l.002.003c-.358.29-.965.236-1.31-.041l-.136-.109-.102-.093c-.245-.261-.288-.604-.205-.923.011-.058.036-.11.057-.164.027-.063.042-.127.08-.184.078-.125.178-.24.317-.337zm.089-4.353c7.482-1.436 16.079-.273 23.65.12.685.037.651 1.14-.036 1.159-7.625.185-15.966 1.386-23.51.33-.817-.115-.967-1.444-.104-1.61zm.304-3.936c9.464-.692 19.179-.032 28.612.816.731.066.635 1.257-.102 1.237-9.51-.256-19.023.139-28.522-.068-1.178-.026-1.156-1.9.012-1.985zm-.2-4.618c7.544-1.056 15.885.146 23.51.331.687.017.721 1.122.036 1.158-7.571.394-16.168 1.556-23.65.121-.863-.165-.713-1.495.103-1.61zm-.204-4.553c.345-.277.952-.331 1.31-.042l-.002.003c2.622.668 6.166.24 8.808.275 3.185.043 6.221.27 9.338.907.749.153.551 1.339-.202 1.267-4.26-.406-8.527-.199-12.797-.15-1.66.02-5 .548-6.444-.45-.14-.097-.24-.213-.317-.337-.038-.058-.053-.121-.08-.183-.02-.056-.046-.107-.057-.164-.094-.36-.028-.75.307-1.018l.136-.108zm.18-3.984c2.71-.89 5.918-.4 8.737-.225 2.385.148 4.917-.069 7.129.852.426.177.236.712-.102.844-2.37.927-5.28.61-7.819.694-2.573.085-5.485.46-7.924-.432-.858-.314-.953-1.427-.02-1.733zm.011-3.876c4.043-.575 8.59.01 12.656.35.651.054.6 1.01-.022 1.074-4.028.415-8.65.967-12.657.27-.877-.153-.863-1.568.023-1.694zm-.18-2.914c1.535-.502 3.166-.18 4.765-.05.634.05 1.268.107 1.901.167l3.799.374c.823.077.704 1.184-.092 1.204-1.907.05-3.817.12-5.725.122-1.557.002-3.215.217-4.66-.388-.614-.258-.672-1.206.012-1.43zm.008-3.736c1.498-.394 3.17.439 4.688.67 1.29.197 2.672.096 3.895.539.467.17.366.806-.042.965-1.353.529-3.162.275-4.59.141-1.38-.131-3.217-.091-4.224-1.114-.364-.369-.304-1.05.273-1.201zm-.002-2.778c.931-.316 1.895-.021 2.86.078 1.112.116 2.211.26 3.319.407.284.038.344.496.047.562-1.142.252-2.256.437-3.427.5-.973.055-1.995.251-2.879-.197-.578-.294-.563-1.132.08-1.35zm.18-3.063c1.58-.114 3.37.51 4.915.808.73.14.545 1.09-.165 1.072-.82-.02-1.638-.05-2.457-.075-.804-.025-1.623.028-2.398-.196-.78-.227-.782-1.546.104-1.61zM24.571 1071.106c.82.02 1.639.05 2.458.075.803.024 1.622-.03 2.397.195.781.228.782 1.547-.104 1.61-1.581.114-3.37-.51-4.915-.808-.73-.14-.546-1.09.164-1.072zm5.01-2.533c.579.295.563 1.132-.08 1.35-.931.315-1.894.022-2.86-.078-1.112-.116-2.21-.26-3.319-.408-.284-.038-.344-.496-.046-.561 1.141-.252 2.255-.438 3.426-.501.973-.053 1.995-.25 2.879.198zm-4.034-3.743c1.382.13 3.219.09 4.226 1.113.363.37.303 1.05-.274 1.202-1.498.395-3.17-.44-4.688-.67-1.29-.198-2.672-.096-3.895-.54-.467-.17-.366-.805.042-.965 1.353-.528 3.163-.275 4.59-.14zm3.972-2.85c.614.257.672 1.205-.012 1.429-1.534.503-3.166.18-4.765.051-.634-.05-1.268-.108-1.901-.168l-3.799-.373c-.823-.079-.703-1.185.092-1.206 1.907-.05 3.818-.12 5.725-.122 1.557-.002 3.215-.217 4.66.389zm-.169-3.179c.877.153.863 1.568-.023 1.694-4.043.575-8.59-.01-12.655-.35-.652-.054-.601-1.01.02-1.074 4.03-.415 8.652-.967 12.658-.27zm-.033-3.915c.859.314.954 1.426.021 1.733-2.71.89-5.918.4-8.737.225-2.385-.148-4.917.068-7.129-.852-.426-.178-.236-.712.102-.845 2.37-.926 5.281-.61 7.819-.693 2.573-.085 5.485-.46 7.924.432zm.19-4.061c.14.096.24.212.317.337.038.057.053.121.08.184.02.054.046.106.058.164.082.32.04.662-.206.923l-.102.093-.135.109c-.345.277-.953.332-1.31.041l.001-.003c-2.622-.667-6.166-.24-8.808-.275-3.185-.043-6.221-.27-9.338-.906-.749-.153-.55-1.339.202-1.267 3.195.304 6.394.264 9.595.203l2.135-.04 1.067-.014c1.66-.02 5-.547 6.444.45zm-.089-4.353c.863.165.713 1.494-.103 1.61-7.544 1.055-15.886-.146-23.51-.331-.688-.018-.722-1.122-.037-1.158 7.572-.394 16.168-1.557 23.65-.121zm-.304-3.936c1.168.086 1.19 1.96.013 1.985-9.5.207-19.012-.188-28.523.068-.737.02-.833-1.171-.102-1.237 9.433-.848 19.148-1.508 28.612-.816zm.2-4.618c.817.115.967 1.445.104 1.61-7.482 1.435-16.078.273-23.65-.12-.685-.037-.651-1.142.036-1.159 7.625-.185 15.967-1.387 23.51-.33zm.205-4.553c.044.037.09.072.135.108.335.269.4.658.308 1.018-.012.057-.037.108-.058.164-.027.062-.042.125-.08.183-.078.124-.177.24-.317.337-1.444.997-4.784.47-6.444.45-4.27-.049-8.538-.256-12.797.15-.753.072-.95-1.114-.202-1.267 3.117-.636 6.153-.864 9.338-.907 2.642-.034 6.186.393 8.808-.275l-.002-.003c.358-.289.966-.235 1.31.042zm-.18-3.984c.932.306.837 1.42-.022 1.733-2.439.893-5.35.517-7.924.432-2.538-.085-5.45.233-7.819-.694-.338-.132-.528-.667-.102-.844 2.212-.921 4.744-.704 7.129-.852 2.82-.175 6.027-.665 8.737.225zm-.012-3.876c.886.126.9 1.54.023 1.694-4.006.697-8.629.145-12.657-.27-.622-.063-.673-1.02-.021-1.075 4.065-.339 8.612-.924 12.655-.349zm.18-2.914c.684.223.626 1.171.012 1.429-1.445.605-3.103.39-4.66.388-1.907-.002-3.818-.072-5.725-.122-.795-.02-.915-1.127-.092-1.204l3.799-.374c.633-.06 1.267-.117 1.9-.168 1.6-.128 3.232-.451 4.766.05zm-.008-3.736c.577.152.637.832.274 1.201-1.007 1.023-2.844.983-4.226 1.114-1.426.134-3.236.388-4.59-.141-.407-.159-.508-.795-.04-.965 1.222-.443 2.604-.342 3.894-.539 1.518-.231 3.19-1.064 4.688-.67zm.002-2.778c.643.218.659 1.056.08 1.35-.884.448-1.906.252-2.879.198-1.17-.064-2.285-.249-3.426-.501-.298-.066-.238-.524.046-.562 1.108-.147 2.207-.29 3.32-.407.965-.1 1.928-.394 2.86-.078zm-.179-3.063c.886.063.885 1.382.104 1.609-.775.224-1.594.17-2.397.196-.82.025-1.638.054-2.458.075-.71.018-.894-.931-.164-1.072 1.545-.298 3.334-.922 4.915-.808zm-4.75-2.908c.82.02 1.638.05 2.457.075.803.024 1.622-.03 2.397.195.781.228.782 1.547-.104 1.61-1.581.114-3.37-.51-4.915-.808-.73-.14-.546-1.09.164-1.072zm5.009-2.533c.579.295.563 1.132-.08 1.35-.931.315-1.894.022-2.86-.078-1.112-.116-2.21-.26-3.319-.408-.284-.038-.344-.496-.046-.561 1.141-.252 2.255-.438 3.426-.501.973-.053 1.995-.25 2.879.198zm-4.034-3.743c1.382.13 3.219.09 4.226 1.113.363.37.303 1.05-.274 1.202-1.498.395-3.17-.44-4.688-.67-1.29-.198-2.672-.096-3.895-.54-.467-.17-.366-.805.042-.965 1.353-.528 3.163-.275 4.59-.14zm3.972-2.85c.614.257.672 1.205-.012 1.429-1.534.503-3.166.18-4.765.051-.634-.05-1.268-.108-1.901-.168l-3.799-.373c-.823-.079-.703-1.185.092-1.206 1.907-.05 3.818-.12 5.725-.122 1.557-.002 3.215-.217 4.66.389zm-.169-3.179c.877.153.863 1.568-.023 1.694-4.043.575-8.59-.01-12.655-.35-.652-.054-.601-1.01.02-1.074 4.03-.415 8.652-.967 12.658-.27zm-.033-3.915c.859.314.954 1.426.021 1.733-2.71.89-5.918.4-8.737.225-2.385-.148-4.917.068-7.129-.852-.426-.178-.236-.712.102-.845 2.37-.926 5.281-.61 7.819-.693 2.573-.085 5.485-.46 7.924.432zm.19-4.061c.14.096.24.212.317.337.038.057.053.121.08.184.02.054.046.106.058.164.082.32.04.662-.206.923l-.102.093-.135.109c-.345.277-.953.332-1.31.041l.001-.003c-2.622-.667-6.166-.24-8.808-.275-3.185-.043-6.221-.27-9.338-.906-.749-.153-.55-1.339.202-1.267 3.195.304 6.394.264 9.595.203l2.135-.04 1.067-.014c1.66-.02 5-.547 6.444.45zm-.089-4.353c.863.165.713 1.494-.103 1.61-7.544 1.055-15.886-.146-23.51-.331-.688-.018-.722-1.122-.037-1.158 7.572-.394 16.168-1.557 23.65-.121zm-.304-3.936c1.168.086 1.19 1.96.013 1.985-9.5.207-19.012-.188-28.523.068-.737.02-.833-1.171-.102-1.237 9.433-.848 19.148-1.508 28.612-.816zm.2-4.618c.817.115.967 1.445.104 1.61-7.482 1.435-16.078.273-23.65-.12-.685-.037-.651-1.142.036-1.159 7.625-.185 15.967-1.387 23.51-.33zm.205-4.553c.044.037.09.072.135.108.335.269.4.658.308 1.018-.012.057-.037.108-.058.164-.027.062-.042.125-.08.183-.078.124-.177.24-.317.337-1.444.998-4.784.47-6.444.45-4.27-.049-8.538-.256-12.797.15-.753.072-.95-1.114-.202-1.267 3.117-.636 6.153-.864 9.338-.907 2.642-.034 6.186.393 8.808-.275l-.002-.003c.358-.289.966-.235 1.31.042zm-.18-3.984c.932.306.837 1.42-.022 1.733-2.439.893-5.35.517-7.924.432-2.538-.085-5.45.233-7.819-.694-.338-.132-.528-.667-.102-.844 2.212-.921 4.744-.704 7.129-.852 2.82-.175 6.027-.665 8.737.225zm-.012-3.876c.886.126.9 1.54.023 1.694-4.006.697-8.629.145-12.657-.27-.622-.063-.673-1.02-.021-1.075 4.065-.339 8.612-.924 12.655-.349zm.18-2.914c.684.223.626 1.171.012 1.429-1.445.605-3.103.39-4.66.388-1.907-.002-3.818-.072-5.725-.122-.795-.02-.915-1.127-.092-1.204l3.799-.374c.633-.06 1.267-.117 1.9-.168 1.6-.128 3.232-.451 4.766.05zm-.008-3.736c.577.152.637.832.274 1.201-1.007 1.023-2.844.983-4.226 1.114-1.426.134-3.236.388-4.59-.141-.407-.159-.508-.795-.04-.965 1.222-.443 2.604-.342 3.894-.539 1.518-.231 3.19-1.064 4.688-.67zm.002-2.778c.643.218.659 1.056.08 1.35-.884.448-1.906.252-2.879.198-1.17-.064-2.285-.249-3.426-.501-.298-.066-.238-.524.046-.562 1.108-.147 2.207-.29 3.32-.407.965-.1 1.928-.394 2.86-.078zm-.179-3.063c.886.063.885 1.382.104 1.609-.775.224-1.594.17-2.397.196-.82.025-1.638.054-2.458.075-.71.018-.894-.931-.164-1.072 1.545-.298 3.334-.922 4.915-.808zM30.429 1193.106c.71-.018.894.931.165 1.072-1.546.298-3.335.922-4.916.808-.886-.063-.885-1.382-.104-1.61.775-.224 1.594-.17 2.398-.195.819-.025 1.637-.054 2.457-.075zm-5.01-2.533c.884-.449 1.906-.251 2.879-.198 1.17.063 2.285.25 3.427.5.297.066.237.524-.047.562-1.108.147-2.207.292-3.319.408-.965.1-1.929.393-2.86.078-.643-.218-.658-1.055-.08-1.35zm4.034-3.743c1.427-.135 3.236-.388 4.59.14.407.16.508.796.041.965-1.223.444-2.604.342-3.895.54-1.518.23-3.19 1.065-4.688.67-.577-.152-.637-.832-.273-1.202 1.007-1.022 2.843-.982 4.225-1.113zm-3.971-2.85c1.444-.606 3.102-.39 4.66-.389 1.907.002 3.817.073 5.724.122.796.021.915 1.127.092 1.206l-3.799.373c-.633.06-1.267.117-1.9.168-1.6.129-3.231.452-4.766-.051-.684-.224-.626-1.172-.011-1.43zm.168-3.179c4.006-.697 8.629-.145 12.657.27.623.063.673 1.02.022 1.075-4.066.339-8.613.924-12.656.349-.886-.126-.9-1.54-.023-1.694zm.033-3.915c2.44-.893 5.351-.517 7.924-.432 2.538.084 5.45-.233 7.819.693.338.133.528.667.102.845-2.212.92-4.744.704-7.129.852-2.82.175-6.027.665-8.737-.225-.932-.307-.837-1.42.021-1.733zm-.19-4.061c1.444-.998 4.785-.471 6.444-.451l1.067.015 2.135.04c3.201.06 6.4.1 9.595-.204.753-.072.95 1.114.202 1.267-3.117.636-6.153.863-9.338.906-2.642.036-6.186-.392-8.808.275l.002.003c-.358.29-.965.236-1.31-.041l-.136-.109-.102-.093c-.245-.261-.288-.604-.205-.923.011-.058.036-.11.057-.164.027-.063.042-.127.08-.184.078-.125.178-.24.317-.337zm.089-4.353c7.482-1.436 16.079-.273 23.65.12.685.037.651 1.14-.036 1.159-7.625.185-15.966 1.386-23.51.33-.817-.115-.967-1.444-.104-1.61zm.304-3.936c9.464-.692 19.179-.032 28.612.816.731.066.635 1.257-.102 1.237-9.51-.256-19.023.139-28.522-.068-1.178-.026-1.156-1.9.012-1.985zm-.2-4.618c7.544-1.056 15.885.146 23.51.331.687.017.721 1.122.036 1.158-7.571.394-16.168 1.556-23.65.121-.863-.165-.713-1.495.103-1.61zm-.204-4.553c.345-.277.952-.331 1.31-.042l-.002.003c2.622.668 6.166.24 8.808.275 3.185.043 6.221.27 9.338.907.749.153.551 1.339-.202 1.267-4.26-.406-8.527-.199-12.797-.15-1.66.02-5 .547-6.444-.45-.14-.097-.24-.213-.317-.337-.038-.058-.053-.121-.08-.183-.02-.056-.046-.107-.057-.164-.094-.36-.028-.75.307-1.018l.136-.108zm.18-3.984c2.71-.89 5.918-.4 8.737-.225 2.385.148 4.917-.069 7.129.852.426.177.236.712-.102.844-2.37.927-5.28.61-7.819.694-2.573.085-5.485.46-7.924-.432-.858-.314-.953-1.427-.02-1.733zm.011-3.876c4.043-.575 8.59.01 12.656.35.651.054.6 1.01-.022 1.074-4.028.415-8.65.967-12.657.27-.877-.153-.863-1.568.023-1.694zm-.18-2.914c1.535-.502 3.166-.18 4.765-.05.634.05 1.268.107 1.901.167l3.799.374c.823.077.704 1.184-.092 1.204-1.907.05-3.817.12-5.725.122-1.557.002-3.215.217-4.66-.388-.614-.258-.672-1.206.012-1.43zm.008-3.736c1.498-.394 3.17.439 4.688.67 1.29.197 2.672.096 3.895.539.467.17.366.806-.042.965-1.353.529-3.162.275-4.59.141-1.38-.131-3.217-.091-4.224-1.114-.364-.369-.304-1.05.273-1.201zm-.002-2.778c.931-.316 1.895-.021 2.86.078 1.112.116 2.211.26 3.319.407.284.038.344.496.047.562-1.142.252-2.256.437-3.427.5-.973.055-1.995.251-2.879-.197-.578-.294-.563-1.132.08-1.35zm.18-3.063c1.58-.114 3.37.51 4.915.808.73.14.545 1.09-.165 1.072-.82-.02-1.638-.05-2.457-.075-.804-.025-1.623.028-2.398-.196-.78-.227-.782-1.546.104-1.61zm4.75-2.908c.71-.018.894.931.165 1.072-1.546.298-3.335.922-4.916.808-.886-.063-.885-1.382-.104-1.61.775-.224 1.594-.17 2.398-.195.819-.025 1.637-.054 2.457-.075zm-5.01-2.533c.884-.449 1.906-.251 2.879-.198 1.17.063 2.285.25 3.427.5.297.066.237.524-.047.562-1.108.147-2.207.292-3.319.408-.965.1-1.929.393-2.86.078-.643-.218-.658-1.055-.08-1.35zm4.034-3.743c1.427-.135 3.236-.388 4.59.14.407.16.508.796.041.965-1.223.444-2.604.342-3.895.54-1.518.23-3.19 1.065-4.688.67-.577-.152-.637-.832-.273-1.202 1.007-1.022 2.843-.982 4.225-1.113zm-3.971-2.85c1.444-.606 3.102-.39 4.66-.389 1.907.002 3.817.073 5.724.122.796.021.915 1.127.092 1.206l-3.799.373c-.633.06-1.267.117-1.9.168-1.6.129-3.231.452-4.766-.051-.684-.224-.626-1.172-.011-1.43zm.168-3.179c4.006-.697 8.629-.145 12.657.27.623.063.673 1.02.022 1.075-4.066.339-8.613.924-12.656.349-.886-.126-.9-1.54-.023-1.694zm.033-3.915c2.44-.893 5.351-.517 7.924-.432 2.538.084 5.45-.233 7.819.693.338.133.528.667.102.845-2.212.92-4.744.704-7.129.852-2.82.175-6.027.665-8.737-.225-.932-.307-.837-1.42.021-1.733zm-.19-4.061c1.444-.998 4.785-.471 6.444-.451l1.067.015 2.135.04c3.201.06 6.4.1 9.595-.204.753-.072.95 1.114.202 1.267-3.117.636-6.153.863-9.338.906-2.642.036-6.186-.392-8.808.275l.002.003c-.358.29-.965.236-1.31-.041l-.136-.109-.102-.093c-.245-.261-.288-.604-.205-.923.011-.058.036-.11.057-.164.027-.063.042-.127.08-.184.078-.125.178-.24.317-.337zm.089-4.353c7.482-1.436 16.079-.273 23.65.12.685.037.651 1.14-.036 1.159-7.625.185-15.966 1.386-23.51.33-.817-.115-.967-1.444-.104-1.61zm.304-3.936c9.464-.692 19.179-.032 28.612.816.731.066.635 1.257-.102 1.237-9.51-.256-19.023.139-28.522-.068-1.178-.026-1.156-1.9.012-1.985zm-.2-4.618c7.544-1.056 15.885.146 23.51.331.687.017.721 1.122.036 1.158-7.571.394-16.168 1.556-23.65.121-.863-.165-.713-1.495.103-1.61zm-.204-4.553c.345-.277.952-.331 1.31-.042l-.002.003c2.622.668 6.166.24 8.808.275 3.185.043 6.221.27 9.338.907.749.153.551 1.339-.202 1.267-4.26-.406-8.527-.199-12.797-.15-1.66.02-5 .547-6.444-.45-.14-.097-.24-.213-.317-.337-.038-.058-.053-.121-.08-.183-.02-.056-.046-.107-.057-.164-.094-.36-.028-.75.307-1.018l.136-.108zm.18-3.984c2.71-.89 5.918-.4 8.737-.225 2.385.148 4.917-.069 7.129.852.426.177.236.712-.102.844-2.37.927-5.28.61-7.819.694-2.573.085-5.485.46-7.924-.432-.858-.314-.953-1.427-.02-1.733zm.011-3.876c4.043-.575 8.59.01 12.656.35.651.054.6 1.01-.022 1.074-4.028.415-8.65.967-12.657.27-.877-.153-.863-1.568.023-1.694zm-.18-2.914c1.535-.502 3.166-.18 4.765-.05.634.05 1.268.107 1.901.167l3.799.374c.823.077.704 1.184-.092 1.204-1.907.05-3.817.12-5.725.122-1.557.002-3.215.217-4.66-.388-.614-.258-.672-1.206.012-1.43zm.008-3.736c1.498-.394 3.17.439 4.688.67 1.29.197 2.672.096 3.895.539.467.17.366.806-.042.965-1.353.529-3.162.275-4.59.141-1.38-.131-3.217-.091-4.224-1.114-.364-.369-.304-1.05.273-1.201zm-.002-2.778c.931-.316 1.895-.021 2.86.078 1.112.116 2.211.26 3.319.407.284.038.344.496.047.562-1.142.252-2.256.437-3.427.5-.973.055-1.995.251-2.879-.197-.578-.294-.563-1.132.08-1.35zm.18-3.063c1.58-.114 3.37.51 4.915.808.73.14.545 1.09-.165 1.072-.82-.02-1.638-.05-2.457-.075-.804-.025-1.623.028-2.398-.196-.78-.227-.782-1.546.104-1.61zM24.571 1315.106c.82.02 1.639.05 2.458.075.803.024 1.622-.03 2.397.195.781.228.782 1.547-.104 1.61-1.581.114-3.37-.51-4.915-.808-.73-.14-.546-1.09.164-1.072zm5.01-2.533c.579.295.563 1.132-.08 1.35-.931.315-1.894.022-2.86-.078-1.112-.116-2.21-.26-3.319-.408-.284-.038-.344-.496-.046-.561 1.141-.252 2.255-.438 3.426-.501.973-.053 1.995-.25 2.879.198zm-4.034-3.743c1.382.13 3.219.09 4.226 1.113.363.37.303 1.05-.274 1.202-1.498.395-3.17-.44-4.688-.67-1.29-.198-2.672-.096-3.895-.54-.467-.17-.366-.805.042-.965 1.353-.528 3.163-.275 4.59-.14zm3.972-2.85c.614.257.672 1.205-.012 1.429-1.534.503-3.166.18-4.765.051-.634-.05-1.268-.108-1.901-.168l-3.799-.373c-.823-.079-.703-1.185.092-1.206 1.907-.05 3.818-.12 5.725-.122 1.557-.002 3.215-.217 4.66.389zm-.169-3.179c.877.153.863 1.568-.023 1.694-4.043.575-8.59-.01-12.655-.35-.652-.054-.601-1.01.02-1.074 4.03-.415 8.652-.967 12.658-.27zm-.033-3.915c.859.314.954 1.426.021 1.733-2.71.89-5.918.4-8.737.225-2.385-.148-4.917.068-7.129-.852-.426-.178-.236-.712.102-.845 2.37-.926 5.281-.61 7.819-.693 2.573-.085 5.485-.46 7.924.432zm.19-4.061c.14.096.24.212.317.337.038.057.053.121.08.184.02.054.046.106.058.164.082.32.04.662-.206.923l-.102.093-.135.109c-.345.277-.953.332-1.31.041l.001-.003c-2.622-.667-6.166-.24-8.808-.275-3.185-.043-6.221-.27-9.338-.906-.749-.153-.55-1.339.202-1.267 3.195.304 6.394.264 9.595.203l2.135-.04 1.067-.014c1.66-.02 5-.547 6.444.45zm-.089-4.353c.863.165.713 1.494-.103 1.61-7.544 1.055-15.886-.146-23.51-.331-.688-.018-.722-1.122-.037-1.158 7.572-.394 16.168-1.557 23.65-.121zm-.304-3.936c1.168.086 1.19 1.96.013 1.985-9.5.207-19.012-.188-28.523.068-.737.02-.833-1.171-.102-1.237 9.433-.848 19.148-1.508 28.612-.816zm.2-4.618c.817.115.967 1.445.104 1.61-7.482 1.435-16.078.273-23.65-.12-.685-.037-.651-1.142.036-1.159 7.625-.185 15.967-1.387 23.51-.33zm.205-4.553c.044.037.09.072.135.108.335.269.4.658.308 1.018-.012.057-.037.108-.058.164-.027.062-.042.125-.08.183-.078.124-.177.24-.317.337-1.444.997-4.784.47-6.444.45-4.27-.049-8.538-.256-12.797.15-.753.072-.95-1.114-.202-1.267 3.117-.636 6.153-.864 9.338-.907 2.642-.034 6.186.393 8.808-.275l-.002-.003c.358-.289.966-.235 1.31.042zm-.18-3.984c.932.306.837 1.42-.022 1.733-2.439.893-5.35.517-7.924.432-2.538-.085-5.45.233-7.819-.694-.338-.132-.528-.667-.102-.844 2.212-.921 4.744-.704 7.129-.852 2.82-.175 6.027-.665 8.737.225zm-.012-3.876c.886.126.9 1.54.023 1.694-4.006.697-8.629.145-12.657-.27-.622-.063-.673-1.02-.021-1.075 4.065-.339 8.612-.924 12.655-.349zm.18-2.914c.684.223.626 1.171.012 1.429-1.445.605-3.103.39-4.66.388-1.907-.002-3.818-.072-5.725-.122-.795-.02-.915-1.127-.092-1.204l3.799-.374c.633-.06 1.267-.117 1.9-.168 1.6-.128 3.232-.451 4.766.05zm-.008-3.736c.577.152.637.832.274 1.201-1.007 1.023-2.844.983-4.226 1.114-1.426.134-3.236.388-4.59-.141-.407-.159-.508-.795-.04-.965 1.222-.443 2.604-.342 3.894-.539 1.518-.231 3.19-1.064 4.688-.67zm.002-2.778c.643.218.659 1.056.08 1.35-.884.448-1.906.252-2.879.198-1.17-.064-2.285-.249-3.426-.501-.298-.066-.238-.524.046-.562 1.108-.147 2.207-.29 3.32-.407.965-.1 1.928-.394 2.86-.078zm-.179-3.063c.886.063.885 1.382.104 1.609-.775.224-1.594.17-2.397.196-.82.025-1.638.054-2.458.075-.71.018-.894-.931-.164-1.072 1.545-.298 3.334-.922 4.915-.808zm-4.75-2.908c.82.02 1.638.05 2.457.075.803.024 1.622-.03 2.397.195.781.228.782 1.547-.104 1.61-1.581.114-3.37-.51-4.915-.808-.73-.14-.546-1.09.164-1.072zm5.009-2.533c.579.295.563 1.132-.08 1.35-.931.315-1.894.022-2.86-.078-1.112-.116-2.21-.26-3.319-.408-.284-.038-.344-.496-.046-.561 1.141-.252 2.255-.438 3.426-.501.973-.053 1.995-.25 2.879.198zm-4.034-3.743c1.382.13 3.219.09 4.226 1.113.363.37.303 1.05-.274 1.202-1.498.395-3.17-.44-4.688-.67-1.29-.198-2.672-.096-3.895-.54-.467-.17-.366-.805.042-.965 1.353-.528 3.163-.275 4.59-.14zm3.972-2.85c.614.257.672 1.205-.012 1.429-1.534.503-3.166.18-4.765.051-.634-.05-1.268-.108-1.901-.168l-3.799-.373c-.823-.079-.703-1.185.092-1.206 1.907-.05 3.818-.12 5.725-.122 1.557-.002 3.215-.217 4.66.389zm-.169-3.179c.877.153.863 1.568-.023 1.694-4.043.575-8.59-.01-12.655-.35-.652-.054-.601-1.01.02-1.074 4.03-.415 8.652-.967 12.658-.27zm-.033-3.915c.859.314.954 1.426.021 1.733-2.71.89-5.918.4-8.737.225-2.385-.148-4.917.068-7.129-.852-.426-.178-.236-.712.102-.845 2.37-.926 5.281-.61 7.819-.693 2.573-.085 5.485-.46 7.924.432zm.19-4.061c.14.096.24.212.317.337.038.057.053.121.08.184.02.054.046.106.058.164.082.32.04.662-.206.923l-.102.093-.135.109c-.345.277-.953.332-1.31.041l.001-.003c-2.622-.667-6.166-.24-8.808-.275-3.185-.043-6.221-.27-9.338-.906-.749-.153-.55-1.339.202-1.267 3.195.304 6.394.264 9.595.203l2.135-.04 1.067-.014c1.66-.02 5-.547 6.444.45zm-.089-4.353c.863.165.713 1.494-.103 1.61-7.544 1.055-15.886-.146-23.51-.331-.688-.018-.722-1.122-.037-1.158 7.572-.394 16.168-1.557 23.65-.121zm-.304-3.936c1.168.086 1.19 1.96.013 1.985-9.5.207-19.012-.188-28.523.068-.737.02-.833-1.171-.102-1.237 9.433-.848 19.148-1.508 28.612-.816zm.2-4.618c.817.115.967 1.445.104 1.61-7.482 1.435-16.078.273-23.65-.12-.685-.037-.651-1.142.036-1.159 7.625-.185 15.967-1.387 23.51-.33zm.205-4.553c.044.037.09.072.135.108.335.269.4.658.308 1.018-.012.057-.037.108-.058.164-.027.062-.042.125-.08.183-.078.124-.177.24-.317.337-1.444.997-4.784.47-6.444.45-4.27-.049-8.538-.256-12.797.15-.753.072-.95-1.114-.202-1.267 3.117-.636 6.153-.864 9.338-.907 2.642-.034 6.186.393 8.808-.275l-.002-.003c.358-.289.966-.235 1.31.042zm-.18-3.984c.932.306.837 1.42-.022 1.733-2.439.893-5.35.517-7.924.432-2.538-.085-5.45.233-7.819-.694-.338-.132-.528-.667-.102-.844 2.212-.921 4.744-.704 7.129-.852 2.82-.175 6.027-.665 8.737.225zm-.012-3.876c.886.126.9 1.54.023 1.694-4.006.697-8.629.145-12.657-.27-.622-.063-.673-1.02-.021-1.075 4.065-.339 8.612-.924 12.655-.349zm.18-2.914c.684.223.626 1.171.012 1.429-1.445.605-3.103.39-4.66.388-1.907-.002-3.818-.072-5.725-.122-.795-.02-.915-1.127-.092-1.204l3.799-.374c.633-.06 1.267-.117 1.9-.168 1.6-.128 3.232-.451 4.766.05zm-.008-3.736c.577.152.637.832.274 1.201-1.007 1.023-2.844.983-4.226 1.114-1.426.134-3.236.388-4.59-.141-.407-.159-.508-.795-.04-.965 1.222-.443 2.604-.342 3.894-.539 1.518-.231 3.19-1.064 4.688-.67zm.002-2.778c.643.218.659 1.056.08 1.35-.884.448-1.906.252-2.879.198-1.17-.064-2.285-.249-3.426-.501-.298-.066-.238-.524.046-.562 1.108-.147 2.207-.29 3.32-.407.965-.1 1.928-.394 2.86-.078zm-.179-3.063c.886.063.885 1.382.104 1.609-.775.224-1.594.17-2.397.196-.82.025-1.638.054-2.458.075-.71.018-.894-.931-.164-1.072 1.545-.298 3.334-.922 4.915-.808zM30.429 1437.106c.71-.018.894.931.165 1.072-1.546.298-3.335.922-4.916.808-.886-.063-.885-1.382-.104-1.61.775-.224 1.594-.17 2.398-.195.819-.025 1.637-.054 2.457-.075zm-5.01-2.533c.884-.449 1.906-.251 2.879-.198 1.17.063 2.285.25 3.427.5.297.066.237.524-.047.562-1.108.147-2.207.292-3.319.408-.965.1-1.929.393-2.86.078-.643-.218-.658-1.055-.08-1.35zm4.034-3.743c1.427-.135 3.236-.388 4.59.14.407.16.508.796.041.965-1.223.444-2.604.342-3.895.54-1.518.23-3.19 1.065-4.688.67-.577-.152-.637-.832-.273-1.202 1.007-1.022 2.843-.982 4.225-1.113zm-3.971-2.85c1.444-.606 3.102-.39 4.66-.389 1.907.002 3.817.073 5.724.122.796.021.915 1.127.092 1.206l-3.799.373c-.633.06-1.267.117-1.9.168-1.6.129-3.231.452-4.766-.051-.684-.224-.626-1.172-.011-1.43zm.168-3.179c4.006-.697 8.629-.145 12.657.27.623.063.673 1.02.022 1.075-4.066.339-8.613.924-12.656.349-.886-.126-.9-1.54-.023-1.694zm.033-3.915c2.44-.893 5.351-.517 7.924-.432 2.538.084 5.45-.233 7.819.693.338.133.528.667.102.845-2.212.92-4.744.704-7.129.852-2.82.175-6.027.665-8.737-.225-.932-.307-.837-1.42.021-1.733zm-.19-4.061c1.444-.998 4.785-.471 6.444-.451l1.067.015 2.135.04c3.201.06 6.4.1 9.595-.204.753-.072.95 1.114.202 1.267-3.117.636-6.153.863-9.338.906-2.642.036-6.186-.392-8.808.275l.002.003c-.358.29-.965.236-1.31-.041l-.136-.109-.102-.093c-.245-.261-.288-.604-.205-.923.011-.058.036-.11.057-.164.027-.063.042-.127.08-.184.078-.125.178-.24.317-.337zm.089-4.353c7.482-1.436 16.079-.273 23.65.12.685.037.651 1.14-.036 1.159-7.625.185-15.966 1.386-23.51.33-.817-.115-.967-1.444-.104-1.61zm.304-3.936c9.464-.692 19.179-.032 28.612.816.731.066.635 1.257-.102 1.237-9.51-.256-19.023.139-28.522-.068-1.178-.026-1.156-1.9.012-1.985zm-.2-4.618c7.544-1.056 15.885.146 23.51.331.687.017.721 1.122.036 1.158-7.571.394-16.168 1.556-23.65.121-.863-.165-.713-1.495.103-1.61zm-.204-4.553c.345-.277.952-.331 1.31-.042l-.002.003c2.622.668 6.166.24 8.808.275 3.185.043 6.221.27 9.338.907.749.153.551 1.339-.202 1.267-4.26-.406-8.527-.199-12.797-.15-1.66.02-5 .547-6.444-.45-.14-.097-.24-.213-.317-.337-.038-.058-.053-.121-.08-.183-.02-.056-.046-.107-.057-.164-.094-.36-.028-.75.307-1.018l.136-.108zm.18-3.984c2.71-.89 5.918-.4 8.737-.225 2.385.148 4.917-.069 7.129.852.426.177.236.712-.102.844-2.37.927-5.28.61-7.819.694-2.573.085-5.485.46-7.924-.432-.858-.314-.953-1.427-.02-1.733zm.011-3.876c4.043-.575 8.59.01 12.656.35.651.054.6 1.01-.022 1.074-4.028.415-8.65.967-12.657.27-.877-.153-.863-1.568.023-1.694zm-.18-2.914c1.535-.502 3.166-.18 4.765-.05.634.05 1.268.107 1.901.167l3.799.374c.823.077.704 1.184-.092 1.204-1.907.05-3.817.12-5.725.122-1.557.002-3.215.217-4.66-.388-.614-.258-.672-1.206.012-1.43zm.008-3.736c1.498-.394 3.17.439 4.688.67 1.29.197 2.672.096 3.895.539.467.17.366.806-.042.965-1.353.529-3.162.275-4.59.141-1.38-.131-3.217-.091-4.224-1.114-.364-.369-.304-1.05.273-1.201zm-.002-2.778c.931-.316 1.895-.021 2.86.078 1.112.116 2.211.26 3.319.407.284.038.344.496.047.562-1.142.252-2.256.437-3.427.5-.973.055-1.995.251-2.879-.197-.578-.294-.563-1.132.08-1.35zm.18-3.063c1.58-.114 3.37.51 4.915.808.73.14.545 1.09-.165 1.072-.82-.02-1.638-.05-2.457-.075-.804-.025-1.623.028-2.398-.196-.78-.227-.782-1.546.104-1.61zm4.75-2.908c.71-.018.894.931.165 1.072-1.546.298-3.335.922-4.916.808-.886-.063-.885-1.382-.104-1.61.775-.224 1.594-.17 2.398-.195.819-.025 1.637-.054 2.457-.075zm-5.01-2.533c.884-.449 1.906-.251 2.879-.198 1.17.063 2.285.25 3.427.5.297.066.237.524-.047.562-1.108.147-2.207.292-3.319.408-.965.1-1.929.393-2.86.078-.643-.218-.658-1.055-.08-1.35zm4.034-3.743c1.427-.135 3.236-.388 4.59.14.407.16.508.796.041.965-1.223.444-2.604.342-3.895.54-1.518.23-3.19 1.065-4.688.67-.577-.152-.637-.832-.273-1.202 1.007-1.022 2.843-.982 4.225-1.113zm-3.971-2.85c1.444-.606 3.102-.39 4.66-.389 1.907.002 3.817.073 5.724.122.796.021.915 1.127.092 1.206l-3.799.373c-.633.06-1.267.117-1.9.168-1.6.129-3.231.452-4.766-.051-.684-.224-.626-1.172-.011-1.43zm.168-3.179c4.006-.697 8.629-.145 12.657.27.623.063.673 1.02.022 1.075-4.066.339-8.613.924-12.656.349-.886-.126-.9-1.54-.023-1.694zm.033-3.915c2.44-.893 5.351-.517 7.924-.432 2.538.084 5.45-.233 7.819.693.338.133.528.667.102.845-2.212.92-4.744.704-7.129.852-2.82.175-6.027.665-8.737-.225-.932-.307-.837-1.42.021-1.733zm-.19-4.061c1.444-.998 4.785-.471 6.444-.451l1.067.015 2.135.04c3.201.06 6.4.1 9.595-.204.753-.072.95 1.114.202 1.267-3.117.636-6.153.863-9.338.906-2.642.036-6.186-.392-8.808.275l.002.003c-.358.29-.965.236-1.31-.041l-.136-.109-.102-.093c-.245-.261-.288-.604-.205-.923.011-.058.036-.11.057-.164.027-.063.042-.127.08-.184.078-.125.178-.24.317-.337zm.089-4.353c7.482-1.436 16.079-.273 23.65.12.685.037.651 1.14-.036 1.159-7.625.185-15.966 1.386-23.51.33-.817-.115-.967-1.444-.104-1.61zm.304-3.936c9.464-.692 19.179-.032 28.612.816.731.066.635 1.257-.102 1.237-9.51-.256-19.023.139-28.522-.068-1.178-.026-1.156-1.9.012-1.985zm-.2-4.618c7.544-1.056 15.885.146 23.51.331.687.017.721 1.122.036 1.158-7.571.394-16.168 1.556-23.65.121-.863-.165-.713-1.495.103-1.61zm-.204-4.553c.345-.277.952-.331 1.31-.042l-.002.003c2.622.668 6.166.24 8.808.275 3.185.043 6.221.27 9.338.907.749.153.551 1.339-.202 1.267-4.26-.406-8.527-.199-12.797-.15-1.66.02-5 .547-6.444-.45-.14-.097-.24-.213-.317-.337-.038-.058-.053-.121-.08-.183-.02-.056-.046-.107-.057-.164-.094-.36-.028-.75.307-1.018l.136-.108zm.18-3.984c2.71-.89 5.918-.4 8.737-.225 2.385.148 4.917-.069 7.129.852.426.177.236.712-.102.844-2.37.927-5.28.61-7.819.694-2.573.085-5.485.46-7.924-.432-.858-.314-.953-1.427-.02-1.733zm.011-3.876c4.043-.575 8.59.01 12.656.35.651.054.6 1.01-.022 1.074-4.028.415-8.65.967-12.657.27-.877-.153-.863-1.568.023-1.694zm-.18-2.914c1.535-.502 3.166-.18 4.765-.05.634.05 1.268.107 1.901.167l3.799.374c.823.077.704 1.184-.092 1.204-1.907.05-3.817.12-5.725.122-1.557.002-3.215.217-4.66-.388-.614-.258-.672-1.206.012-1.43zm.008-3.736c1.498-.394 3.17.439 4.688.67 1.29.197 2.672.096 3.895.539.467.17.366.806-.042.965-1.353.529-3.162.275-4.59.141-1.38-.131-3.217-.091-4.224-1.114-.364-.369-.304-1.05.273-1.201zm-.002-2.778c.931-.316 1.895-.021 2.86.078 1.112.116 2.211.26 3.319.407.284.038.344.496.047.562-1.142.252-2.256.437-3.427.5-.973.055-1.995.251-2.879-.197-.578-.294-.563-1.132.08-1.35zm.18-3.063c1.58-.114 3.37.51 4.915.808.73.14.545 1.09-.165 1.072-.82-.02-1.638-.05-2.457-.075-.804-.025-1.623.028-2.398-.196-.78-.227-.782-1.546.104-1.61zM30.429 705.106c.71-.018.894.931.165 1.072-1.546.298-3.335.922-4.916.808-.886-.063-.885-1.382-.104-1.61.775-.224 1.594-.17 2.398-.195.819-.025 1.637-.054 2.457-.075zm-5.01-2.533c.884-.449 1.906-.251 2.879-.198 1.17.063 2.285.25 3.427.5.297.066.237.524-.047.562-1.108.147-2.207.292-3.319.408-.965.1-1.929.393-2.86.078-.643-.218-.658-1.055-.08-1.35zm4.034-3.743c1.427-.135 3.236-.388 4.59.14.407.16.508.796.041.965-1.223.444-2.604.342-3.895.54-1.518.23-3.19 1.065-4.688.67-.577-.152-.637-.832-.273-1.202 1.007-1.022 2.843-.982 4.225-1.113zm-3.971-2.85c1.444-.606 3.102-.39 4.66-.389 1.907.002 3.817.073 5.724.122.796.021.915 1.127.092 1.206l-3.799.373c-.633.06-1.267.117-1.9.168-1.6.129-3.231.452-4.766-.051-.684-.224-.626-1.172-.011-1.43zm.168-3.179c4.006-.697 8.629-.145 12.657.27.623.063.673 1.02.022 1.075-4.066.339-8.613.924-12.656.349-.886-.126-.9-1.54-.023-1.694zm.033-3.915c2.44-.893 5.351-.517 7.924-.432 2.538.084 5.45-.233 7.819.693.338.133.528.667.102.845-2.212.92-4.744.704-7.129.852-2.82.175-6.027.665-8.737-.225-.932-.307-.837-1.42.021-1.733zm-.19-4.061c1.444-.998 4.785-.471 6.444-.451l1.067.015 2.135.04c3.201.06 6.4.1 9.595-.204.753-.072.95 1.114.202 1.267-3.117.636-6.153.863-9.338.906-2.642.036-6.186-.392-8.808.275l.002.003c-.358.29-.965.236-1.31-.041l-.136-.109-.102-.093c-.245-.261-.288-.604-.205-.923.011-.058.036-.11.057-.164.027-.063.042-.127.08-.184.078-.125.178-.24.317-.337zm.089-4.353c7.482-1.436 16.079-.273 23.65.12.685.037.651 1.14-.036 1.159-7.625.185-15.966 1.386-23.51.33-.817-.115-.967-1.444-.104-1.61zm.304-3.936c9.464-.692 19.179-.032 28.612.816.731.066.635 1.257-.102 1.237-9.51-.256-19.023.139-28.522-.068-1.178-.026-1.156-1.9.012-1.985zm-.2-4.618c7.544-1.056 15.885.146 23.51.331.687.017.721 1.122.036 1.158-7.571.394-16.168 1.556-23.65.121-.863-.165-.713-1.495.103-1.61zm-.204-4.553c.345-.277.952-.331 1.31-.042l-.002.003c2.622.668 6.166.24 8.808.275 3.185.043 6.221.27 9.338.907.749.153.551 1.339-.202 1.267-4.26-.406-8.527-.199-12.797-.15-1.66.02-5 .548-6.444-.45-.14-.097-.24-.213-.317-.337-.038-.058-.053-.121-.08-.183-.02-.056-.046-.107-.057-.164-.094-.36-.028-.75.307-1.018l.136-.108zm.18-3.984c2.71-.89 5.918-.4 8.737-.225 2.385.148 4.917-.069 7.129.852.426.177.236.712-.102.844-2.37.927-5.28.61-7.819.694-2.573.085-5.485.46-7.924-.432-.858-.314-.953-1.427-.02-1.733zm.011-3.876c4.043-.575 8.59.01 12.656.35.651.054.6 1.01-.022 1.074-4.028.415-8.65.967-12.657.27-.877-.153-.863-1.568.023-1.694zm-.18-2.914c1.535-.502 3.166-.18 4.765-.05.634.05 1.268.107 1.901.167l3.799.374c.823.077.704 1.184-.092 1.204-1.907.05-3.817.12-5.725.122-1.557.002-3.215.217-4.66-.388-.614-.258-.672-1.206.012-1.43zm.008-3.736c1.498-.394 3.17.439 4.688.67 1.29.197 2.672.096 3.895.539.467.17.366.806-.042.965-1.353.529-3.162.275-4.59.141-1.38-.131-3.217-.091-4.224-1.114-.364-.369-.304-1.05.273-1.201zm-.002-2.778c.931-.316 1.895-.021 2.86.078 1.112.116 2.211.26 3.319.407.284.038.344.496.047.562-1.142.252-2.256.437-3.427.5-.973.055-1.995.251-2.879-.197-.578-.294-.563-1.132.08-1.35zm.18-3.063c1.58-.114 3.37.51 4.915.808.73.14.545 1.09-.165 1.072-.82-.02-1.638-.05-2.457-.075-.804-.025-1.623.028-2.398-.196-.78-.227-.782-1.546.104-1.61zm4.75-2.908c.71-.018.894.931.165 1.072-1.546.298-3.335.922-4.916.808-.886-.063-.885-1.382-.104-1.61.775-.224 1.594-.17 2.398-.195.819-.025 1.637-.054 2.457-.075zm-5.01-2.533c.884-.449 1.906-.251 2.879-.198 1.17.063 2.285.25 3.427.5.297.066.237.524-.047.562-1.108.147-2.207.292-3.319.408-.965.1-1.929.393-2.86.078-.643-.218-.658-1.055-.08-1.35zm4.034-3.743c1.427-.135 3.236-.388 4.59.14.407.16.508.796.041.965-1.223.444-2.604.342-3.895.54-1.518.23-3.19 1.065-4.688.67-.577-.152-.637-.832-.273-1.202 1.007-1.022 2.843-.982 4.225-1.113zm-3.971-2.85c1.444-.606 3.102-.39 4.66-.389 1.907.002 3.817.073 5.724.122.796.021.915 1.127.092 1.206l-3.799.373c-.633.06-1.267.117-1.9.168-1.6.129-3.231.452-4.766-.051-.684-.224-.626-1.172-.011-1.43zm.168-3.179c4.006-.697 8.629-.145 12.657.27.623.063.673 1.02.022 1.075-4.066.339-8.613.924-12.656.349-.886-.126-.9-1.54-.023-1.694zm.033-3.915c2.44-.893 5.351-.517 7.924-.432 2.538.084 5.45-.233 7.819.693.338.133.528.667.102.845-2.212.92-4.744.704-7.129.852-2.82.175-6.027.665-8.737-.225-.932-.307-.837-1.42.021-1.733zm-.19-4.061c1.444-.998 4.785-.471 6.444-.451l1.067.015 2.135.04c3.201.06 6.4.1 9.595-.204.753-.072.95 1.114.202 1.267-3.117.636-6.153.863-9.338.906-2.642.036-6.186-.392-8.808.275l.002.003c-.358.29-.965.236-1.31-.041l-.136-.109-.102-.093c-.245-.261-.288-.604-.205-.923.011-.058.036-.11.057-.164.027-.063.042-.127.08-.184.078-.125.178-.24.317-.337zm.089-4.353c7.482-1.436 16.079-.273 23.65.12.685.037.651 1.14-.036 1.159-7.625.185-15.966 1.386-23.51.33-.817-.115-.967-1.444-.104-1.61zm.304-3.936c9.464-.692 19.179-.032 28.612.816.731.066.635 1.257-.102 1.237-9.51-.256-19.023.139-28.522-.068-1.178-.026-1.156-1.9.012-1.985zm-.2-4.618c7.544-1.056 15.885.146 23.51.331.687.017.721 1.122.036 1.158-7.571.394-16.168 1.556-23.65.121-.863-.165-.713-1.495.103-1.61zm-.204-4.553c.345-.277.952-.331 1.31-.042l-.002.003c2.622.668 6.166.24 8.808.275 3.185.043 6.221.27 9.338.907.749.153.551 1.339-.202 1.267-4.26-.406-8.527-.199-12.797-.15-1.66.02-5 .548-6.444-.45-.14-.097-.24-.213-.317-.337-.038-.058-.053-.121-.08-.183-.02-.056-.046-.107-.057-.164-.094-.36-.028-.75.307-1.018l.136-.108zm.18-3.984c2.71-.89 5.918-.4 8.737-.225 2.385.148 4.917-.069 7.129.852.426.177.236.712-.102.844-2.37.927-5.28.61-7.819.694-2.573.085-5.485.46-7.924-.432-.858-.314-.953-1.427-.02-1.733zm.011-3.876c4.043-.575 8.59.01 12.656.35.651.054.6 1.01-.022 1.074-4.028.415-8.65.967-12.657.27-.877-.153-.863-1.568.023-1.694zm-.18-2.914c1.535-.502 3.166-.18 4.765-.05.634.05 1.268.107 1.901.167l3.799.374c.823.077.704 1.184-.092 1.204-1.907.05-3.817.12-5.725.122-1.557.002-3.215.217-4.66-.388-.614-.258-.672-1.206.012-1.43zm.008-3.736c1.498-.394 3.17.439 4.688.67 1.29.197 2.672.096 3.895.539.467.17.366.806-.042.965-1.353.529-3.162.275-4.59.141-1.38-.131-3.217-.091-4.224-1.114-.364-.369-.304-1.05.273-1.201zm-.002-2.778c.931-.316 1.895-.021 2.86.078 1.112.116 2.211.26 3.319.407.284.038.344.496.047.562-1.142.252-2.256.437-3.427.5-.973.055-1.995.251-2.879-.197-.578-.294-.563-1.132.08-1.35zm.18-3.063c1.58-.114 3.37.51 4.915.808.73.14.545 1.09-.165 1.072-.82-.02-1.638-.05-2.457-.075-.804-.025-1.623.028-2.398-.196-.78-.227-.782-1.546.104-1.61zM24.571 583.106c.82.02 1.638.05 2.458.075.803.024 1.622-.03 2.397.195.78.228.782 1.547-.104 1.61-1.581.114-3.37-.51-4.915-.808-.73-.14-.546-1.09.164-1.072zm5.01-2.533c.579.295.563 1.132-.08 1.35-.931.315-1.895.022-2.86-.078-1.112-.116-2.211-.26-3.319-.408-.284-.038-.344-.496-.046-.561 1.141-.252 2.255-.438 3.426-.501.973-.053 1.995-.25 2.879.198zm-4.034-3.743c1.382.13 3.218.09 4.226 1.113.363.37.303 1.05-.274 1.202-1.498.395-3.17-.44-4.688-.67-1.29-.198-2.672-.096-3.895-.54-.467-.17-.366-.805.042-.965 1.353-.528 3.163-.275 4.59-.14zm3.971-2.85c.615.257.673 1.205-.011 1.429-1.535.503-3.166.18-4.765.051-.634-.05-1.268-.108-1.901-.168l-3.799-.373c-.823-.079-.703-1.185.092-1.206 1.907-.05 3.817-.12 5.725-.122 1.557-.002 3.215-.217 4.66.389zm-.168-3.179c.877.153.863 1.568-.023 1.694-4.043.575-8.59-.01-12.656-.35-.65-.054-.6-1.01.022-1.074 4.028-.415 8.65-.967 12.657-.27zm-.033-3.915c.858.314.953 1.426.021 1.733-2.71.89-5.918.4-8.737.225-2.385-.148-4.917.068-7.129-.852-.426-.178-.236-.712.102-.845 2.37-.926 5.281-.61 7.819-.693 2.573-.085 5.485-.46 7.924.432zm.19-4.061c.14.096.24.212.317.337.038.057.053.121.08.184.02.054.046.106.058.164.082.32.04.662-.206.923l-.102.093-.135.109c-.345.277-.953.332-1.31.041l.001-.003c-2.622-.667-6.166-.24-8.808-.275-3.185-.043-6.221-.27-9.338-.906-.749-.153-.55-1.339.202-1.267 3.195.304 6.394.264 9.595.203l2.135-.04 1.067-.014c1.66-.02 5-.547 6.444.45zm-.089-4.353c.863.165.713 1.494-.103 1.61-7.544 1.055-15.886-.146-23.51-.331-.688-.018-.722-1.122-.037-1.158 7.572-.394 16.168-1.557 23.65-.121zm-.304-3.936c1.168.086 1.19 1.96.012 1.985-9.499.207-19.011-.188-28.522.068-.737.02-.833-1.171-.102-1.237 9.433-.848 19.148-1.508 28.612-.816zm.2-4.618c.817.115.967 1.445.104 1.61-7.482 1.435-16.078.273-23.65-.12-.685-.037-.651-1.142.036-1.159 7.625-.185 15.967-1.387 23.51-.33zm.205-4.553c.044.037.09.072.135.108.335.269.4.658.308 1.018-.012.057-.037.108-.058.164-.027.062-.042.125-.08.183-.078.124-.177.24-.317.337-1.444.997-4.785.47-6.444.45-4.27-.049-8.538-.256-12.797.15-.753.072-.95-1.114-.202-1.267 3.117-.636 6.153-.864 9.338-.907 2.642-.034 6.186.393 8.808-.275l-.002-.003c.358-.289.966-.235 1.31.042zm-.181-3.984c.932.306.837 1.42-.021 1.733-2.44.893-5.35.517-7.924.432-2.538-.085-5.45.233-7.819-.694-.338-.132-.528-.667-.102-.844 2.212-.921 4.744-.704 7.129-.852 2.82-.175 6.027-.665 8.737.225zm-.011-3.876c.886.126.9 1.54.023 1.694-4.006.697-8.629.145-12.657-.27-.622-.063-.673-1.02-.022-1.075 4.066-.339 8.613-.924 12.656-.349zm.18-2.914c.684.223.626 1.171.011 1.429-1.444.605-3.102.39-4.659.388-1.908-.002-3.818-.072-5.725-.122-.795-.02-.915-1.127-.092-1.204l3.799-.374c.633-.06 1.267-.117 1.9-.168 1.6-.128 3.231-.451 4.766.05zm-.008-3.736c.577.152.637.832.274 1.201-1.008 1.023-2.844.983-4.226 1.114-1.426.134-3.236.388-4.59-.141-.407-.159-.508-.795-.041-.965 1.223-.443 2.605-.342 3.895-.539 1.518-.231 3.19-1.064 4.688-.67zm.002-2.778c.643.218.659 1.056.08 1.35-.884.448-1.906.252-2.879.198-1.17-.064-2.285-.249-3.426-.501-.298-.066-.238-.524.046-.562 1.108-.147 2.207-.29 3.319-.407.965-.1 1.929-.394 2.86-.078zm-.18-3.063c.887.063.886 1.382.105 1.609-.775.224-1.594.17-2.397.196-.82.025-1.638.054-2.458.075-.71.018-.894-.931-.164-1.072 1.545-.298 3.334-.922 4.915-.808zm-4.75-2.908c.82.02 1.638.05 2.458.075.803.024 1.622-.03 2.397.195.78.228.782 1.547-.104 1.61-1.581.114-3.37-.51-4.915-.808-.73-.14-.546-1.09.164-1.072zm5.01-2.533c.579.295.563 1.132-.08 1.35-.931.315-1.895.022-2.86-.078-1.112-.116-2.211-.26-3.319-.408-.284-.038-.344-.496-.046-.561 1.141-.252 2.255-.438 3.426-.501.973-.053 1.995-.25 2.879.198zm-4.034-3.743c1.382.13 3.218.09 4.226 1.113.363.37.303 1.05-.274 1.202-1.498.395-3.17-.44-4.688-.67-1.29-.198-2.672-.096-3.895-.54-.467-.17-.366-.805.042-.965 1.353-.528 3.163-.275 4.59-.14zm3.971-2.85c.615.257.673 1.205-.011 1.429-1.535.503-3.166.18-4.765.051-.634-.05-1.268-.108-1.901-.168l-3.799-.373c-.823-.079-.703-1.185.092-1.206 1.907-.05 3.817-.12 5.725-.122 1.557-.002 3.215-.217 4.66.389zm-.168-3.179c.877.153.863 1.568-.023 1.694-4.043.575-8.59-.01-12.656-.35-.65-.054-.6-1.01.022-1.074 4.028-.415 8.65-.967 12.657-.27zm-.033-3.915c.858.314.953 1.426.021 1.733-2.71.89-5.918.4-8.737.225-2.385-.148-4.917.068-7.129-.852-.426-.178-.236-.712.102-.845 2.37-.926 5.281-.61 7.819-.693 2.573-.085 5.485-.46 7.924.432zm.19-4.061c.14.096.24.212.317.337.038.057.053.121.08.184.02.054.046.106.058.164.082.32.04.662-.206.923l-.102.093-.135.109c-.345.277-.953.332-1.31.041l.001-.003c-2.622-.667-6.166-.24-8.808-.275-3.185-.043-6.221-.27-9.338-.906-.749-.153-.55-1.339.202-1.267 3.195.304 6.394.264 9.595.203l2.135-.04 1.067-.014c1.66-.02 5-.547 6.444.45zm-.089-4.353c.863.165.713 1.494-.103 1.61-7.544 1.055-15.886-.146-23.51-.331-.688-.018-.722-1.122-.037-1.158 7.572-.394 16.168-1.557 23.65-.121zm-.304-3.936c1.168.086 1.19 1.96.012 1.985-9.499.207-19.011-.188-28.522.068-.737.02-.833-1.171-.102-1.237 9.433-.848 19.148-1.508 28.612-.816zm.2-4.618c.817.115.967 1.445.104 1.61-7.482 1.435-16.078.273-23.65-.12-.685-.037-.651-1.142.036-1.159 7.625-.185 15.967-1.387 23.51-.33zm.205-4.553c.044.037.09.072.135.108.335.269.4.658.308 1.018-.012.057-.037.108-.058.164-.027.062-.042.125-.08.183-.078.124-.177.24-.317.337-1.444.997-4.785.47-6.444.45-4.27-.049-8.538-.256-12.797.15-.753.072-.95-1.114-.202-1.267 3.117-.636 6.153-.864 9.338-.907 2.642-.034 6.186.393 8.808-.275l-.002-.003c.358-.289.966-.235 1.31.042zm-.181-3.984c.932.306.837 1.42-.021 1.733-2.44.893-5.35.517-7.924.432-2.538-.085-5.45.233-7.819-.694-.338-.132-.528-.667-.102-.844 2.212-.921 4.744-.704 7.129-.852 2.82-.175 6.027-.665 8.737.225zm-.011-3.876c.886.126.9 1.54.023 1.694-4.006.697-8.629.145-12.657-.27-.622-.063-.673-1.02-.022-1.075 4.066-.339 8.613-.924 12.656-.349zm.18-2.914c.684.223.626 1.171.011 1.429-1.444.605-3.102.39-4.659.388-1.908-.002-3.818-.072-5.725-.122-.795-.02-.915-1.127-.092-1.204l3.799-.374c.633-.06 1.267-.117 1.9-.168 1.6-.128 3.231-.451 4.766.05zm-.008-3.736c.577.152.637.832.274 1.201-1.008 1.023-2.844.983-4.226 1.114-1.426.134-3.236.388-4.59-.141-.407-.159-.508-.795-.041-.965 1.223-.443 2.605-.342 3.895-.539 1.518-.231 3.19-1.064 4.688-.67zm.002-2.778c.643.218.659 1.056.08 1.35-.884.448-1.906.252-2.879.198-1.17-.064-2.285-.249-3.426-.501-.298-.066-.238-.524.046-.562 1.108-.147 2.207-.29 3.319-.407.965-.1 1.929-.394 2.86-.078zm-.18-3.063c.887.063.886 1.382.105 1.609-.775.224-1.594.17-2.397.196-.82.025-1.638.054-2.458.075-.71.018-.894-.931-.164-1.072 1.545-.298 3.334-.922 4.915-.808zM30.429 461.106c.71-.018.894.931.164 1.072-1.545.298-3.334.922-4.915.808-.886-.063-.885-1.382-.104-1.61.775-.224 1.594-.17 2.397-.195.82-.025 1.638-.054 2.458-.075zm-5.01-2.533c.884-.449 1.906-.251 2.879-.198 1.17.063 2.285.25 3.426.5.298.066.238.524-.046.562-1.108.147-2.207.292-3.319.408-.965.1-1.929.393-2.86.078-.643-.218-.659-1.055-.08-1.35zm4.034-3.743c1.426-.135 3.236-.388 4.59.14.407.16.508.796.041.965-1.223.444-2.605.342-3.895.54-1.518.23-3.19 1.065-4.688.67-.577-.152-.637-.832-.274-1.202 1.008-1.022 2.844-.982 4.226-1.113zm-3.971-2.85c1.444-.606 3.102-.39 4.659-.389 1.908.002 3.818.073 5.725.122.795.021.915 1.127.092 1.206l-3.799.373c-.633.06-1.267.117-1.9.168-1.6.129-3.231.452-4.766-.051-.684-.224-.626-1.172-.011-1.43zm.168-3.179c4.006-.697 8.629-.145 12.657.27.622.063.673 1.02.022 1.075-4.066.339-8.613.924-12.656.349-.886-.126-.9-1.54-.023-1.694zm.033-3.915c2.44-.893 5.35-.517 7.924-.432 2.538.084 5.45-.233 7.819.693.338.133.528.667.102.845-2.212.92-4.744.704-7.129.852-2.82.175-6.027.665-8.737-.225-.932-.307-.837-1.42.021-1.733zm-.19-4.061c1.444-.998 4.785-.471 6.444-.451l1.067.015 2.135.04c3.201.06 6.4.1 9.595-.204.753-.072.95 1.114.202 1.267-3.117.636-6.153.863-9.338.906-2.642.036-6.186-.392-8.808.275l.002.003c-.358.29-.966.236-1.31-.041l-.136-.109-.102-.093c-.245-.261-.288-.604-.206-.923.012-.058.037-.11.058-.164.027-.063.042-.127.08-.184.078-.125.177-.24.317-.337zm.089-4.353c7.482-1.436 16.078-.273 23.65.12.685.037.651 1.14-.036 1.159-7.625.185-15.967 1.386-23.51.33-.817-.115-.967-1.444-.104-1.61zm.304-3.936c9.464-.692 19.179-.032 28.612.816.73.066.635 1.257-.102 1.237-9.51-.256-19.023.139-28.522-.068-1.178-.026-1.156-1.9.012-1.985zm-.2-4.618c7.543-1.056 15.885.146 23.51.331.687.017.721 1.122.036 1.158-7.572.394-16.168 1.556-23.65.121-.863-.165-.713-1.495.103-1.61zm-.205-4.553c.345-.277.953-.331 1.31-.042l-.001.003c2.622.668 6.166.24 8.808.275 3.185.043 6.221.27 9.338.907.749.153.55 1.339-.202 1.267-4.26-.406-8.527-.199-12.797-.15-1.66.02-5 .547-6.444-.45-.14-.097-.24-.213-.317-.337-.038-.058-.053-.121-.08-.183-.02-.056-.046-.107-.058-.164-.093-.36-.027-.75.308-1.018l.135-.108zm.181-3.984c2.71-.89 5.918-.4 8.737-.225 2.385.148 4.917-.069 7.129.852.426.177.236.712-.102.844-2.37.927-5.281.61-7.819.694-2.573.085-5.485.46-7.924-.432-.858-.314-.953-1.427-.021-1.733zm.011-3.876c4.043-.575 8.59.01 12.656.35.65.054.6 1.01-.022 1.074-4.028.415-8.65.967-12.657.27-.877-.153-.863-1.568.023-1.694zm-.18-2.914c1.535-.502 3.166-.18 4.765-.05.634.05 1.268.107 1.901.167l3.799.374c.823.077.703 1.184-.092 1.204-1.907.05-3.817.12-5.725.122-1.557.002-3.215.217-4.66-.388-.614-.258-.672-1.206.012-1.43zm.008-3.736c1.498-.394 3.17.439 4.688.67 1.29.197 2.672.096 3.895.539.467.17.366.806-.042.965-1.353.529-3.163.275-4.59.141-1.38-.131-3.217-.091-4.225-1.114-.363-.369-.303-1.05.274-1.201zm-.002-2.778c.931-.316 1.895-.021 2.86.078 1.112.116 2.211.26 3.319.407.284.038.344.496.046.562-1.141.252-2.255.437-3.426.5-.973.055-1.995.251-2.879-.197-.579-.294-.563-1.132.08-1.35zm.18-3.063c1.58-.114 3.37.51 4.914.808.73.14.546 1.09-.164 1.072-.82-.02-1.638-.05-2.458-.075-.803-.025-1.622.028-2.397-.196-.78-.227-.782-1.546.104-1.61zm4.75-2.908c.71-.018.894.931.164 1.072-1.545.298-3.334.922-4.915.808-.886-.063-.885-1.382-.104-1.61.775-.224 1.594-.17 2.397-.195.82-.025 1.638-.054 2.458-.075zm-5.01-2.533c.884-.449 1.906-.251 2.879-.198 1.17.063 2.285.25 3.426.5.298.066.238.524-.046.562-1.108.147-2.207.292-3.319.408-.965.1-1.929.393-2.86.078-.643-.218-.659-1.055-.08-1.35zm4.034-3.743c1.426-.135 3.236-.388 4.59.14.407.16.508.796.041.965-1.223.444-2.605.342-3.895.54-1.518.23-3.19 1.065-4.688.67-.577-.152-.637-.832-.274-1.202 1.008-1.022 2.844-.982 4.226-1.113zm-3.971-2.85c1.444-.606 3.102-.39 4.659-.389 1.908.002 3.818.073 5.725.122.795.021.915 1.127.092 1.206l-3.799.373c-.633.06-1.267.117-1.9.168-1.6.129-3.231.452-4.766-.051-.684-.224-.626-1.172-.011-1.43zm.168-3.179c4.006-.697 8.629-.145 12.657.27.622.063.673 1.02.022 1.075-4.066.339-8.613.924-12.656.349-.886-.126-.9-1.54-.023-1.694zm.033-3.915c2.44-.893 5.35-.517 7.924-.432 2.538.084 5.45-.233 7.819.693.338.133.528.667.102.845-2.212.92-4.744.704-7.129.852-2.82.175-6.027.665-8.737-.225-.932-.307-.837-1.42.021-1.733zm-.19-4.061c1.444-.998 4.785-.471 6.444-.451l1.067.015 2.135.04c3.201.06 6.4.1 9.595-.204.753-.072.95 1.114.202 1.267-3.117.636-6.153.863-9.338.906-2.642.036-6.186-.392-8.808.275l.002.003c-.358.29-.966.236-1.31-.041l-.136-.109-.102-.093c-.245-.261-.288-.604-.206-.923.012-.058.037-.11.058-.164.027-.063.042-.127.08-.184.078-.125.177-.24.317-.337zm.089-4.353c7.482-1.436 16.078-.273 23.65.12.685.037.651 1.14-.036 1.159-7.625.185-15.967 1.386-23.51.33-.817-.115-.967-1.444-.104-1.61zm.304-3.936c9.464-.692 19.179-.032 28.612.816.73.066.635 1.257-.102 1.237-9.51-.256-19.023.139-28.522-.068-1.178-.026-1.156-1.9.012-1.985zm-.2-4.618c7.543-1.056 15.885.146 23.51.331.687.017.721 1.122.036 1.158-7.572.394-16.168 1.556-23.65.121-.863-.165-.713-1.495.103-1.61zm-.205-4.553c.345-.277.953-.331 1.31-.042l-.001.003c2.622.668 6.166.24 8.808.275 3.185.043 6.221.27 9.338.907.749.153.55 1.339-.202 1.267-4.26-.406-8.527-.199-12.797-.15-1.66.02-5 .547-6.444-.45-.14-.097-.24-.213-.317-.337-.038-.058-.053-.121-.08-.183-.02-.056-.046-.107-.058-.164-.093-.36-.027-.75.308-1.018l.135-.108zm.181-3.984c2.71-.89 5.918-.4 8.737-.225 2.385.148 4.917-.069 7.129.852.426.177.236.712-.102.844-2.37.927-5.281.61-7.819.694-2.573.085-5.485.46-7.924-.432-.858-.314-.953-1.427-.021-1.733zm.011-3.876c4.043-.575 8.59.01 12.656.35.65.054.6 1.01-.022 1.074-4.028.415-8.65.967-12.657.27-.877-.153-.863-1.568.023-1.694zm-.18-2.914c1.535-.502 3.166-.18 4.765-.05.634.05 1.268.107 1.901.167l3.799.374c.823.077.703 1.184-.092 1.204-1.907.05-3.817.12-5.725.122-1.557.002-3.215.217-4.66-.388-.614-.258-.672-1.206.012-1.43zm.008-3.736c1.498-.394 3.17.439 4.688.67 1.29.197 2.672.096 3.895.539.467.17.366.806-.042.965-1.353.529-3.163.275-4.59.141-1.38-.131-3.217-.091-4.225-1.114-.363-.369-.303-1.05.274-1.201zm-.002-2.778c.931-.316 1.895-.021 2.86.078 1.112.116 2.211.26 3.319.407.284.038.344.496.046.562-1.141.252-2.255.437-3.426.5-.973.055-1.995.251-2.879-.197-.579-.294-.563-1.132.08-1.35zm.18-3.063c1.58-.114 3.37.51 4.914.808.73.14.546 1.09-.164 1.072-.82-.02-1.638-.05-2.458-.075-.803-.025-1.622.028-2.397-.196-.78-.227-.782-1.546.104-1.61zM24.571 339.106c.82.02 1.638.05 2.458.075.803.024 1.622-.03 2.397.195.78.228.782 1.547-.104 1.61-1.581.114-3.37-.51-4.915-.808-.73-.14-.546-1.09.164-1.072zm5.01-2.533c.579.295.563 1.132-.08 1.35-.931.315-1.895.022-2.86-.078-1.112-.116-2.211-.26-3.319-.408-.284-.038-.344-.496-.046-.561 1.141-.252 2.255-.438 3.426-.501.973-.053 1.995-.25 2.879.198zm-4.034-3.743c1.382.13 3.218.09 4.226 1.113.363.37.303 1.05-.274 1.202-1.498.395-3.17-.44-4.688-.67-1.29-.198-2.672-.096-3.895-.54-.467-.17-.366-.805.042-.965 1.353-.528 3.163-.275 4.59-.14zm3.971-2.85c.615.257.673 1.205-.011 1.429-1.535.503-3.166.18-4.765.051-.634-.05-1.268-.108-1.901-.168l-3.799-.373c-.823-.079-.703-1.185.092-1.206 1.907-.05 3.817-.12 5.725-.122 1.557-.002 3.215-.217 4.66.389zm-.168-3.179c.877.153.863 1.568-.023 1.694-4.043.575-8.59-.01-12.656-.35-.65-.054-.6-1.01.022-1.074 4.028-.415 8.65-.967 12.657-.27zm-.033-3.915c.858.314.953 1.426.021 1.733-2.71.89-5.918.4-8.737.225-2.385-.148-4.917.068-7.129-.852-.426-.178-.236-.712.102-.845 2.37-.926 5.281-.61 7.819-.693 2.573-.085 5.485-.46 7.924.432zm.19-4.061c.14.096.24.212.317.337.038.057.053.121.08.184.02.054.046.106.058.164.082.32.04.662-.206.923l-.102.093-.135.109c-.345.277-.953.332-1.31.041l.001-.003c-2.622-.667-6.166-.24-8.808-.275-3.185-.043-6.221-.27-9.338-.906-.749-.153-.55-1.339.202-1.267 3.195.304 6.394.264 9.595.203l2.135-.04 1.067-.014c1.66-.02 5-.547 6.444.45zm-.089-4.353c.863.165.713 1.494-.103 1.61-7.544 1.055-15.886-.146-23.51-.331-.688-.018-.722-1.122-.037-1.158 7.572-.394 16.168-1.557 23.65-.121zm-.304-3.936c1.168.086 1.19 1.96.012 1.985-9.499.207-19.011-.188-28.522.068-.737.02-.833-1.171-.102-1.237 9.433-.848 19.148-1.508 28.612-.816zm.2-4.618c.817.115.967 1.445.104 1.61-7.482 1.435-16.078.273-23.65-.12-.685-.037-.651-1.142.036-1.159 7.625-.185 15.967-1.387 23.51-.33zm.205-4.553c.044.037.09.072.135.108.335.269.4.658.308 1.018-.012.057-.037.108-.058.164-.027.062-.042.125-.08.183-.078.124-.177.24-.317.337-1.444.997-4.785.47-6.444.45-4.27-.049-8.538-.256-12.797.15-.753.072-.95-1.114-.202-1.267 3.117-.636 6.153-.864 9.338-.907 2.642-.034 6.186.393 8.808-.275l-.002-.003c.358-.289.966-.235 1.31.042zm-.181-3.984c.932.306.837 1.42-.021 1.733-2.44.893-5.35.517-7.924.432-2.538-.085-5.45.233-7.819-.694-.338-.132-.528-.667-.102-.844 2.212-.921 4.744-.704 7.129-.852 2.82-.175 6.027-.665 8.737.225zm-.011-3.876c.886.126.9 1.54.023 1.694-4.006.697-8.629.145-12.657-.27-.622-.063-.673-1.02-.022-1.075 4.066-.339 8.613-.924 12.656-.349zm.18-2.914c.684.223.626 1.171.011 1.429-1.444.605-3.102.39-4.659.388-1.908-.002-3.818-.072-5.725-.122-.795-.02-.915-1.127-.092-1.204l3.799-.374c.633-.06 1.267-.117 1.9-.168 1.6-.128 3.231-.451 4.766.05zm-.008-3.736c.577.152.637.832.274 1.201-1.008 1.023-2.844.983-4.226 1.114-1.426.134-3.236.388-4.59-.141-.407-.159-.508-.795-.041-.965 1.223-.443 2.605-.342 3.895-.539 1.518-.231 3.19-1.064 4.688-.67zm.002-2.778c.643.218.659 1.056.08 1.35-.884.448-1.906.252-2.879.198-1.17-.064-2.285-.249-3.426-.501-.298-.066-.238-.524.046-.562 1.108-.147 2.207-.29 3.319-.407.965-.1 1.929-.394 2.86-.078zm-.18-3.063c.887.063.886 1.382.105 1.609-.775.224-1.594.17-2.397.196-.82.025-1.638.054-2.458.075-.71.018-.894-.931-.164-1.072 1.545-.298 3.334-.922 4.915-.808zm-4.75-2.908c.82.02 1.638.05 2.458.075.803.024 1.622-.03 2.397.195.78.228.782 1.547-.104 1.61-1.581.114-3.37-.51-4.915-.808-.73-.14-.546-1.09.164-1.072zm5.01-2.533c.579.295.563 1.132-.08 1.35-.931.315-1.895.022-2.86-.078-1.112-.116-2.211-.26-3.319-.408-.284-.038-.344-.496-.046-.561 1.141-.252 2.255-.438 3.426-.501.973-.053 1.995-.25 2.879.198zm-4.034-3.743c1.382.13 3.218.09 4.226 1.113.363.37.303 1.05-.274 1.202-1.498.395-3.17-.44-4.688-.67-1.29-.198-2.672-.096-3.895-.54-.467-.17-.366-.805.042-.965 1.353-.528 3.163-.275 4.59-.14zm3.971-2.85c.615.257.673 1.205-.011 1.429-1.535.503-3.166.18-4.765.051-.634-.05-1.268-.108-1.901-.168l-3.799-.373c-.823-.079-.703-1.185.092-1.206 1.907-.05 3.817-.12 5.725-.122 1.557-.002 3.215-.217 4.66.389zm-.168-3.179c.877.153.863 1.568-.023 1.694-4.043.575-8.59-.01-12.656-.35-.65-.054-.6-1.01.022-1.074 4.028-.415 8.65-.967 12.657-.27zm-.033-3.915c.858.314.953 1.426.021 1.733-2.71.89-5.918.4-8.737.225-2.385-.148-4.917.068-7.129-.852-.426-.178-.236-.712.102-.845 2.37-.926 5.281-.61 7.819-.693 2.573-.085 5.485-.46 7.924.432zm.19-4.061c.14.096.24.212.317.337.038.057.053.121.08.184.02.054.046.106.058.164.082.32.04.662-.206.923l-.102.093-.135.109c-.345.277-.953.332-1.31.041l.001-.003c-2.622-.667-6.166-.24-8.808-.275-3.185-.043-6.221-.27-9.338-.906-.749-.153-.55-1.339.202-1.267 3.195.304 6.394.264 9.595.203l2.135-.04 1.067-.014c1.66-.02 5-.547 6.444.45zm-.089-4.353c.863.165.713 1.494-.103 1.61-7.544 1.055-15.886-.146-23.51-.331-.688-.018-.722-1.122-.037-1.158 7.572-.394 16.168-1.557 23.65-.121zm-.304-3.936c1.168.086 1.19 1.96.012 1.985-9.499.207-19.011-.188-28.522.068-.737.02-.833-1.171-.102-1.237 9.433-.848 19.148-1.508 28.612-.816zm.2-4.618c.817.115.967 1.445.104 1.61-7.482 1.435-16.078.273-23.65-.12-.685-.037-.651-1.142.036-1.159 7.625-.185 15.967-1.387 23.51-.33zm.205-4.553c.044.037.09.072.135.108.335.269.4.658.308 1.018-.012.057-.037.108-.058.164-.027.062-.042.125-.08.183-.078.124-.177.24-.317.337-1.444.997-4.785.47-6.444.45-4.27-.049-8.538-.256-12.797.15-.753.072-.95-1.114-.202-1.267 3.117-.636 6.153-.864 9.338-.907 2.642-.034 6.186.393 8.808-.275l-.002-.003c.358-.289.966-.235 1.31.042zm-.181-3.984c.932.306.837 1.42-.021 1.733-2.44.893-5.35.517-7.924.432-2.538-.085-5.45.233-7.819-.694-.338-.132-.528-.667-.102-.844 2.212-.921 4.744-.704 7.129-.852 2.82-.175 6.027-.665 8.737.225zm-.011-3.876c.886.126.9 1.54.023 1.694-4.006.697-8.629.145-12.657-.27-.622-.063-.673-1.02-.022-1.075 4.066-.339 8.613-.924 12.656-.349zm.18-2.914c.684.223.626 1.171.011 1.429-1.444.605-3.102.39-4.659.388-1.908-.002-3.818-.072-5.725-.122-.795-.02-.915-1.127-.092-1.204l3.799-.374c.633-.06 1.267-.117 1.9-.168 1.6-.128 3.231-.451 4.766.05zm-.008-3.736c.577.152.637.832.274 1.201-1.008 1.023-2.844.983-4.226 1.114-1.426.134-3.236.388-4.59-.141-.407-.159-.508-.795-.041-.965 1.223-.443 2.605-.342 3.895-.539 1.518-.231 3.19-1.064 4.688-.67zm.002-2.778c.643.218.659 1.056.08 1.35-.884.448-1.906.252-2.879.198-1.17-.064-2.285-.249-3.426-.501-.298-.066-.238-.524.046-.562 1.108-.147 2.207-.29 3.319-.407.965-.1 1.929-.394 2.86-.078zm-.18-3.063c.887.063.886 1.382.105 1.609-.775.224-1.594.17-2.397.196-.82.025-1.638.054-2.458.075-.71.018-.894-.931-.164-1.072 1.545-.298 3.334-.922 4.915-.808zM30.429 217.106c.71-.018.894.931.164 1.072-1.545.298-3.334.922-4.915.808-.886-.063-.885-1.382-.104-1.61.775-.224 1.594-.17 2.397-.195.82-.025 1.638-.054 2.458-.075zm-5.01-2.533c.884-.449 1.906-.251 2.879-.198 1.17.063 2.285.25 3.426.5.298.066.238.524-.046.562-1.108.147-2.207.292-3.319.408-.965.1-1.929.393-2.86.078-.643-.218-.659-1.055-.08-1.35zm4.034-3.743c1.426-.135 3.236-.388 4.59.14.407.16.508.796.041.965-1.223.444-2.605.342-3.895.54-1.518.23-3.19 1.065-4.688.67-.577-.152-.637-.832-.274-1.202 1.008-1.022 2.844-.982 4.226-1.113zm-3.971-2.85c1.444-.606 3.102-.39 4.659-.389 1.908.002 3.818.073 5.725.122.795.021.915 1.127.092 1.206l-3.799.373c-.633.06-1.267.117-1.9.168-1.6.129-3.231.452-4.766-.051-.684-.224-.626-1.172-.011-1.43zm.168-3.179c4.006-.697 8.629-.145 12.657.27.622.063.673 1.02.022 1.075-4.066.339-8.613.924-12.656.349-.886-.126-.9-1.54-.023-1.694zm.033-3.915c2.44-.893 5.35-.517 7.924-.432 2.538.084 5.45-.233 7.819.693.338.133.528.667.102.845-2.212.92-4.744.704-7.129.852-2.82.175-6.027.665-8.737-.225-.932-.307-.837-1.42.021-1.733zm-.19-4.061c1.444-.998 4.785-.471 6.444-.451l1.067.015 2.135.04c3.201.06 6.4.1 9.595-.204.753-.072.95 1.114.202 1.267-3.117.636-6.153.863-9.338.906-2.642.036-6.186-.392-8.808.275l.002.003c-.358.29-.966.236-1.31-.041l-.136-.109-.102-.093c-.245-.261-.288-.604-.206-.923.012-.058.037-.11.058-.164.027-.063.042-.127.08-.184.078-.125.177-.24.317-.337zm.089-4.353c7.482-1.436 16.078-.273 23.65.12.685.037.651 1.14-.036 1.159-7.625.185-15.967 1.386-23.51.33-.817-.115-.967-1.444-.104-1.61zm.304-3.936c9.464-.692 19.179-.032 28.612.816.73.066.635 1.257-.102 1.237-9.51-.256-19.023.139-28.522-.068-1.178-.026-1.156-1.9.012-1.985zm-.2-4.618c7.543-1.056 15.885.146 23.51.331.687.017.721 1.122.036 1.158-7.572.394-16.168 1.556-23.65.121-.863-.165-.713-1.495.103-1.61zm-.205-4.553c.345-.277.953-.331 1.31-.042l-.001.003c2.622.668 6.166.24 8.808.275 3.185.043 6.221.27 9.338.907.749.153.55 1.339-.202 1.267-4.26-.406-8.527-.199-12.797-.15-1.66.02-5 .547-6.444-.45-.14-.097-.24-.213-.317-.337-.038-.058-.053-.121-.08-.183-.02-.056-.046-.107-.058-.164-.093-.36-.027-.75.308-1.018l.135-.108zm.181-3.984c2.71-.89 5.918-.4 8.737-.225 2.385.148 4.917-.069 7.129.852.426.177.236.712-.102.844-2.37.927-5.281.61-7.819.694-2.573.085-5.485.46-7.924-.432-.858-.314-.953-1.427-.021-1.733zm.011-3.876c4.043-.575 8.59.01 12.656.35.65.054.6 1.01-.022 1.074-4.028.415-8.65.967-12.657.27-.877-.153-.863-1.568.023-1.694zm-.18-2.914c1.535-.502 3.166-.18 4.765-.05.634.05 1.268.107 1.901.167l3.799.374c.823.077.703 1.184-.092 1.204-1.907.05-3.817.12-5.725.122-1.557.002-3.215.217-4.66-.388-.614-.258-.672-1.206.012-1.43zm.008-3.736c1.498-.394 3.17.439 4.688.67 1.29.197 2.672.096 3.895.539.467.17.366.806-.042.965-1.353.529-3.163.275-4.59.141-1.38-.131-3.217-.091-4.225-1.114-.363-.369-.303-1.05.274-1.201zm-.002-2.778c.931-.316 1.895-.021 2.86.078 1.112.116 2.211.26 3.319.407.284.038.344.496.046.562-1.141.252-2.255.437-3.426.5-.973.055-1.995.251-2.879-.197-.579-.294-.563-1.132.08-1.35zm.18-3.063c1.58-.114 3.37.51 4.914.808.73.14.546 1.09-.164 1.072-.82-.02-1.638-.05-2.458-.075-.803-.025-1.622.028-2.397-.196-.78-.227-.782-1.546.104-1.61zm4.75-2.908c.71-.018.894.931.164 1.072-1.545.298-3.334.922-4.915.808-.886-.063-.885-1.382-.104-1.61.775-.224 1.594-.17 2.397-.195.82-.025 1.638-.054 2.458-.075zm-5.01-2.533c.884-.449 1.906-.251 2.879-.198 1.17.063 2.285.25 3.426.5.298.066.238.524-.046.562-1.108.147-2.207.292-3.319.408-.965.1-1.929.393-2.86.078-.643-.218-.659-1.055-.08-1.35zm4.034-3.743c1.426-.135 3.236-.388 4.59.14.407.16.508.796.041.965-1.223.444-2.605.342-3.895.54-1.518.23-3.19 1.065-4.688.67-.577-.152-.637-.832-.274-1.202 1.008-1.022 2.844-.982 4.226-1.113zm-3.971-2.85c1.444-.606 3.102-.39 4.659-.389 1.908.002 3.818.073 5.725.122.795.021.915 1.127.092 1.206l-3.799.373c-.633.06-1.267.117-1.9.168-1.6.129-3.231.452-4.766-.051-.684-.224-.626-1.172-.011-1.43zm.168-3.179c4.006-.697 8.629-.145 12.657.27.622.063.673 1.02.022 1.075-4.066.339-8.613.924-12.656.349-.886-.126-.9-1.54-.023-1.694zm.033-3.915c2.44-.893 5.35-.517 7.924-.432 2.538.084 5.45-.233 7.819.693.338.133.528.667.102.845-2.212.92-4.744.704-7.129.852-2.82.175-6.027.665-8.737-.225-.932-.307-.837-1.42.021-1.733zm-.19-4.061c1.444-.998 4.785-.471 6.444-.451l1.067.015 2.135.04c3.201.06 6.4.1 9.595-.204.753-.072.95 1.114.202 1.267-3.117.636-6.153.863-9.338.906-2.642.036-6.186-.392-8.808.275l.002.003c-.358.29-.966.236-1.31-.041l-.136-.109-.102-.093c-.245-.261-.288-.604-.206-.923.012-.058.037-.11.058-.164.027-.063.042-.127.08-.184.078-.125.177-.24.317-.337zm.089-4.353c7.482-1.436 16.078-.273 23.65.12.685.037.651 1.14-.036 1.159-7.625.185-15.967 1.386-23.51.33-.817-.115-.967-1.444-.104-1.61zm.304-3.936c9.464-.692 19.179-.032 28.612.816.73.066.635 1.257-.102 1.237-9.51-.256-19.023.139-28.522-.068-1.178-.026-1.156-1.9.012-1.985zm-.2-4.618c7.543-1.056 15.885.146 23.51.331.687.017.721 1.122.036 1.158-7.572.394-16.168 1.556-23.65.121-.863-.165-.713-1.495.103-1.61zm-.205-4.553c.345-.277.953-.331 1.31-.042l-.001.003c2.622.668 6.166.24 8.808.275 3.185.043 6.221.27 9.338.907.749.153.55 1.339-.202 1.267-4.26-.406-8.527-.199-12.797-.15-1.66.02-5 .547-6.444-.45-.14-.097-.24-.213-.317-.337-.038-.058-.053-.121-.08-.183-.02-.056-.046-.107-.058-.164-.093-.36-.027-.75.308-1.018l.135-.108zm.181-3.984c2.71-.89 5.918-.4 8.737-.225 2.385.148 4.917-.069 7.129.852.426.177.236.712-.102.844-2.37.927-5.281.61-7.819.694-2.573.085-5.485.46-7.924-.432-.858-.314-.953-1.427-.021-1.733zm.011-3.876c4.043-.575 8.59.01 12.656.35.65.054.6 1.01-.022 1.074-4.028.415-8.65.967-12.657.27-.877-.153-.863-1.568.023-1.694zm-.18-2.914c1.535-.502 3.166-.18 4.765-.05.634.05 1.268.107 1.901.167l3.799.374c.823.077.703 1.184-.092 1.204-1.907.05-3.817.12-5.725.122-1.557.002-3.215.217-4.66-.388-.614-.258-.672-1.206.012-1.43zm.008-3.736c1.498-.394 3.17.439 4.688.67 1.29.197 2.672.096 3.895.539.467.17.366.806-.042.965-1.353.529-3.163.275-4.59.141-1.38-.131-3.217-.091-4.225-1.114-.363-.369-.303-1.05.274-1.201zm-.002-2.778c.931-.316 1.895-.021 2.86.078 1.112.116 2.211.26 3.319.407.284.038.344.496.046.562-1.141.252-2.255.437-3.426.5-.973.055-1.995.251-2.879-.197-.579-.294-.563-1.132.08-1.35zm.18-3.063c1.58-.114 3.37.51 4.914.808.73.14.546 1.09-.164 1.072-.82-.02-1.638-.05-2.458-.075-.803-.025-1.622.028-2.397-.196-.78-.227-.782-1.546.104-1.61zM24.571 95.106c.82.02 1.638.05 2.458.075.803.024 1.622-.03 2.397.195.78.228.782 1.547-.104 1.61-1.581.114-3.37-.51-4.915-.808-.73-.14-.546-1.09.164-1.072zm5.01-2.533c.579.295.563 1.132-.08 1.35-.931.315-1.895.022-2.86-.078-1.112-.116-2.211-.26-3.319-.408-.284-.038-.344-.496-.046-.561 1.141-.252 2.255-.438 3.426-.501.973-.053 1.995-.25 2.879.198zm-4.034-3.743c1.382.13 3.218.09 4.226 1.113.363.37.303 1.05-.274 1.202-1.498.395-3.17-.44-4.688-.67-1.29-.198-2.672-.096-3.895-.54-.467-.17-.366-.805.042-.965 1.353-.528 3.163-.275 4.59-.14zm3.971-2.85c.615.257.673 1.205-.011 1.429-1.535.503-3.166.18-4.765.051-.634-.05-1.268-.108-1.901-.168l-3.799-.373c-.823-.079-.703-1.185.092-1.206 1.907-.05 3.817-.12 5.725-.122 1.557-.002 3.215-.217 4.66.389zM29.35 82.8c.877.153.863 1.568-.023 1.694-4.043.575-8.59-.01-12.656-.35-.65-.054-.6-1.01.022-1.074 4.028-.415 8.65-.967 12.657-.27zm-.033-3.915c.858.314.953 1.426.021 1.733-2.71.89-5.918.4-8.737.225-2.385-.148-4.917.068-7.129-.852-.426-.178-.236-.712.102-.845 2.37-.926 5.281-.61 7.819-.693 2.573-.085 5.485-.46 7.924.432zm.19-4.061c.14.096.24.212.317.337.038.057.053.121.08.184.02.054.046.106.058.164.082.32.04.662-.206.923l-.102.093-.135.109c-.345.277-.953.332-1.31.041l.001-.003c-2.622-.667-6.166-.24-8.808-.275-3.185-.043-6.221-.27-9.338-.906-.749-.153-.55-1.339.202-1.267 3.195.304 6.394.264 9.595.203l2.135-.04 1.067-.014c1.66-.02 5-.547 6.444.45zm-.089-4.353c.863.165.713 1.494-.103 1.61-7.544 1.055-15.886-.146-23.51-.331-.688-.018-.722-1.122-.037-1.158 7.572-.394 16.168-1.557 23.65-.121zm-.304-3.936c1.168.086 1.19 1.96.012 1.985-9.499.207-19.011-.188-28.522.068-.737.02-.833-1.171-.102-1.237 9.433-.848 19.148-1.508 28.612-.816zm.2-4.618c.817.115.967 1.445.104 1.61-7.482 1.435-16.078.273-23.65-.12-.685-.037-.651-1.142.036-1.159 7.625-.185 15.967-1.387 23.51-.33zm.205-4.553c.044.037.09.072.135.108.335.269.4.658.308 1.018-.012.057-.037.108-.058.164-.027.062-.042.125-.08.183-.078.124-.177.24-.317.337-1.444.997-4.785.47-6.444.45-4.27-.049-8.538-.256-12.797.15-.753.072-.95-1.114-.202-1.267 3.117-.636 6.153-.864 9.338-.907 2.642-.034 6.186.393 8.808-.275l-.002-.003c.358-.289.966-.235 1.31.042zm-.181-3.984c.932.306.837 1.42-.021 1.733-2.44.893-5.35.517-7.924.432-2.538-.085-5.45.233-7.819-.694-.338-.132-.528-.667-.102-.844 2.212-.921 4.744-.704 7.129-.852 2.82-.175 6.027-.665 8.737.225zm-.011-3.876c.886.126.9 1.54.023 1.694-4.006.697-8.629.145-12.657-.27-.622-.063-.673-1.02-.022-1.075 4.066-.339 8.613-.924 12.656-.349zm.18-2.914c.684.223.626 1.171.011 1.429-1.444.605-3.102.39-4.659.388-1.908-.002-3.818-.072-5.725-.122-.795-.02-.915-1.127-.092-1.204l3.799-.374c.633-.06 1.267-.117 1.9-.168 1.6-.128 3.231-.451 4.766.05zm-.008-3.736c.577.152.637.832.274 1.201-1.008 1.023-2.844.983-4.226 1.114-1.426.134-3.236.388-4.59-.141-.407-.159-.508-.795-.041-.965 1.223-.443 2.605-.342 3.895-.539 1.518-.231 3.19-1.064 4.688-.67zm.002-2.778c.643.218.659 1.056.08 1.35-.884.448-1.906.252-2.879.198-1.17-.064-2.285-.249-3.426-.501-.298-.066-.238-.524.046-.562 1.108-.147 2.207-.29 3.319-.407.965-.1 1.929-.394 2.86-.078zm-.18-3.063c.887.063.886 1.382.105 1.609-.775.224-1.594.17-2.397.196-.82.025-1.638.054-2.458.075-.71.018-.894-.931-.164-1.072 1.545-.298 3.334-.922 4.915-.808zm-4.75-2.908c.82.02 1.638.05 2.458.075.803.024 1.622-.03 2.397.195.78.228.782 1.547-.104 1.61-1.581.114-3.37-.51-4.915-.808-.73-.14-.546-1.09.164-1.072zm5.01-2.533c.579.295.563 1.132-.08 1.35-.931.315-1.895.022-2.86-.078-1.112-.116-2.211-.26-3.319-.408-.284-.038-.344-.496-.046-.561 1.141-.252 2.255-.438 3.426-.501.973-.053 1.995-.25 2.879.198zm-4.034-3.743c1.382.13 3.218.09 4.226 1.113.363.37.303 1.05-.274 1.202-1.498.395-3.17-.44-4.688-.67-1.29-.198-2.672-.096-3.895-.54-.467-.17-.366-.805.042-.965 1.353-.528 3.163-.275 4.59-.14zm3.971-2.85c.615.257.673 1.205-.011 1.429-1.535.503-3.166.18-4.765.051-.634-.05-1.268-.108-1.901-.168l-3.799-.373c-.823-.079-.703-1.185.092-1.206 1.907-.05 3.817-.12 5.725-.122 1.557-.002 3.215-.217 4.66.389zM29.35 21.8c.877.153.863 1.568-.023 1.694-4.043.575-8.59-.01-12.656-.35-.65-.054-.6-1.01.022-1.074 4.028-.415 8.65-.967 12.657-.27zm-.033-3.915c.858.314.953 1.426.021 1.733-2.71.89-5.918.4-8.737.225-2.385-.148-4.917.068-7.129-.852-.426-.178-.236-.712.102-.845 2.37-.926 5.281-.61 7.819-.693 2.573-.085 5.485-.46 7.924.432zm.19-4.061c.14.096.24.212.317.337.038.057.053.121.08.184.02.054.046.106.058.164.082.32.04.662-.206.923l-.102.093-.135.109c-.345.277-.953.332-1.31.041l.001-.003c-2.622-.667-6.166-.24-8.808-.275-3.185-.043-6.221-.27-9.338-.906-.749-.153-.55-1.339.202-1.267 3.195.304 6.394.264 9.595.203l2.135-.04 1.067-.014c1.66-.02 5-.547 6.444.45zm-.089-4.353c.863.165.713 1.494-.103 1.61-7.544 1.055-15.886-.146-23.51-.331-.688-.018-.722-1.122-.037-1.158 7.572-.394 16.168-1.557 23.65-.121zm-.304-3.936c1.168.086 1.19 1.96.012 1.985-9.499.207-19.011-.188-28.522.068-.737.02-.833-1.171-.102-1.237 9.433-.848 19.148-1.508 28.612-.816zm.2-4.618c.817.115.967 1.445.104 1.61-7.482 1.435-16.078.273-23.65-.12-.685-.037-.651-1.142.036-1.159 7.625-.185 15.967-1.387 23.51-.33z" transform="translate(0 -800) translate(0 700) rotate(90 669.5 769.5)"/>
                </g>
            </g>
        </g>
    </g>
</svg>
